<ttFont>
    <TTGlyph name="A" xMin="44" yMin="0" xMax="732" yMax="730">
      <contour>
        <pt x="245" y="226" on="1"/>
        <pt x="430" y="226" on="1"/>
        <pt x="339" y="501" on="1"/>
      </contour>
      <contour>
        <pt x="44" y="0" on="1"/>
        <pt x="44" y="32" on="1"/>
        <pt x="78" y="32" on="1"/>
        <pt x="108" y="32" on="0"/>
        <pt x="154" y="80" on="0"/>
        <pt x="166" y="113" on="1"/>
        <pt x="377" y="730" on="1"/>
        <pt x="419" y="730" on="1"/>
        <pt x="633" y="83" on="1"/>
        <pt x="650" y="32" on="0"/>
        <pt x="692" y="32" on="1"/>
        <pt x="732" y="32" on="1"/>
        <pt x="732" y="0" on="1"/>
        <pt x="381" y="0" on="1"/>
        <pt x="381" y="32" on="1"/>
        <pt x="453" y="32" on="1"/>
        <pt x="464" y="32" on="0"/>
        <pt x="480" y="51" on="0"/>
        <pt x="480" y="64" on="1"/>
        <pt x="480" y="75" on="0"/>
        <pt x="474" y="93" on="1"/>
        <pt x="442" y="189" on="1"/>
        <pt x="232" y="189" on="1"/>
        <pt x="211" y="128" on="1"/>
        <pt x="200" y="100" on="0"/>
        <pt x="200" y="77" on="1"/>
        <pt x="200" y="60" on="0"/>
        <pt x="228" y="32" on="0"/>
        <pt x="252" y="32" on="1"/>
        <pt x="299" y="32" on="1"/>
        <pt x="299" y="0" on="1"/>
      </contour>
    </TTGlyph>
    <TTGlyph name="AE" xMin="26" yMin="0" xMax="958" yMax="712">
      <contour>
        <pt x="26" y="0" on="1"/>
        <pt x="26" y="32" on="1"/>
        <pt x="49" y="32" on="1"/>
        <pt x="86" y="32" on="0"/>
        <pt x="152" y="82" on="0"/>
        <pt x="171" y="120" on="1"/>
        <pt x="412" y="591" on="1"/>
        <pt x="434" y="635" on="0"/>
        <pt x="434" y="654" on="1"/>
        <pt x="434" y="665" on="0"/>
        <pt x="418" y="680" on="0"/>
        <pt x="405" y="680" on="1"/>
        <pt x="376" y="680" on="1"/>
        <pt x="376" y="712" on="1"/>
        <pt x="944" y="712" on="1"/>
        <pt x="950" y="480" on="1"/>
        <pt x="918" y="480" on="1"/>
        <pt x="908" y="544" on="0"/>
        <pt x="878" y="594" on="1"/>
        <pt x="829" y="680" on="0"/>
        <pt x="758" y="680" on="1"/>
        <pt x="648" y="680" on="1"/>
        <pt x="634" y="680" on="0"/>
        <pt x="624" y="670" on="0"/>
        <pt x="624" y="656" on="1"/>
        <pt x="624" y="380" on="1"/>
        <pt x="675" y="380" on="1"/>
        <pt x="702" y="380" on="0"/>
        <pt x="749" y="425" on="0"/>
        <pt x="775" y="488" on="0"/>
        <pt x="775" y="518" on="1"/>
        <pt x="807" y="518" on="1"/>
        <pt x="807" y="205" on="1"/>
        <pt x="775" y="205" on="1"/>
        <pt x="775" y="235" on="0"/>
        <pt x="749" y="299" on="0"/>
        <pt x="702" y="344" on="0"/>
        <pt x="675" y="344" on="1"/>
        <pt x="624" y="344" on="1"/>
        <pt x="624" y="56" on="1"/>
        <pt x="624" y="42" on="0"/>
        <pt x="634" y="32" on="0"/>
        <pt x="648" y="32" on="1"/>
        <pt x="757" y="32" on="1"/>
        <pt x="786" y="32" on="0"/>
        <pt x="837" y="60" on="0"/>
        <pt x="873" y="106" on="0"/>
        <pt x="897" y="150" on="0"/>
        <pt x="905" y="174" on="1"/>
        <pt x="911" y="190" on="0"/>
        <pt x="922" y="242" on="0"/>
        <pt x="924" y="259" on="1"/>
        <pt x="926" y="276" on="1"/>
        <pt x="958" y="276" on="1"/>
        <pt x="952" y="0" on="1"/>
        <pt x="381" y="0" on="1"/>
        <pt x="381" y="32" on="1"/>
        <pt x="451" y="32" on="1"/>
        <pt x="464" y="32" on="0"/>
        <pt x="475" y="42" on="0"/>
        <pt x="475" y="56" on="1"/>
        <pt x="475" y="210" on="1"/>
        <pt x="266" y="210" on="1"/>
        <pt x="243" y="166" on="1"/>
        <pt x="232" y="146" on="0"/>
        <pt x="214" y="96" on="0"/>
        <pt x="214" y="83" on="1"/>
        <pt x="214" y="32" on="0"/>
        <pt x="263" y="32" on="1"/>
        <pt x="296" y="32" on="1"/>
        <pt x="296" y="0" on="1"/>
      </contour>
      <contour>
        <pt x="283" y="246" on="1"/>
        <pt x="475" y="246" on="1"/>
        <pt x="475" y="620" on="1"/>
      </contour>
    </TTGlyph>
    <TTGlyph name="Aacute" xMin="44" yMin="0" xMax="732" yMax="948">
      <component glyphName="A" x="0" y="0" flags="0x1004"/>
      <component glyphName="Acute" x="176" y="0" flags="0x1004"/>
    </TTGlyph>
    <TTGlyph name="Acircumflex" xMin="44" yMin="0" xMax="732" yMax="930">
      <component glyphName="A" x="0" y="0" flags="0x1004"/>
      <component glyphName="Circumflex" x="176" y="0" flags="0x1004"/>
    </TTGlyph>
    <TTGlyph name="Acute" xMin="188" yMin="760" xMax="368" yMax="948">
      <contour>
        <pt x="188" y="778" on="1"/>
        <pt x="277" y="916" on="1"/>
        <pt x="298" y="948" on="0"/>
        <pt x="326" y="948" on="1"/>
        <pt x="344" y="948" on="0"/>
        <pt x="368" y="926" on="0"/>
        <pt x="368" y="908" on="1"/>
        <pt x="368" y="882" on="0"/>
        <pt x="340" y="860" on="1"/>
        <pt x="208" y="760" on="1"/>
      </contour>
    </TTGlyph>
    <TTGlyph name="Adieresis" xMin="44" yMin="0" xMax="732" yMax="918">
      <component glyphName="A" x="0" y="0" flags="0x1004"/>
      <component glyphName="Dieresis" x="176" y="0" flags="0x1004"/>
    </TTGlyph>
    <TTGlyph name="Agrave" xMin="44" yMin="0" xMax="732" yMax="948">
      <component glyphName="A" x="0" y="0" flags="0x1004"/>
      <component glyphName="Grave" x="175" y="0" flags="0x1004"/>
    </TTGlyph>
    <TTGlyph name="Aring" xMin="44" yMin="0" xMax="732" yMax="946">
      <component glyphName="A" x="0" y="0" flags="0x1004"/>
      <component glyphName="Ring" x="176" y="0" flags="0x1004"/>
    </TTGlyph>
    <TTGlyph name="Atilde" xMin="44" yMin="0" xMax="732" yMax="912">
      <component glyphName="A" x="0" y="0" flags="0x1004"/>
      <component glyphName="Tilde" x="176" y="0" flags="0x1004"/>
    </TTGlyph>
    <TTGlyph name="B" xMin="62" yMin="0" xMax="662" yMax="712">
      <contour>
        <pt x="304" y="56" on="1"/>
        <pt x="304" y="42" on="0"/>
        <pt x="314" y="32" on="0"/>
        <pt x="328" y="32" on="1"/>
        <pt x="396" y="32" on="1"/>
        <pt x="422" y="32" on="0"/>
        <pt x="459" y="47" on="0"/>
        <pt x="488" y="82" on="0"/>
        <pt x="502" y="147" on="0"/>
        <pt x="502" y="241" on="0"/>
        <pt x="488" y="306" on="0"/>
        <pt x="459" y="341" on="0"/>
        <pt x="422" y="356" on="0"/>
        <pt x="396" y="356" on="1"/>
        <pt x="304" y="356" on="1"/>
      </contour>
      <contour>
        <pt x="62" y="0" on="1"/>
        <pt x="62" y="32" on="1"/>
        <pt x="132" y="32" on="1"/>
        <pt x="146" y="32" on="0"/>
        <pt x="156" y="42" on="0"/>
        <pt x="156" y="56" on="1"/>
        <pt x="156" y="656" on="1"/>
        <pt x="156" y="670" on="0"/>
        <pt x="146" y="680" on="0"/>
        <pt x="132" y="680" on="1"/>
        <pt x="62" y="680" on="1"/>
        <pt x="62" y="712" on="1"/>
        <pt x="414" y="712" on="1"/>
        <pt x="474" y="712" on="0"/>
        <pt x="576" y="670" on="0"/>
        <pt x="638" y="590" on="0"/>
        <pt x="638" y="542" on="1"/>
        <pt x="638" y="508" on="0"/>
        <pt x="608" y="450" on="0"/>
        <pt x="558" y="410" on="0"/>
        <pt x="502" y="384" on="0"/>
        <pt x="469" y="375" on="1"/>
        <pt x="469" y="369" on="1"/>
        <pt x="502" y="364" on="0"/>
        <pt x="568" y="337" on="0"/>
        <pt x="626" y="295" on="0"/>
        <pt x="662" y="231" on="0"/>
        <pt x="662" y="194" on="1"/>
        <pt x="662" y="133" on="0"/>
        <pt x="596" y="44" on="0"/>
        <pt x="492" y="0" on="0"/>
        <pt x="427" y="0" on="1"/>
      </contour>
      <contour>
        <pt x="304" y="388" on="1"/>
        <pt x="396" y="388" on="1"/>
        <pt x="424" y="388" on="0"/>
        <pt x="462" y="410" on="0"/>
        <pt x="480" y="452" on="0"/>
        <pt x="488" y="504" on="0"/>
        <pt x="488" y="542" on="1"/>
        <pt x="488" y="608" on="0"/>
        <pt x="442" y="680" on="0"/>
        <pt x="402" y="680" on="1"/>
        <pt x="328" y="680" on="1"/>
        <pt x="314" y="680" on="0"/>
        <pt x="304" y="670" on="0"/>
        <pt x="304" y="656" on="1"/>
      </contour>
    </TTGlyph>
    <TTGlyph name="C" xMin="70" yMin="-18" xMax="612" yMax="730">
      <contour>
        <pt x="70" y="356" on="1"/>
        <pt x="70" y="432" on="0"/>
        <pt x="108" y="566" on="0"/>
        <pt x="179" y="670" on="0"/>
        <pt x="286" y="730" on="0"/>
        <pt x="350" y="730" on="1"/>
        <pt x="387" y="730" on="0"/>
        <pt x="450" y="704" on="0"/>
        <pt x="485" y="681" on="1"/>
        <pt x="508" y="666" on="0"/>
        <pt x="519" y="666" on="1"/>
        <pt x="532" y="666" on="0"/>
        <pt x="541" y="685" on="1"/>
        <pt x="559" y="722" on="1"/>
        <pt x="592" y="722" on="1"/>
        <pt x="592" y="415" on="1"/>
        <pt x="560" y="415" on="1"/>
        <pt x="538" y="544" on="0"/>
        <pt x="424" y="698" on="0"/>
        <pt x="350" y="698" on="1"/>
        <pt x="302" y="698" on="0"/>
        <pt x="240" y="606" on="0"/>
        <pt x="240" y="506" on="1"/>
        <pt x="240" y="206" on="1"/>
        <pt x="240" y="154" on="0"/>
        <pt x="262" y="77" on="0"/>
        <pt x="297" y="34" on="0"/>
        <pt x="338" y="14" on="0"/>
        <pt x="360" y="14" on="1"/>
        <pt x="478" y="14" on="0"/>
        <pt x="537" y="123" on="1"/>
        <pt x="566" y="176" on="0"/>
        <pt x="576" y="275" on="1"/>
        <pt x="612" y="275" on="1"/>
        <pt x="604" y="175" on="0"/>
        <pt x="571" y="109" on="1"/>
        <pt x="540" y="49" on="0"/>
        <pt x="433" y="-18" on="0"/>
        <pt x="360" y="-18" on="1"/>
        <pt x="304" y="-18" on="0"/>
        <pt x="208" y="24" on="0"/>
        <pt x="140" y="96" on="0"/>
        <pt x="92" y="191" on="0"/>
        <pt x="70" y="299" on="0"/>
      </contour>
    </TTGlyph>
    <TTGlyph name="Ccedilla" xMin="70" yMin="-238" xMax="612" yMax="730">
      <contour>
        <pt x="70" y="356" on="1"/>
        <pt x="70" y="432" on="0"/>
        <pt x="108" y="566" on="0"/>
        <pt x="179" y="670" on="0"/>
        <pt x="286" y="730" on="0"/>
        <pt x="350" y="730" on="1"/>
        <pt x="387" y="730" on="0"/>
        <pt x="450" y="704" on="0"/>
        <pt x="485" y="681" on="1"/>
        <pt x="508" y="666" on="0"/>
        <pt x="519" y="666" on="1"/>
        <pt x="532" y="666" on="0"/>
        <pt x="541" y="685" on="1"/>
        <pt x="559" y="722" on="1"/>
        <pt x="592" y="722" on="1"/>
        <pt x="592" y="415" on="1"/>
        <pt x="560" y="415" on="1"/>
        <pt x="538" y="544" on="0"/>
        <pt x="424" y="698" on="0"/>
        <pt x="350" y="698" on="1"/>
        <pt x="302" y="698" on="0"/>
        <pt x="240" y="606" on="0"/>
        <pt x="240" y="506" on="1"/>
        <pt x="240" y="206" on="1"/>
        <pt x="240" y="154" on="0"/>
        <pt x="262" y="77" on="0"/>
        <pt x="297" y="34" on="0"/>
        <pt x="338" y="14" on="0"/>
        <pt x="360" y="14" on="1"/>
        <pt x="478" y="14" on="0"/>
        <pt x="537" y="123" on="1"/>
        <pt x="566" y="176" on="0"/>
        <pt x="576" y="275" on="1"/>
        <pt x="612" y="275" on="1"/>
        <pt x="604" y="175" on="0"/>
        <pt x="571" y="109" on="1"/>
        <pt x="540" y="49" on="0"/>
        <pt x="433" y="-18" on="0"/>
        <pt x="360" y="-18" on="1"/>
        <pt x="354" y="-18" on="1"/>
        <pt x="345" y="-48" on="1"/>
        <pt x="371" y="-54" on="1"/>
        <pt x="414" y="-64" on="0"/>
        <pt x="459" y="-110" on="0"/>
        <pt x="459" y="-145" on="1"/>
        <pt x="459" y="-184" on="0"/>
        <pt x="392" y="-238" on="0"/>
        <pt x="333" y="-238" on="1"/>
        <pt x="299" y="-238" on="0"/>
        <pt x="244" y="-208" on="0"/>
        <pt x="227" y="-187" on="1"/>
        <pt x="245" y="-166" on="1"/>
        <pt x="282" y="-202" on="0"/>
        <pt x="319" y="-202" on="1"/>
        <pt x="346" y="-202" on="0"/>
        <pt x="381" y="-170" on="0"/>
        <pt x="381" y="-138" on="1"/>
        <pt x="381" y="-116" on="0"/>
        <pt x="360" y="-90" on="0"/>
        <pt x="334" y="-83" on="1"/>
        <pt x="303" y="-76" on="1"/>
        <pt x="324" y="-16" on="1"/>
        <pt x="262" y="-8" on="0"/>
        <pt x="164" y="61" on="0"/>
        <pt x="102" y="164" on="0"/>
        <pt x="70" y="289" on="0"/>
      </contour>
    </TTGlyph>
    <TTGlyph name="Circumflex" xMin="52" yMin="762" xMax="388" yMax="930">
      <contour>
        <pt x="52" y="786" on="1"/>
        <pt x="148" y="836" on="0"/>
        <pt x="200" y="930" on="1"/>
        <pt x="240" y="930" on="1"/>
        <pt x="289" y="836" on="0"/>
        <pt x="388" y="786" on="1"/>
        <pt x="376" y="762" on="1"/>
        <pt x="333" y="778" on="0"/>
        <pt x="267" y="812" on="0"/>
        <pt x="220" y="842" on="1"/>
        <pt x="173" y="812" on="0"/>
        <pt x="107" y="778" on="0"/>
        <pt x="64" y="762" on="1"/>
      </contour>
    </TTGlyph>
    <TTGlyph name="D" xMin="62" yMin="0" xMax="736" yMax="712">
      <contour>
        <pt x="304" y="56" on="1"/>
        <pt x="304" y="42" on="0"/>
        <pt x="314" y="32" on="0"/>
        <pt x="328" y="32" on="1"/>
        <pt x="417" y="32" on="1"/>
        <pt x="482" y="32" on="0"/>
        <pt x="566" y="120" on="0"/>
        <pt x="566" y="206" on="1"/>
        <pt x="566" y="506" on="1"/>
        <pt x="566" y="592" on="0"/>
        <pt x="482" y="680" on="0"/>
        <pt x="417" y="680" on="1"/>
        <pt x="328" y="680" on="1"/>
        <pt x="314" y="680" on="0"/>
        <pt x="304" y="670" on="0"/>
        <pt x="304" y="656" on="1"/>
      </contour>
      <contour>
        <pt x="62" y="0" on="1"/>
        <pt x="62" y="32" on="1"/>
        <pt x="132" y="32" on="1"/>
        <pt x="146" y="32" on="0"/>
        <pt x="156" y="42" on="0"/>
        <pt x="156" y="56" on="1"/>
        <pt x="156" y="656" on="1"/>
        <pt x="156" y="670" on="0"/>
        <pt x="146" y="680" on="0"/>
        <pt x="132" y="680" on="1"/>
        <pt x="62" y="680" on="1"/>
        <pt x="62" y="712" on="1"/>
        <pt x="434" y="712" on="1"/>
        <pt x="496" y="712" on="0"/>
        <pt x="606" y="660" on="0"/>
        <pt x="688" y="570" on="0"/>
        <pt x="736" y="438" on="0"/>
        <pt x="736" y="362" on="1"/>
        <pt x="736" y="260" on="0"/>
        <pt x="654" y="94" on="0"/>
        <pt x="516" y="0" on="0"/>
        <pt x="434" y="0" on="1"/>
      </contour>
    </TTGlyph>
    <TTGlyph name="Dieresis" xMin="54" yMin="790" xMax="386" yMax="918">
      <contour>
        <pt x="258" y="827" on="0"/>
        <pt x="258" y="881" on="0"/>
        <pt x="295" y="918" on="0"/>
        <pt x="349" y="918" on="0"/>
        <pt x="386" y="881" on="0"/>
        <pt x="386" y="827" on="0"/>
        <pt x="349" y="790" on="0"/>
        <pt x="295" y="790" on="0"/>
      </contour>
      <contour>
        <pt x="54" y="827" on="0"/>
        <pt x="54" y="881" on="0"/>
        <pt x="91" y="918" on="0"/>
        <pt x="145" y="918" on="0"/>
        <pt x="182" y="881" on="0"/>
        <pt x="182" y="827" on="0"/>
        <pt x="145" y="790" on="0"/>
        <pt x="91" y="790" on="0"/>
      </contour>
    </TTGlyph>
    <TTGlyph name="E" xMin="62" yMin="0" xMax="638" yMax="712">
      <contour>
        <pt x="62" y="0" on="1"/>
        <pt x="62" y="32" on="1"/>
        <pt x="132" y="32" on="1"/>
        <pt x="146" y="32" on="0"/>
        <pt x="156" y="42" on="0"/>
        <pt x="156" y="56" on="1"/>
        <pt x="156" y="656" on="1"/>
        <pt x="156" y="670" on="0"/>
        <pt x="146" y="680" on="0"/>
        <pt x="132" y="680" on="1"/>
        <pt x="62" y="680" on="1"/>
        <pt x="62" y="712" on="1"/>
        <pt x="624" y="712" on="1"/>
        <pt x="630" y="480" on="1"/>
        <pt x="598" y="480" on="1"/>
        <pt x="588" y="544" on="0"/>
        <pt x="558" y="594" on="1"/>
        <pt x="509" y="680" on="0"/>
        <pt x="438" y="680" on="1"/>
        <pt x="328" y="680" on="1"/>
        <pt x="314" y="680" on="0"/>
        <pt x="304" y="670" on="0"/>
        <pt x="304" y="656" on="1"/>
        <pt x="304" y="380" on="1"/>
        <pt x="355" y="380" on="1"/>
        <pt x="382" y="380" on="0"/>
        <pt x="429" y="425" on="0"/>
        <pt x="455" y="488" on="0"/>
        <pt x="455" y="518" on="1"/>
        <pt x="487" y="518" on="1"/>
        <pt x="487" y="205" on="1"/>
        <pt x="455" y="205" on="1"/>
        <pt x="455" y="235" on="0"/>
        <pt x="429" y="299" on="0"/>
        <pt x="382" y="344" on="0"/>
        <pt x="355" y="344" on="1"/>
        <pt x="304" y="344" on="1"/>
        <pt x="304" y="56" on="1"/>
        <pt x="304" y="42" on="0"/>
        <pt x="314" y="32" on="0"/>
        <pt x="328" y="32" on="1"/>
        <pt x="437" y="32" on="1"/>
        <pt x="466" y="32" on="0"/>
        <pt x="517" y="60" on="0"/>
        <pt x="553" y="106" on="0"/>
        <pt x="577" y="150" on="0"/>
        <pt x="585" y="174" on="1"/>
        <pt x="591" y="190" on="0"/>
        <pt x="602" y="242" on="0"/>
        <pt x="604" y="259" on="1"/>
        <pt x="606" y="276" on="1"/>
        <pt x="638" y="276" on="1"/>
        <pt x="632" y="0" on="1"/>
      </contour>
    </TTGlyph>
    <TTGlyph name="Eacute" xMin="62" yMin="0" xMax="638" yMax="948">
      <component glyphName="E" x="0" y="0" flags="0x1004"/>
      <component glyphName="Acute" x="152" y="0" flags="0x1004"/>
    </TTGlyph>
    <TTGlyph name="Ecircumflex" xMin="62" yMin="0" xMax="638" yMax="930">
      <component glyphName="E" x="0" y="0" flags="0x1004"/>
      <component glyphName="Circumflex" x="152" y="0" flags="0x1004"/>
    </TTGlyph>
    <TTGlyph name="Edieresis" xMin="62" yMin="0" xMax="638" yMax="918">
      <component glyphName="E" x="0" y="0" flags="0x1004"/>
      <component glyphName="Dieresis" x="152" y="0" flags="0x1004"/>
    </TTGlyph>
    <TTGlyph name="Egrave" xMin="62" yMin="0" xMax="638" yMax="948">
      <component glyphName="E" x="0" y="0" flags="0x1004"/>
      <component glyphName="Grave" x="152" y="0" flags="0x1004"/>
    </TTGlyph>
    <TTGlyph name="F" xMin="62" yMin="0" xMax="634" yMax="712">
      <contour>
        <pt x="62" y="0" on="1"/>
        <pt x="62" y="32" on="1"/>
        <pt x="132" y="32" on="1"/>
        <pt x="146" y="32" on="0"/>
        <pt x="156" y="42" on="0"/>
        <pt x="156" y="56" on="1"/>
        <pt x="156" y="656" on="1"/>
        <pt x="156" y="670" on="0"/>
        <pt x="146" y="680" on="0"/>
        <pt x="132" y="680" on="1"/>
        <pt x="62" y="680" on="1"/>
        <pt x="62" y="712" on="1"/>
        <pt x="626" y="712" on="1"/>
        <pt x="634" y="438" on="1"/>
        <pt x="602" y="438" on="1"/>
        <pt x="591" y="518" on="0"/>
        <pt x="566" y="571" on="1"/>
        <pt x="545" y="616" on="0"/>
        <pt x="474" y="680" on="0"/>
        <pt x="430" y="680" on="1"/>
        <pt x="328" y="680" on="1"/>
        <pt x="314" y="680" on="0"/>
        <pt x="304" y="670" on="0"/>
        <pt x="304" y="656" on="1"/>
        <pt x="304" y="380" on="1"/>
        <pt x="355" y="380" on="1"/>
        <pt x="382" y="380" on="0"/>
        <pt x="429" y="425" on="0"/>
        <pt x="455" y="488" on="0"/>
        <pt x="455" y="518" on="1"/>
        <pt x="487" y="518" on="1"/>
        <pt x="487" y="205" on="1"/>
        <pt x="455" y="205" on="1"/>
        <pt x="455" y="235" on="0"/>
        <pt x="429" y="299" on="0"/>
        <pt x="382" y="344" on="0"/>
        <pt x="355" y="344" on="1"/>
        <pt x="304" y="344" on="1"/>
        <pt x="304" y="56" on="1"/>
        <pt x="304" y="42" on="0"/>
        <pt x="314" y="32" on="0"/>
        <pt x="328" y="32" on="1"/>
        <pt x="419" y="32" on="1"/>
        <pt x="419" y="0" on="1"/>
      </contour>
    </TTGlyph>
    <TTGlyph name="G" xMin="70" yMin="-18" xMax="688" yMax="730">
      <contour>
        <pt x="70" y="356" on="1"/>
        <pt x="70" y="430" on="0"/>
        <pt x="114" y="567" on="0"/>
        <pt x="192" y="669" on="0"/>
        <pt x="304" y="730" on="0"/>
        <pt x="368" y="730" on="1"/>
        <pt x="411" y="730" on="0"/>
        <pt x="474" y="705" on="0"/>
        <pt x="510" y="681" on="1"/>
        <pt x="534" y="666" on="0"/>
        <pt x="544" y="666" on="1"/>
        <pt x="558" y="666" on="0"/>
        <pt x="566" y="685" on="1"/>
        <pt x="583" y="722" on="1"/>
        <pt x="616" y="722" on="1"/>
        <pt x="616" y="434" on="1"/>
        <pt x="585" y="434" on="1"/>
        <pt x="550" y="562" on="0"/>
        <pt x="442" y="698" on="0"/>
        <pt x="368" y="698" on="1"/>
        <pt x="307" y="698" on="0"/>
        <pt x="240" y="608" on="0"/>
        <pt x="240" y="506" on="1"/>
        <pt x="240" y="206" on="1"/>
        <pt x="240" y="14" on="0"/>
        <pt x="350" y="14" on="1"/>
        <pt x="402" y="14" on="0"/>
        <pt x="468" y="102" on="0"/>
        <pt x="468" y="161" on="1"/>
        <pt x="468" y="298" on="1"/>
        <pt x="468" y="312" on="0"/>
        <pt x="458" y="322" on="0"/>
        <pt x="444" y="322" on="1"/>
        <pt x="356" y="322" on="1"/>
        <pt x="356" y="354" on="1"/>
        <pt x="688" y="354" on="1"/>
        <pt x="688" y="322" on="1"/>
        <pt x="640" y="322" on="1"/>
        <pt x="626" y="322" on="0"/>
        <pt x="616" y="312" on="0"/>
        <pt x="616" y="298" on="1"/>
        <pt x="616" y="-13" on="1"/>
        <pt x="584" y="-13" on="1"/>
        <pt x="560" y="78" on="1"/>
        <pt x="558" y="88" on="0"/>
        <pt x="545" y="103" on="0"/>
        <pt x="536" y="103" on="1"/>
        <pt x="518" y="103" on="0"/>
        <pt x="505" y="82" on="1"/>
        <pt x="494" y="66" on="0"/>
        <pt x="467" y="35" on="0"/>
        <pt x="428" y="2" on="0"/>
        <pt x="377" y="-18" on="0"/>
        <pt x="350" y="-18" on="1"/>
        <pt x="286" y="-18" on="0"/>
        <pt x="179" y="43" on="0"/>
        <pt x="108" y="146" on="0"/>
        <pt x="70" y="281" on="0"/>
      </contour>
    </TTGlyph>
    <TTGlyph name="Grave" xMin="72" yMin="760" xMax="252" yMax="948">
      <contour>
        <pt x="72" y="908" on="1"/>
        <pt x="72" y="926" on="0"/>
        <pt x="96" y="948" on="0"/>
        <pt x="114" y="948" on="1"/>
        <pt x="142" y="948" on="0"/>
        <pt x="163" y="916" on="1"/>
        <pt x="252" y="778" on="1"/>
        <pt x="232" y="760" on="1"/>
        <pt x="100" y="860" on="1"/>
        <pt x="72" y="882" on="0"/>
      </contour>
    </TTGlyph>
    <TTGlyph name="H" xMin="62" yMin="0" xMax="782" yMax="712">
      <contour>
        <pt x="62" y="0" on="1"/>
        <pt x="62" y="32" on="1"/>
        <pt x="132" y="32" on="1"/>
        <pt x="146" y="32" on="0"/>
        <pt x="156" y="42" on="0"/>
        <pt x="156" y="56" on="1"/>
        <pt x="156" y="656" on="1"/>
        <pt x="156" y="670" on="0"/>
        <pt x="146" y="680" on="0"/>
        <pt x="132" y="680" on="1"/>
        <pt x="62" y="680" on="1"/>
        <pt x="62" y="712" on="1"/>
        <pt x="398" y="712" on="1"/>
        <pt x="398" y="680" on="1"/>
        <pt x="328" y="680" on="1"/>
        <pt x="314" y="680" on="0"/>
        <pt x="304" y="670" on="0"/>
        <pt x="304" y="656" on="1"/>
        <pt x="304" y="392" on="1"/>
        <pt x="540" y="392" on="1"/>
        <pt x="540" y="656" on="1"/>
        <pt x="540" y="670" on="0"/>
        <pt x="530" y="680" on="0"/>
        <pt x="516" y="680" on="1"/>
        <pt x="444" y="680" on="1"/>
        <pt x="444" y="712" on="1"/>
        <pt x="782" y="712" on="1"/>
        <pt x="782" y="680" on="1"/>
        <pt x="712" y="680" on="1"/>
        <pt x="698" y="680" on="0"/>
        <pt x="688" y="670" on="0"/>
        <pt x="688" y="656" on="1"/>
        <pt x="688" y="56" on="1"/>
        <pt x="688" y="42" on="0"/>
        <pt x="698" y="32" on="0"/>
        <pt x="712" y="32" on="1"/>
        <pt x="782" y="32" on="1"/>
        <pt x="782" y="0" on="1"/>
        <pt x="446" y="0" on="1"/>
        <pt x="446" y="32" on="1"/>
        <pt x="516" y="32" on="1"/>
        <pt x="530" y="32" on="0"/>
        <pt x="540" y="42" on="0"/>
        <pt x="540" y="56" on="1"/>
        <pt x="540" y="356" on="1"/>
        <pt x="304" y="356" on="1"/>
        <pt x="304" y="56" on="1"/>
        <pt x="304" y="42" on="0"/>
        <pt x="314" y="32" on="0"/>
        <pt x="328" y="32" on="1"/>
        <pt x="398" y="32" on="1"/>
        <pt x="398" y="0" on="1"/>
      </contour>
    </TTGlyph>
    <TTGlyph name="I" xMin="62" yMin="0" xMax="398" yMax="712">
      <contour>
        <pt x="62" y="0" on="1"/>
        <pt x="62" y="32" on="1"/>
        <pt x="132" y="32" on="1"/>
        <pt x="146" y="32" on="0"/>
        <pt x="156" y="42" on="0"/>
        <pt x="156" y="56" on="1"/>
        <pt x="156" y="656" on="1"/>
        <pt x="156" y="670" on="0"/>
        <pt x="146" y="680" on="0"/>
        <pt x="132" y="680" on="1"/>
        <pt x="62" y="680" on="1"/>
        <pt x="62" y="712" on="1"/>
        <pt x="398" y="712" on="1"/>
        <pt x="398" y="680" on="1"/>
        <pt x="328" y="680" on="1"/>
        <pt x="314" y="680" on="0"/>
        <pt x="304" y="670" on="0"/>
        <pt x="304" y="656" on="1"/>
        <pt x="304" y="56" on="1"/>
        <pt x="304" y="42" on="0"/>
        <pt x="314" y="32" on="0"/>
        <pt x="328" y="32" on="1"/>
        <pt x="398" y="32" on="1"/>
        <pt x="398" y="0" on="1"/>
      </contour>
    </TTGlyph>
    <TTGlyph name="Iacute" xMin="62" yMin="0" xMax="398" yMax="948">
      <component glyphName="I" x="0" y="0" flags="0x1004"/>
      <component glyphName="Acute" x="10" y="0" flags="0x1004"/>
    </TTGlyph>
    <TTGlyph name="Icircumflex" xMin="62" yMin="0" xMax="398" yMax="930">
      <component glyphName="I" x="0" y="0" flags="0x1004"/>
      <component glyphName="Circumflex" x="10" y="0" flags="0x1004"/>
    </TTGlyph>
    <TTGlyph name="Idieresis" xMin="62" yMin="0" xMax="398" yMax="918">
      <component glyphName="I" x="0" y="0" flags="0x1004"/>
      <component glyphName="Dieresis" x="10" y="0" flags="0x1004"/>
    </TTGlyph>
    <TTGlyph name="Igrave" xMin="62" yMin="0" xMax="398" yMax="948">
      <component glyphName="I" x="0" y="0" flags="0x1004"/>
      <component glyphName="Grave" x="10" y="0" flags="0x1004"/>
    </TTGlyph>
    <TTGlyph name="J" xMin="36" yMin="-18" xMax="512" yMax="712">
      <contour>
        <pt x="36" y="154" on="1"/>
        <pt x="36" y="206" on="0"/>
        <pt x="91" y="271" on="0"/>
        <pt x="126" y="271" on="1"/>
        <pt x="158" y="271" on="0"/>
        <pt x="197" y="230" on="0"/>
        <pt x="197" y="202" on="1"/>
        <pt x="197" y="168" on="0"/>
        <pt x="162" y="127" on="0"/>
        <pt x="136" y="118" on="1"/>
        <pt x="119" y="112" on="0"/>
        <pt x="104" y="92" on="0"/>
        <pt x="104" y="76" on="1"/>
        <pt x="104" y="54" on="0"/>
        <pt x="160" y="14" on="0"/>
        <pt x="202" y="14" on="1"/>
        <pt x="278" y="14" on="0"/>
        <pt x="278" y="130" on="1"/>
        <pt x="278" y="656" on="1"/>
        <pt x="278" y="670" on="0"/>
        <pt x="268" y="680" on="0"/>
        <pt x="254" y="680" on="1"/>
        <pt x="174" y="680" on="1"/>
        <pt x="174" y="712" on="1"/>
        <pt x="512" y="712" on="1"/>
        <pt x="512" y="680" on="1"/>
        <pt x="450" y="680" on="1"/>
        <pt x="436" y="680" on="0"/>
        <pt x="426" y="670" on="0"/>
        <pt x="426" y="656" on="1"/>
        <pt x="426" y="194" on="1"/>
        <pt x="426" y="145" on="0"/>
        <pt x="388" y="62" on="0"/>
        <pt x="328" y="10" on="0"/>
        <pt x="253" y="-18" on="0"/>
        <pt x="214" y="-18" on="1"/>
        <pt x="165" y="-18" on="0"/>
        <pt x="86" y="20" on="0"/>
        <pt x="36" y="100" on="0"/>
      </contour>
    </TTGlyph>
    <TTGlyph name="K" xMin="62" yMin="0" xMax="750" yMax="712">
      <contour>
        <pt x="62" y="0" on="1"/>
        <pt x="62" y="32" on="1"/>
        <pt x="132" y="32" on="1"/>
        <pt x="146" y="32" on="0"/>
        <pt x="156" y="42" on="0"/>
        <pt x="156" y="56" on="1"/>
        <pt x="156" y="656" on="1"/>
        <pt x="156" y="670" on="0"/>
        <pt x="146" y="680" on="0"/>
        <pt x="132" y="680" on="1"/>
        <pt x="62" y="680" on="1"/>
        <pt x="62" y="712" on="1"/>
        <pt x="390" y="712" on="1"/>
        <pt x="390" y="680" on="1"/>
        <pt x="328" y="680" on="1"/>
        <pt x="314" y="680" on="0"/>
        <pt x="304" y="670" on="0"/>
        <pt x="304" y="656" on="1"/>
        <pt x="304" y="360" on="1"/>
        <pt x="497" y="584" on="1"/>
        <pt x="511" y="600" on="0"/>
        <pt x="522" y="622" on="0"/>
        <pt x="522" y="638" on="1"/>
        <pt x="522" y="656" on="0"/>
        <pt x="502" y="680" on="0"/>
        <pt x="486" y="680" on="1"/>
        <pt x="457" y="680" on="1"/>
        <pt x="457" y="712" on="1"/>
        <pt x="704" y="712" on="1"/>
        <pt x="704" y="680" on="1"/>
        <pt x="669" y="680" on="1"/>
        <pt x="648" y="680" on="0"/>
        <pt x="603" y="650" on="0"/>
        <pt x="586" y="630" on="1"/>
        <pt x="452" y="475" on="1"/>
        <pt x="663" y="76" on="1"/>
        <pt x="676" y="51" on="0"/>
        <pt x="700" y="32" on="0"/>
        <pt x="723" y="32" on="1"/>
        <pt x="750" y="32" on="1"/>
        <pt x="750" y="0" on="1"/>
        <pt x="436" y="0" on="1"/>
        <pt x="436" y="32" on="1"/>
        <pt x="476" y="32" on="1"/>
        <pt x="485" y="32" on="0"/>
        <pt x="497" y="44" on="0"/>
        <pt x="497" y="53" on="1"/>
        <pt x="497" y="68" on="0"/>
        <pt x="492" y="78" on="1"/>
        <pt x="347" y="354" on="1"/>
        <pt x="304" y="305" on="1"/>
        <pt x="304" y="56" on="1"/>
        <pt x="304" y="42" on="0"/>
        <pt x="314" y="32" on="0"/>
        <pt x="328" y="32" on="1"/>
        <pt x="390" y="32" on="1"/>
        <pt x="390" y="0" on="1"/>
      </contour>
    </TTGlyph>
    <TTGlyph name="L" xMin="62" yMin="0" xMax="636" yMax="712">
      <contour>
        <pt x="62" y="0" on="1"/>
        <pt x="62" y="32" on="1"/>
        <pt x="132" y="32" on="1"/>
        <pt x="145" y="32" on="0"/>
        <pt x="156" y="45" on="0"/>
        <pt x="156" y="59" on="1"/>
        <pt x="156" y="656" on="1"/>
        <pt x="156" y="670" on="0"/>
        <pt x="146" y="680" on="0"/>
        <pt x="132" y="680" on="1"/>
        <pt x="62" y="680" on="1"/>
        <pt x="62" y="712" on="1"/>
        <pt x="398" y="712" on="1"/>
        <pt x="398" y="680" on="1"/>
        <pt x="328" y="680" on="1"/>
        <pt x="314" y="680" on="0"/>
        <pt x="304" y="670" on="0"/>
        <pt x="304" y="656" on="1"/>
        <pt x="304" y="59" on="1"/>
        <pt x="304" y="45" on="0"/>
        <pt x="315" y="32" on="0"/>
        <pt x="328" y="32" on="1"/>
        <pt x="429" y="32" on="1"/>
        <pt x="452" y="32" on="0"/>
        <pt x="496" y="58" on="0"/>
        <pt x="528" y="96" on="0"/>
        <pt x="556" y="146" on="0"/>
        <pt x="573" y="187" on="0"/>
        <pt x="579" y="206" on="1"/>
        <pt x="584" y="222" on="0"/>
        <pt x="596" y="274" on="0"/>
        <pt x="600" y="291" on="1"/>
        <pt x="604" y="308" on="1"/>
        <pt x="636" y="308" on="1"/>
        <pt x="628" y="0" on="1"/>
      </contour>
    </TTGlyph>
    <TTGlyph name="M" xMin="48" yMin="-12" xMax="858" yMax="712">
      <contour>
        <pt x="48" y="0" on="1"/>
        <pt x="48" y="32" on="1"/>
        <pt x="92" y="32" on="0"/>
        <pt x="152" y="77" on="0"/>
        <pt x="152" y="122" on="1"/>
        <pt x="152" y="656" on="1"/>
        <pt x="152" y="670" on="0"/>
        <pt x="142" y="680" on="0"/>
        <pt x="128" y="680" on="1"/>
        <pt x="48" y="680" on="1"/>
        <pt x="48" y="712" on="1"/>
        <pt x="287" y="712" on="1"/>
        <pt x="470" y="220" on="1"/>
        <pt x="604" y="712" on="1"/>
        <pt x="858" y="712" on="1"/>
        <pt x="858" y="680" on="1"/>
        <pt x="788" y="680" on="1"/>
        <pt x="774" y="680" on="0"/>
        <pt x="764" y="670" on="0"/>
        <pt x="764" y="656" on="1"/>
        <pt x="764" y="56" on="1"/>
        <pt x="764" y="42" on="0"/>
        <pt x="774" y="32" on="0"/>
        <pt x="788" y="32" on="1"/>
        <pt x="858" y="32" on="1"/>
        <pt x="858" y="0" on="1"/>
        <pt x="522" y="0" on="1"/>
        <pt x="522" y="32" on="1"/>
        <pt x="592" y="32" on="1"/>
        <pt x="606" y="32" on="0"/>
        <pt x="616" y="42" on="0"/>
        <pt x="616" y="56" on="1"/>
        <pt x="616" y="625" on="1"/>
        <pt x="442" y="-12" on="1"/>
        <pt x="403" y="-12" on="1"/>
        <pt x="199" y="537" on="1"/>
        <pt x="192" y="537" on="1"/>
        <pt x="192" y="122" on="1"/>
        <pt x="192" y="77" on="0"/>
        <pt x="252" y="32" on="0"/>
        <pt x="296" y="32" on="1"/>
        <pt x="296" y="0" on="1"/>
      </contour>
    </TTGlyph>
    <TTGlyph name="N" xMin="48" yMin="-18" xMax="756" yMax="712">
      <contour>
        <pt x="48" y="0" on="1"/>
        <pt x="48" y="32" on="1"/>
        <pt x="102" y="32" on="0"/>
        <pt x="174" y="90" on="0"/>
        <pt x="174" y="136" on="1"/>
        <pt x="174" y="563" on="1"/>
        <pt x="174" y="574" on="0"/>
        <pt x="170" y="584" on="0"/>
        <pt x="163" y="594" on="1"/>
        <pt x="123" y="654" on="1"/>
        <pt x="113" y="668" on="0"/>
        <pt x="90" y="680" on="0"/>
        <pt x="66" y="680" on="1"/>
        <pt x="48" y="680" on="1"/>
        <pt x="48" y="712" on="1"/>
        <pt x="270" y="712" on="1"/>
        <pt x="590" y="255" on="1"/>
        <pt x="590" y="576" on="1"/>
        <pt x="590" y="622" on="0"/>
        <pt x="518" y="680" on="0"/>
        <pt x="464" y="680" on="1"/>
        <pt x="464" y="712" on="1"/>
        <pt x="756" y="712" on="1"/>
        <pt x="756" y="680" on="1"/>
        <pt x="702" y="680" on="0"/>
        <pt x="630" y="622" on="0"/>
        <pt x="630" y="576" on="1"/>
        <pt x="630" y="-18" on="1"/>
        <pt x="592" y="-18" on="1"/>
        <pt x="218" y="517" on="1"/>
        <pt x="214" y="517" on="1"/>
        <pt x="214" y="136" on="1"/>
        <pt x="214" y="90" on="0"/>
        <pt x="286" y="32" on="0"/>
        <pt x="340" y="32" on="1"/>
        <pt x="340" y="0" on="1"/>
      </contour>
    </TTGlyph>
    <TTGlyph name="Ntilde" xMin="48" yMin="-18" xMax="756" yMax="912">
      <component glyphName="N" x="0" y="0" flags="0x1004"/>
      <component glyphName="Tilde" x="198" y="0" flags="0x1004"/>
    </TTGlyph>
    <TTGlyph name="O" xMin="70" yMin="-18" xMax="662" yMax="730">
      <contour>
        <pt x="70" y="286" on="0"/>
        <pt x="70" y="426" on="0"/>
        <pt x="118" y="564" on="0"/>
        <pt x="198" y="666" on="0"/>
        <pt x="308" y="730" on="0"/>
        <pt x="424" y="730" on="0"/>
        <pt x="534" y="666" on="0"/>
        <pt x="614" y="564" on="0"/>
        <pt x="662" y="426" on="0"/>
        <pt x="662" y="286" on="0"/>
        <pt x="614" y="148" on="0"/>
        <pt x="534" y="46" on="0"/>
        <pt x="424" y="-18" on="0"/>
        <pt x="308" y="-18" on="0"/>
        <pt x="198" y="46" on="0"/>
        <pt x="118" y="148" on="0"/>
      </contour>
      <contour>
        <pt x="240" y="206" on="1"/>
        <pt x="240" y="103" on="0"/>
        <pt x="306" y="14" on="0"/>
        <pt x="426" y="14" on="0"/>
        <pt x="492" y="103" on="0"/>
        <pt x="492" y="206" on="1"/>
        <pt x="492" y="506" on="1"/>
        <pt x="492" y="609" on="0"/>
        <pt x="426" y="698" on="0"/>
        <pt x="306" y="698" on="0"/>
        <pt x="240" y="609" on="0"/>
        <pt x="240" y="506" on="1"/>
      </contour>
    </TTGlyph>
    <TTGlyph name="Oacute" xMin="70" yMin="-18" xMax="662" yMax="948">
      <component glyphName="O" x="0" y="0" flags="0x1004"/>
      <component glyphName="Acute" x="146" y="0" flags="0x1004"/>
    </TTGlyph>
    <TTGlyph name="Ocircumflex" xMin="70" yMin="-18" xMax="662" yMax="930">
      <component glyphName="O" x="0" y="0" flags="0x1004"/>
      <component glyphName="Circumflex" x="146" y="0" flags="0x1004"/>
    </TTGlyph>
    <TTGlyph name="Odieresis" xMin="70" yMin="-18" xMax="662" yMax="918">
      <component glyphName="O" x="0" y="0" flags="0x1004"/>
      <component glyphName="Dieresis" x="146" y="0" flags="0x1004"/>
    </TTGlyph>
    <TTGlyph name="Ograve" xMin="70" yMin="-18" xMax="662" yMax="948">
      <component glyphName="O" x="0" y="0" flags="0x1004"/>
      <component glyphName="Grave" x="146" y="0" flags="0x1004"/>
    </TTGlyph>
    <TTGlyph name="Oslash" xMin="70" yMin="-18" xMax="662" yMax="730">
      <contour>
        <pt x="70" y="6" on="1"/>
        <pt x="150" y="109" on="1"/>
        <pt x="112" y="161" on="0"/>
        <pt x="70" y="289" on="0"/>
        <pt x="70" y="356" on="1"/>
        <pt x="70" y="426" on="0"/>
        <pt x="118" y="564" on="0"/>
        <pt x="198" y="666" on="0"/>
        <pt x="308" y="730" on="0"/>
        <pt x="366" y="730" on="1"/>
        <pt x="418" y="730" on="0"/>
        <pt x="517" y="679" on="0"/>
        <pt x="557" y="634" on="1"/>
        <pt x="631" y="730" on="1"/>
        <pt x="662" y="706" on="1"/>
        <pt x="582" y="603" on="1"/>
        <pt x="620" y="551" on="0"/>
        <pt x="662" y="423" on="0"/>
        <pt x="662" y="356" on="1"/>
        <pt x="662" y="286" on="0"/>
        <pt x="614" y="148" on="0"/>
        <pt x="534" y="46" on="0"/>
        <pt x="424" y="-18" on="0"/>
        <pt x="366" y="-18" on="1"/>
        <pt x="314" y="-18" on="0"/>
        <pt x="215" y="33" on="0"/>
        <pt x="175" y="78" on="1"/>
        <pt x="101" y="-18" on="1"/>
      </contour>
      <contour>
        <pt x="242" y="164" on="1"/>
        <pt x="248" y="84" on="0"/>
        <pt x="312" y="14" on="0"/>
        <pt x="366" y="14" on="1"/>
        <pt x="426" y="14" on="0"/>
        <pt x="492" y="103" on="0"/>
        <pt x="492" y="206" on="1"/>
        <pt x="492" y="487" on="1"/>
      </contour>
      <contour>
        <pt x="240" y="225" on="1"/>
        <pt x="490" y="548" on="1"/>
        <pt x="484" y="628" on="0"/>
        <pt x="420" y="698" on="0"/>
        <pt x="366" y="698" on="1"/>
        <pt x="306" y="698" on="0"/>
        <pt x="240" y="609" on="0"/>
        <pt x="240" y="506" on="1"/>
      </contour>
    </TTGlyph>
    <TTGlyph name="Otilde" xMin="70" yMin="-18" xMax="662" yMax="912">
      <component glyphName="O" x="0" y="0" flags="0x1004"/>
      <component glyphName="Tilde" x="146" y="0" flags="0x1004"/>
    </TTGlyph>
    <TTGlyph name="P" xMin="62" yMin="0" xMax="658" yMax="712">
      <contour>
        <pt x="62" y="0" on="1"/>
        <pt x="62" y="32" on="1"/>
        <pt x="132" y="32" on="1"/>
        <pt x="146" y="32" on="0"/>
        <pt x="156" y="42" on="0"/>
        <pt x="156" y="56" on="1"/>
        <pt x="156" y="656" on="1"/>
        <pt x="156" y="670" on="0"/>
        <pt x="146" y="680" on="0"/>
        <pt x="132" y="680" on="1"/>
        <pt x="62" y="680" on="1"/>
        <pt x="62" y="712" on="1"/>
        <pt x="418" y="712" on="1"/>
        <pt x="524" y="712" on="0"/>
        <pt x="658" y="608" on="0"/>
        <pt x="658" y="526" on="1"/>
        <pt x="658" y="443" on="0"/>
        <pt x="524" y="336" on="0"/>
        <pt x="418" y="336" on="1"/>
        <pt x="304" y="336" on="1"/>
        <pt x="304" y="56" on="1"/>
        <pt x="304" y="42" on="0"/>
        <pt x="314" y="32" on="0"/>
        <pt x="328" y="32" on="1"/>
        <pt x="416" y="32" on="1"/>
        <pt x="416" y="0" on="1"/>
      </contour>
      <contour>
        <pt x="304" y="368" on="1"/>
        <pt x="403" y="368" on="1"/>
        <pt x="430" y="368" on="0"/>
        <pt x="468" y="392" on="0"/>
        <pt x="489" y="437" on="0"/>
        <pt x="498" y="491" on="0"/>
        <pt x="498" y="526" on="1"/>
        <pt x="498" y="599" on="0"/>
        <pt x="456" y="680" on="0"/>
        <pt x="403" y="680" on="1"/>
        <pt x="328" y="680" on="1"/>
        <pt x="314" y="680" on="0"/>
        <pt x="304" y="670" on="0"/>
        <pt x="304" y="656" on="1"/>
      </contour>
    </TTGlyph>
    <TTGlyph name="Q" xMin="70" yMin="-238" xMax="666" yMax="730">
      <contour>
        <pt x="70" y="356" on="1"/>
        <pt x="70" y="426" on="0"/>
        <pt x="118" y="564" on="0"/>
        <pt x="198" y="666" on="0"/>
        <pt x="308" y="730" on="0"/>
        <pt x="424" y="730" on="0"/>
        <pt x="534" y="666" on="0"/>
        <pt x="614" y="564" on="0"/>
        <pt x="662" y="426" on="0"/>
        <pt x="662" y="356" on="1"/>
        <pt x="662" y="247" on="0"/>
        <pt x="554" y="54" on="0"/>
        <pt x="471" y="9" on="1"/>
        <pt x="479" y="-110" on="0"/>
        <pt x="555" y="-110" on="1"/>
        <pt x="594" y="-110" on="0"/>
        <pt x="634" y="-43" on="0"/>
        <pt x="634" y="8" on="1"/>
        <pt x="634" y="29" on="0"/>
        <pt x="631" y="56" on="1"/>
        <pt x="661" y="56" on="1"/>
        <pt x="666" y="24" on="0"/>
        <pt x="666" y="-21" on="1"/>
        <pt x="666" y="-114" on="0"/>
        <pt x="642" y="-164" on="1"/>
        <pt x="626" y="-198" on="0"/>
        <pt x="568" y="-238" on="0"/>
        <pt x="532" y="-238" on="1"/>
        <pt x="486" y="-238" on="0"/>
        <pt x="415" y="-168" on="0"/>
        <pt x="415" y="-110" on="1"/>
        <pt x="415" y="-48" on="0"/>
        <pt x="419" y="-11" on="1"/>
        <pt x="395" y="-18" on="0"/>
        <pt x="367" y="-18" on="1"/>
        <pt x="288" y="-18" on="0"/>
        <pt x="150" y="90" on="0"/>
        <pt x="70" y="262" on="0"/>
      </contour>
      <contour>
        <pt x="240" y="206" on="1"/>
        <pt x="240" y="102" on="0"/>
        <pt x="275" y="55" on="1"/>
        <pt x="277" y="56" on="1"/>
        <pt x="274" y="68" on="0"/>
        <pt x="274" y="80" on="1"/>
        <pt x="274" y="114" on="0"/>
        <pt x="321" y="166" on="0"/>
        <pt x="362" y="166" on="1"/>
        <pt x="404" y="166" on="0"/>
        <pt x="458" y="112" on="0"/>
        <pt x="464" y="71" on="1"/>
        <pt x="467" y="71" on="1"/>
        <pt x="492" y="121" on="0"/>
        <pt x="492" y="206" on="1"/>
        <pt x="492" y="506" on="1"/>
        <pt x="492" y="609" on="0"/>
        <pt x="426" y="698" on="0"/>
        <pt x="306" y="698" on="0"/>
        <pt x="240" y="609" on="0"/>
        <pt x="240" y="506" on="1"/>
      </contour>
      <contour>
        <pt x="302" y="75" on="1"/>
        <pt x="302" y="30" on="0"/>
        <pt x="332" y="18" on="1"/>
        <pt x="340" y="14" on="0"/>
        <pt x="366" y="14" on="1"/>
        <pt x="394" y="14" on="0"/>
        <pt x="421" y="25" on="1"/>
        <pt x="421" y="44" on="0"/>
        <pt x="419" y="70" on="0"/>
        <pt x="410" y="101" on="0"/>
        <pt x="396" y="120" on="0"/>
        <pt x="370" y="133" on="0"/>
        <pt x="351" y="133" on="1"/>
        <pt x="330" y="133" on="0"/>
        <pt x="302" y="97" on="0"/>
      </contour>
    </TTGlyph>
    <TTGlyph name="R" xMin="62" yMin="-24" xMax="714" yMax="712">
      <contour>
        <pt x="304" y="396" on="1"/>
        <pt x="371" y="396" on="1"/>
        <pt x="398" y="396" on="0"/>
        <pt x="436" y="418" on="0"/>
        <pt x="457" y="460" on="0"/>
        <pt x="466" y="510" on="0"/>
        <pt x="466" y="544" on="1"/>
        <pt x="466" y="612" on="0"/>
        <pt x="424" y="680" on="0"/>
        <pt x="371" y="680" on="1"/>
        <pt x="328" y="680" on="1"/>
        <pt x="314" y="680" on="0"/>
        <pt x="304" y="670" on="0"/>
        <pt x="304" y="656" on="1"/>
      </contour>
      <contour>
        <pt x="62" y="0" on="1"/>
        <pt x="62" y="32" on="1"/>
        <pt x="132" y="32" on="1"/>
        <pt x="146" y="32" on="0"/>
        <pt x="156" y="42" on="0"/>
        <pt x="156" y="56" on="1"/>
        <pt x="156" y="656" on="1"/>
        <pt x="156" y="670" on="0"/>
        <pt x="146" y="680" on="0"/>
        <pt x="132" y="680" on="1"/>
        <pt x="62" y="680" on="1"/>
        <pt x="62" y="712" on="1"/>
        <pt x="386" y="712" on="1"/>
        <pt x="494" y="712" on="0"/>
        <pt x="626" y="618" on="0"/>
        <pt x="626" y="536" on="1"/>
        <pt x="626" y="467" on="0"/>
        <pt x="524" y="386" on="0"/>
        <pt x="442" y="377" on="1"/>
        <pt x="442" y="370" on="1"/>
        <pt x="480" y="363" on="0"/>
        <pt x="535" y="339" on="0"/>
        <pt x="580" y="298" on="0"/>
        <pt x="604" y="230" on="0"/>
        <pt x="604" y="185" on="1"/>
        <pt x="604" y="74" on="1"/>
        <pt x="604" y="32" on="0"/>
        <pt x="632" y="32" on="1"/>
        <pt x="658" y="32" on="0"/>
        <pt x="682" y="118" on="0"/>
        <pt x="682" y="180" on="1"/>
        <pt x="714" y="180" on="1"/>
        <pt x="714" y="143" on="0"/>
        <pt x="708" y="85" on="0"/>
        <pt x="692" y="32" on="0"/>
        <pt x="666" y="-4" on="0"/>
        <pt x="623" y="-24" on="0"/>
        <pt x="595" y="-24" on="1"/>
        <pt x="531" y="-24" on="0"/>
        <pt x="456" y="52" on="0"/>
        <pt x="456" y="126" on="1"/>
        <pt x="456" y="250" on="1"/>
        <pt x="456" y="298" on="0"/>
        <pt x="409" y="364" on="0"/>
        <pt x="360" y="364" on="1"/>
        <pt x="304" y="364" on="1"/>
        <pt x="304" y="56" on="1"/>
        <pt x="304" y="42" on="0"/>
        <pt x="314" y="32" on="0"/>
        <pt x="328" y="32" on="1"/>
        <pt x="416" y="32" on="1"/>
        <pt x="416" y="0" on="1"/>
      </contour>
    </TTGlyph>
    <TTGlyph name="Ring" xMin="109" yMin="754" xMax="331" yMax="946">
      <contour>
        <pt x="109" y="808" on="0"/>
        <pt x="109" y="892" on="0"/>
        <pt x="170" y="946" on="0"/>
        <pt x="270" y="946" on="0"/>
        <pt x="331" y="892" on="0"/>
        <pt x="331" y="808" on="0"/>
        <pt x="270" y="754" on="0"/>
        <pt x="170" y="754" on="0"/>
      </contour>
      <contour>
        <pt x="153" y="874" on="0"/>
        <pt x="153" y="826" on="0"/>
        <pt x="191" y="798" on="0"/>
        <pt x="249" y="798" on="0"/>
        <pt x="287" y="826" on="0"/>
        <pt x="287" y="874" on="0"/>
        <pt x="249" y="902" on="0"/>
        <pt x="191" y="902" on="0"/>
      </contour>
    </TTGlyph>
    <TTGlyph name="S" xMin="90" yMin="-18" xMax="570" yMax="730">
      <contour>
        <pt x="90" y="306" on="1"/>
        <pt x="122" y="306" on="1"/>
        <pt x="132" y="250" on="0"/>
        <pt x="176" y="146" on="0"/>
        <pt x="234" y="64" on="0"/>
        <pt x="312" y="14" on="0"/>
        <pt x="353" y="14" on="1"/>
        <pt x="388" y="14" on="0"/>
        <pt x="439" y="30" on="0"/>
        <pt x="468" y="54" on="0"/>
        <pt x="485" y="86" on="0"/>
        <pt x="490" y="114" on="0"/>
        <pt x="490" y="128" on="1"/>
        <pt x="490" y="154" on="0"/>
        <pt x="452" y="196" on="0"/>
        <pt x="418" y="218" on="1"/>
        <pt x="204" y="356" on="1"/>
        <pt x="92" y="428" on="0"/>
        <pt x="92" y="538" on="1"/>
        <pt x="92" y="588" on="0"/>
        <pt x="124" y="664" on="0"/>
        <pt x="181" y="708" on="0"/>
        <pt x="249" y="730" on="0"/>
        <pt x="288" y="730" on="1"/>
        <pt x="358" y="730" on="0"/>
        <pt x="430" y="680" on="1"/>
        <pt x="454" y="662" on="0"/>
        <pt x="466" y="662" on="1"/>
        <pt x="484" y="662" on="0"/>
        <pt x="488" y="685" on="1"/>
        <pt x="494" y="712" on="1"/>
        <pt x="526" y="712" on="1"/>
        <pt x="536" y="452" on="1"/>
        <pt x="504" y="452" on="1"/>
        <pt x="476" y="558" on="0"/>
        <pt x="352" y="698" on="0"/>
        <pt x="280" y="698" on="1"/>
        <pt x="176" y="698" on="0"/>
        <pt x="176" y="614" on="1"/>
        <pt x="176" y="557" on="0"/>
        <pt x="265" y="499" on="1"/>
        <pt x="480" y="360" on="1"/>
        <pt x="521" y="333" on="0"/>
        <pt x="570" y="238" on="0"/>
        <pt x="570" y="188" on="1"/>
        <pt x="570" y="150" on="0"/>
        <pt x="542" y="78" on="0"/>
        <pt x="490" y="18" on="0"/>
        <pt x="402" y="-18" on="0"/>
        <pt x="347" y="-18" on="1"/>
        <pt x="264" y="-18" on="0"/>
        <pt x="210" y="26" on="1"/>
        <pt x="188" y="44" on="0"/>
        <pt x="167" y="56" on="0"/>
        <pt x="158" y="56" on="1"/>
        <pt x="136" y="56" on="0"/>
        <pt x="132" y="22" on="1"/>
        <pt x="127" y="-10" on="1"/>
        <pt x="96" y="-10" on="1"/>
      </contour>
    </TTGlyph>
    <TTGlyph name="T" xMin="60" yMin="0" xMax="676" yMax="712">
      <contour>
        <pt x="60" y="414" on="1"/>
        <pt x="68" y="712" on="1"/>
        <pt x="668" y="712" on="1"/>
        <pt x="676" y="414" on="1"/>
        <pt x="644" y="414" on="1"/>
        <pt x="640" y="448" on="0"/>
        <pt x="623" y="508" on="1"/>
        <pt x="610" y="552" on="0"/>
        <pt x="571" y="627" on="0"/>
        <pt x="511" y="680" on="0"/>
        <pt x="479" y="680" on="1"/>
        <pt x="462" y="680" on="0"/>
        <pt x="442" y="662" on="0"/>
        <pt x="442" y="646" on="1"/>
        <pt x="442" y="56" on="1"/>
        <pt x="442" y="42" on="0"/>
        <pt x="452" y="32" on="0"/>
        <pt x="466" y="32" on="1"/>
        <pt x="546" y="32" on="1"/>
        <pt x="546" y="0" on="1"/>
        <pt x="190" y="0" on="1"/>
        <pt x="190" y="32" on="1"/>
        <pt x="270" y="32" on="1"/>
        <pt x="284" y="32" on="0"/>
        <pt x="294" y="42" on="0"/>
        <pt x="294" y="56" on="1"/>
        <pt x="294" y="646" on="1"/>
        <pt x="294" y="662" on="0"/>
        <pt x="274" y="680" on="0"/>
        <pt x="257" y="680" on="1"/>
        <pt x="225" y="680" on="0"/>
        <pt x="165" y="627" on="0"/>
        <pt x="126" y="552" on="0"/>
        <pt x="113" y="508" on="1"/>
        <pt x="106" y="482" on="0"/>
        <pt x="95" y="434" on="0"/>
        <pt x="94" y="424" on="1"/>
        <pt x="92" y="414" on="1"/>
      </contour>
    </TTGlyph>
    <TTGlyph name="Thorn" xMin="62" yMin="0" xMax="658" yMax="712">
      <contour>
        <pt x="62" y="0" on="1"/>
        <pt x="62" y="32" on="1"/>
        <pt x="132" y="32" on="1"/>
        <pt x="146" y="32" on="0"/>
        <pt x="156" y="42" on="0"/>
        <pt x="156" y="56" on="1"/>
        <pt x="156" y="656" on="1"/>
        <pt x="156" y="670" on="0"/>
        <pt x="146" y="680" on="0"/>
        <pt x="132" y="680" on="1"/>
        <pt x="62" y="680" on="1"/>
        <pt x="62" y="712" on="1"/>
        <pt x="416" y="712" on="1"/>
        <pt x="416" y="680" on="1"/>
        <pt x="328" y="680" on="1"/>
        <pt x="314" y="680" on="0"/>
        <pt x="304" y="670" on="0"/>
        <pt x="304" y="656" on="1"/>
        <pt x="304" y="586" on="1"/>
        <pt x="418" y="586" on="1"/>
        <pt x="524" y="586" on="0"/>
        <pt x="658" y="482" on="0"/>
        <pt x="658" y="400" on="1"/>
        <pt x="658" y="317" on="0"/>
        <pt x="524" y="210" on="0"/>
        <pt x="418" y="210" on="1"/>
        <pt x="304" y="210" on="1"/>
        <pt x="304" y="56" on="1"/>
        <pt x="304" y="42" on="0"/>
        <pt x="314" y="32" on="0"/>
        <pt x="328" y="32" on="1"/>
        <pt x="416" y="32" on="1"/>
        <pt x="416" y="0" on="1"/>
      </contour>
      <contour>
        <pt x="304" y="242" on="1"/>
        <pt x="403" y="242" on="1"/>
        <pt x="430" y="242" on="0"/>
        <pt x="468" y="266" on="0"/>
        <pt x="489" y="311" on="0"/>
        <pt x="498" y="365" on="0"/>
        <pt x="498" y="400" on="1"/>
        <pt x="498" y="473" on="0"/>
        <pt x="456" y="554" on="0"/>
        <pt x="403" y="554" on="1"/>
        <pt x="328" y="554" on="1"/>
        <pt x="314" y="554" on="0"/>
        <pt x="304" y="544" on="0"/>
        <pt x="304" y="530" on="1"/>
      </contour>
    </TTGlyph>
    <TTGlyph name="Tilde" xMin="72" yMin="800" xMax="368" yMax="912">
      <contour>
        <pt x="72" y="800" on="1"/>
        <pt x="72" y="840" on="0"/>
        <pt x="122" y="908" on="0"/>
        <pt x="160" y="908" on="1"/>
        <pt x="182" y="908" on="0"/>
        <pt x="216" y="898" on="0"/>
        <pt x="242" y="887" on="1"/>
        <pt x="277" y="872" on="0"/>
        <pt x="306" y="872" on="1"/>
        <pt x="340" y="872" on="0"/>
        <pt x="346" y="912" on="1"/>
        <pt x="368" y="912" on="1"/>
        <pt x="368" y="872" on="0"/>
        <pt x="318" y="804" on="0"/>
        <pt x="280" y="804" on="1"/>
        <pt x="264" y="804" on="0"/>
        <pt x="234" y="810" on="0"/>
        <pt x="216" y="818" on="0"/>
        <pt x="198" y="825" on="1"/>
        <pt x="163" y="840" on="0"/>
        <pt x="134" y="840" on="1"/>
        <pt x="100" y="840" on="0"/>
        <pt x="94" y="800" on="1"/>
      </contour>
    </TTGlyph>
    <TTGlyph name="U" xMin="68" yMin="-18" xMax="762" yMax="712">
      <contour>
        <pt x="68" y="680" on="1"/>
        <pt x="68" y="712" on="1"/>
        <pt x="392" y="712" on="1"/>
        <pt x="392" y="680" on="1"/>
        <pt x="328" y="680" on="1"/>
        <pt x="314" y="680" on="0"/>
        <pt x="304" y="670" on="0"/>
        <pt x="304" y="656" on="1"/>
        <pt x="304" y="198" on="1"/>
        <pt x="304" y="106" on="0"/>
        <pt x="374" y="22" on="0"/>
        <pt x="447" y="22" on="1"/>
        <pt x="521" y="22" on="0"/>
        <pt x="618" y="125" on="0"/>
        <pt x="618" y="198" on="1"/>
        <pt x="618" y="590" on="1"/>
        <pt x="618" y="635" on="0"/>
        <pt x="558" y="680" on="0"/>
        <pt x="514" y="680" on="1"/>
        <pt x="514" y="712" on="1"/>
        <pt x="762" y="712" on="1"/>
        <pt x="762" y="680" on="1"/>
        <pt x="718" y="680" on="0"/>
        <pt x="658" y="635" on="0"/>
        <pt x="658" y="590" on="1"/>
        <pt x="658" y="208" on="1"/>
        <pt x="658" y="111" on="0"/>
        <pt x="529" y="-18" on="0"/>
        <pt x="419" y="-18" on="1"/>
        <pt x="364" y="-18" on="0"/>
        <pt x="274" y="10" on="0"/>
        <pt x="214" y="58" on="0"/>
        <pt x="174" y="124" on="0"/>
        <pt x="156" y="197" on="0"/>
        <pt x="156" y="237" on="1"/>
        <pt x="156" y="656" on="1"/>
        <pt x="156" y="670" on="0"/>
        <pt x="146" y="680" on="0"/>
        <pt x="132" y="680" on="1"/>
      </contour>
    </TTGlyph>
    <TTGlyph name="Uacute" xMin="68" yMin="-18" xMax="762" yMax="948">
      <component glyphName="U" x="0" y="0" flags="0x1004"/>
      <component glyphName="Acute" x="210" y="0" flags="0x1004"/>
    </TTGlyph>
    <TTGlyph name="Ucircumflex" xMin="68" yMin="-18" xMax="762" yMax="930">
      <component glyphName="U" x="0" y="0" flags="0x1004"/>
      <component glyphName="Circumflex" x="210" y="0" flags="0x1004"/>
    </TTGlyph>
    <TTGlyph name="Udieresis" xMin="68" yMin="-18" xMax="762" yMax="918">
      <component glyphName="U" x="0" y="0" flags="0x1004"/>
      <component glyphName="Dieresis" x="210" y="0" flags="0x1004"/>
    </TTGlyph>
    <TTGlyph name="Ugrave" xMin="68" yMin="-18" xMax="762" yMax="948">
      <component glyphName="U" x="0" y="0" flags="0x1004"/>
      <component glyphName="Grave" x="210" y="0" flags="0x1004"/>
    </TTGlyph>
    <TTGlyph name="V" xMin="46" yMin="-18" xMax="750" yMax="712">
      <contour>
        <pt x="46" y="680" on="1"/>
        <pt x="46" y="712" on="1"/>
        <pt x="393" y="712" on="1"/>
        <pt x="393" y="680" on="1"/>
        <pt x="343" y="680" on="1"/>
        <pt x="328" y="680" on="0"/>
        <pt x="309" y="666" on="0"/>
        <pt x="309" y="644" on="0"/>
        <pt x="313" y="633" on="1"/>
        <pt x="461" y="212" on="1"/>
        <pt x="576" y="569" on="1"/>
        <pt x="586" y="599" on="0"/>
        <pt x="586" y="620" on="1"/>
        <pt x="586" y="642" on="0"/>
        <pt x="558" y="680" on="0"/>
        <pt x="530" y="680" on="1"/>
        <pt x="480" y="680" on="1"/>
        <pt x="480" y="712" on="1"/>
        <pt x="750" y="712" on="1"/>
        <pt x="750" y="680" on="1"/>
        <pt x="719" y="680" on="1"/>
        <pt x="652" y="680" on="0"/>
        <pt x="623" y="589" on="1"/>
        <pt x="426" y="-18" on="1"/>
        <pt x="384" y="-18" on="1"/>
        <pt x="158" y="622" on="1"/>
        <pt x="147" y="655" on="0"/>
        <pt x="112" y="680" on="0"/>
        <pt x="79" y="680" on="1"/>
      </contour>
    </TTGlyph>
    <TTGlyph name="W" xMin="44" yMin="-18" xMax="1058" yMax="712">
      <contour>
        <pt x="44" y="680" on="1"/>
        <pt x="44" y="712" on="1"/>
        <pt x="369" y="712" on="1"/>
        <pt x="369" y="680" on="1"/>
        <pt x="340" y="680" on="1"/>
        <pt x="326" y="680" on="0"/>
        <pt x="309" y="660" on="0"/>
        <pt x="309" y="645" on="1"/>
        <pt x="309" y="634" on="0"/>
        <pt x="314" y="620" on="1"/>
        <pt x="440" y="235" on="1"/>
        <pt x="534" y="555" on="1"/>
        <pt x="512" y="622" on="1"/>
        <pt x="501" y="655" on="0"/>
        <pt x="466" y="680" on="0"/>
        <pt x="433" y="680" on="1"/>
        <pt x="416" y="680" on="1"/>
        <pt x="416" y="712" on="1"/>
        <pt x="744" y="712" on="1"/>
        <pt x="744" y="680" on="1"/>
        <pt x="695" y="680" on="1"/>
        <pt x="682" y="680" on="0"/>
        <pt x="663" y="662" on="0"/>
        <pt x="663" y="651" on="1"/>
        <pt x="663" y="641" on="0"/>
        <pt x="666" y="629" on="1"/>
        <pt x="793" y="239" on="1"/>
        <pt x="884" y="568" on="1"/>
        <pt x="891" y="589" on="0"/>
        <pt x="891" y="622" on="1"/>
        <pt x="891" y="644" on="0"/>
        <pt x="866" y="680" on="0"/>
        <pt x="838" y="680" on="1"/>
        <pt x="788" y="680" on="1"/>
        <pt x="788" y="712" on="1"/>
        <pt x="1058" y="712" on="1"/>
        <pt x="1058" y="680" on="1"/>
        <pt x="1027" y="680" on="1"/>
        <pt x="960" y="680" on="0"/>
        <pt x="931" y="589" on="1"/>
        <pt x="762" y="-18" on="1"/>
        <pt x="720" y="-18" on="1"/>
        <pt x="556" y="488" on="1"/>
        <pt x="408" y="-18" on="1"/>
        <pt x="366" y="-18" on="1"/>
        <pt x="158" y="615" on="1"/>
        <pt x="147" y="648" on="0"/>
        <pt x="104" y="680" on="0"/>
        <pt x="63" y="680" on="1"/>
      </contour>
    </TTGlyph>
    <TTGlyph name="X" xMin="52" yMin="0" xMax="730" yMax="712">
      <contour>
        <pt x="52" y="0" on="1"/>
        <pt x="52" y="32" on="1"/>
        <pt x="83" y="32" on="1"/>
        <pt x="140" y="32" on="0"/>
        <pt x="186" y="99" on="1"/>
        <pt x="333" y="322" on="1"/>
        <pt x="167" y="628" on="1"/>
        <pt x="138" y="680" on="0"/>
        <pt x="77" y="680" on="1"/>
        <pt x="62" y="680" on="1"/>
        <pt x="62" y="712" on="1"/>
        <pt x="376" y="712" on="1"/>
        <pt x="376" y="680" on="1"/>
        <pt x="355" y="680" on="1"/>
        <pt x="346" y="680" on="0"/>
        <pt x="330" y="665" on="0"/>
        <pt x="330" y="652" on="1"/>
        <pt x="330" y="640" on="0"/>
        <pt x="338" y="624" on="1"/>
        <pt x="426" y="462" on="1"/>
        <pt x="504" y="581" on="1"/>
        <pt x="520" y="605" on="0"/>
        <pt x="520" y="636" on="1"/>
        <pt x="520" y="654" on="0"/>
        <pt x="497" y="680" on="0"/>
        <pt x="476" y="680" on="1"/>
        <pt x="446" y="680" on="1"/>
        <pt x="446" y="712" on="1"/>
        <pt x="700" y="712" on="1"/>
        <pt x="700" y="680" on="1"/>
        <pt x="670" y="680" on="1"/>
        <pt x="640" y="680" on="0"/>
        <pt x="600" y="658" on="0"/>
        <pt x="582" y="631" on="1"/>
        <pt x="446" y="425" on="1"/>
        <pt x="629" y="85" on="1"/>
        <pt x="644" y="58" on="0"/>
        <pt x="688" y="32" on="0"/>
        <pt x="710" y="32" on="1"/>
        <pt x="730" y="32" on="1"/>
        <pt x="730" y="0" on="1"/>
        <pt x="398" y="0" on="1"/>
        <pt x="398" y="32" on="1"/>
        <pt x="431" y="32" on="1"/>
        <pt x="446" y="32" on="0"/>
        <pt x="462" y="52" on="0"/>
        <pt x="462" y="68" on="1"/>
        <pt x="462" y="83" on="0"/>
        <pt x="450" y="104" on="1"/>
        <pt x="353" y="284" on="1"/>
        <pt x="257" y="139" on="1"/>
        <pt x="232" y="100" on="0"/>
        <pt x="232" y="76" on="1"/>
        <pt x="232" y="58" on="0"/>
        <pt x="250" y="32" on="0"/>
        <pt x="268" y="32" on="1"/>
        <pt x="312" y="32" on="1"/>
        <pt x="312" y="0" on="1"/>
      </contour>
    </TTGlyph>
    <TTGlyph name="Y" xMin="46" yMin="0" xMax="714" yMax="712">
      <contour>
        <pt x="46" y="680" on="1"/>
        <pt x="46" y="712" on="1"/>
        <pt x="360" y="712" on="1"/>
        <pt x="360" y="680" on="1"/>
        <pt x="332" y="680" on="1"/>
        <pt x="318" y="680" on="0"/>
        <pt x="304" y="660" on="0"/>
        <pt x="304" y="648" on="1"/>
        <pt x="304" y="632" on="0"/>
        <pt x="310" y="620" on="1"/>
        <pt x="442" y="333" on="1"/>
        <pt x="534" y="562" on="1"/>
        <pt x="548" y="594" on="0"/>
        <pt x="548" y="644" on="0"/>
        <pt x="522" y="680" on="0"/>
        <pt x="494" y="680" on="1"/>
        <pt x="466" y="680" on="1"/>
        <pt x="466" y="712" on="1"/>
        <pt x="714" y="712" on="1"/>
        <pt x="714" y="680" on="1"/>
        <pt x="684" y="680" on="1"/>
        <pt x="650" y="680" on="0"/>
        <pt x="604" y="637" on="0"/>
        <pt x="593" y="607" on="1"/>
        <pt x="458" y="278" on="1"/>
        <pt x="458" y="56" on="1"/>
        <pt x="458" y="42" on="0"/>
        <pt x="468" y="32" on="0"/>
        <pt x="482" y="32" on="1"/>
        <pt x="546" y="32" on="1"/>
        <pt x="546" y="0" on="1"/>
        <pt x="222" y="0" on="1"/>
        <pt x="222" y="32" on="1"/>
        <pt x="286" y="32" on="1"/>
        <pt x="300" y="32" on="0"/>
        <pt x="310" y="42" on="0"/>
        <pt x="310" y="56" on="1"/>
        <pt x="310" y="269" on="1"/>
        <pt x="140" y="636" on="1"/>
        <pt x="128" y="662" on="0"/>
        <pt x="102" y="680" on="0"/>
        <pt x="81" y="680" on="1"/>
      </contour>
    </TTGlyph>
    <TTGlyph name="Yacute" xMin="46" yMin="0" xMax="714" yMax="948">
      <component glyphName="Y" x="0" y="0" flags="0x1004"/>
      <component glyphName="Acute" x="184" y="0" flags="0x1004"/>
    </TTGlyph>
    <TTGlyph name="Z" xMin="68" yMin="0" xMax="606" yMax="712">
      <contour>
        <pt x="68" y="0" on="1"/>
        <pt x="68" y="32" on="1"/>
        <pt x="420" y="680" on="1"/>
        <pt x="294" y="680" on="1"/>
        <pt x="256" y="680" on="0"/>
        <pt x="167" y="602" on="0"/>
        <pt x="143" y="542" on="1"/>
        <pt x="136" y="523" on="0"/>
        <pt x="124" y="480" on="0"/>
        <pt x="120" y="458" on="0"/>
        <pt x="120" y="456" on="1"/>
        <pt x="88" y="456" on="1"/>
        <pt x="100" y="712" on="1"/>
        <pt x="588" y="712" on="1"/>
        <pt x="588" y="678" on="1"/>
        <pt x="237" y="32" on="1"/>
        <pt x="374" y="32" on="1"/>
        <pt x="402" y="32" on="0"/>
        <pt x="455" y="58" on="0"/>
        <pt x="496" y="101" on="0"/>
        <pt x="526" y="142" on="0"/>
        <pt x="536" y="162" on="1"/>
        <pt x="548" y="187" on="0"/>
        <pt x="568" y="247" on="0"/>
        <pt x="571" y="264" on="1"/>
        <pt x="574" y="282" on="1"/>
        <pt x="606" y="282" on="1"/>
        <pt x="590" y="0" on="1"/>
      </contour>
    </TTGlyph>
    <TTGlyph name="a" xMin="46" yMin="-12" xMax="488" yMax="486">
      <contour>
        <pt x="168" y="115" on="1"/>
        <pt x="168" y="66" on="0"/>
        <pt x="204" y="28" on="0"/>
        <pt x="227" y="28" on="1"/>
        <pt x="266" y="28" on="0"/>
        <pt x="288" y="72" on="1"/>
        <pt x="288" y="270" on="1"/>
        <pt x="232" y="250" on="1"/>
        <pt x="168" y="227" on="0"/>
      </contour>
      <contour>
        <pt x="46" y="106" on="1"/>
        <pt x="46" y="134" on="0"/>
        <pt x="68" y="182" on="0"/>
        <pt x="100" y="216" on="0"/>
        <pt x="148" y="245" on="0"/>
        <pt x="188" y="262" on="0"/>
        <pt x="214" y="271" on="1"/>
        <pt x="288" y="297" on="1"/>
        <pt x="288" y="365" on="1"/>
        <pt x="288" y="416" on="0"/>
        <pt x="246" y="462" on="0"/>
        <pt x="213" y="462" on="1"/>
        <pt x="186" y="462" on="0"/>
        <pt x="144" y="437" on="0"/>
        <pt x="144" y="415" on="1"/>
        <pt x="144" y="397" on="0"/>
        <pt x="160" y="386" on="1"/>
        <pt x="174" y="377" on="0"/>
        <pt x="188" y="358" on="0"/>
        <pt x="188" y="341" on="1"/>
        <pt x="188" y="316" on="0"/>
        <pt x="154" y="290" on="0"/>
        <pt x="132" y="290" on="1"/>
        <pt x="106" y="290" on="0"/>
        <pt x="69" y="325" on="0"/>
        <pt x="69" y="358" on="1"/>
        <pt x="69" y="396" on="0"/>
        <pt x="118" y="457" on="0"/>
        <pt x="188" y="486" on="0"/>
        <pt x="224" y="486" on="1"/>
        <pt x="250" y="486" on="0"/>
        <pt x="298" y="476" on="0"/>
        <pt x="346" y="452" on="0"/>
        <pt x="382" y="416" on="0"/>
        <pt x="404" y="360" on="0"/>
        <pt x="404" y="325" on="1"/>
        <pt x="404" y="72" on="1"/>
        <pt x="404" y="36" on="0"/>
        <pt x="424" y="36" on="1"/>
        <pt x="442" y="36" on="0"/>
        <pt x="460" y="96" on="0"/>
        <pt x="460" y="135" on="1"/>
        <pt x="488" y="135" on="1"/>
        <pt x="488" y="62" on="0"/>
        <pt x="466" y="28" on="1"/>
        <pt x="455" y="10" on="0"/>
        <pt x="414" y="-12" on="0"/>
        <pt x="389" y="-12" on="1"/>
        <pt x="348" y="-12" on="0"/>
        <pt x="306" y="14" on="0"/>
        <pt x="292" y="42" on="1"/>
        <pt x="290" y="42" on="1"/>
        <pt x="250" y="-12" on="0"/>
        <pt x="178" y="-12" on="1"/>
        <pt x="158" y="-12" on="0"/>
        <pt x="122" y="-6" on="0"/>
        <pt x="87" y="11" on="0"/>
        <pt x="62" y="37" on="0"/>
        <pt x="46" y="79" on="0"/>
      </contour>
    </TTGlyph>
    <TTGlyph name="aacute" xMin="46" yMin="-12" xMax="488" yMax="712">
      <component glyphName="a" x="0" y="0" flags="0x1004"/>
      <component glyphName="acute" x="12" y="0" flags="0x1004"/>
    </TTGlyph>
    <TTGlyph name="acircumflex" xMin="46" yMin="-12" xMax="488" yMax="708">
      <component glyphName="a" x="0" y="0" flags="0x1004"/>
      <component glyphName="circumflex" x="12" y="0" flags="0x1004"/>
    </TTGlyph>
    <TTGlyph name="acute" xMin="176" yMin="524" xMax="356" yMax="712">
      <contour>
        <pt x="176" y="542" on="1"/>
        <pt x="265" y="680" on="1"/>
        <pt x="286" y="712" on="0"/>
        <pt x="314" y="712" on="1"/>
        <pt x="332" y="712" on="0"/>
        <pt x="356" y="690" on="0"/>
        <pt x="356" y="672" on="1"/>
        <pt x="356" y="646" on="0"/>
        <pt x="328" y="624" on="1"/>
        <pt x="196" y="524" on="1"/>
      </contour>
    </TTGlyph>
    <TTGlyph name="adieresis" xMin="46" yMin="-12" xMax="488" yMax="682">
      <component glyphName="a" x="0" y="0" flags="0x1004"/>
      <component glyphName="dieresis" x="12" y="0" flags="0x1004"/>
    </TTGlyph>
    <TTGlyph name="ae" xMin="46" yMin="-12" xMax="650" yMax="486">
      <contour>
        <pt x="46" y="107" on="1"/>
        <pt x="46" y="136" on="0"/>
        <pt x="70" y="185" on="0"/>
        <pt x="102" y="218" on="0"/>
        <pt x="153" y="247" on="0"/>
        <pt x="189" y="262" on="0"/>
        <pt x="214" y="271" on="1"/>
        <pt x="288" y="297" on="1"/>
        <pt x="288" y="365" on="1"/>
        <pt x="288" y="416" on="0"/>
        <pt x="244" y="462" on="0"/>
        <pt x="211" y="462" on="1"/>
        <pt x="184" y="462" on="0"/>
        <pt x="144" y="437" on="0"/>
        <pt x="144" y="415" on="1"/>
        <pt x="144" y="397" on="0"/>
        <pt x="160" y="386" on="1"/>
        <pt x="174" y="377" on="0"/>
        <pt x="188" y="358" on="0"/>
        <pt x="188" y="341" on="1"/>
        <pt x="188" y="316" on="0"/>
        <pt x="154" y="290" on="0"/>
        <pt x="132" y="290" on="1"/>
        <pt x="106" y="290" on="0"/>
        <pt x="69" y="325" on="0"/>
        <pt x="69" y="358" on="1"/>
        <pt x="69" y="396" on="0"/>
        <pt x="114" y="456" on="0"/>
        <pt x="182" y="486" on="0"/>
        <pt x="218" y="486" on="1"/>
        <pt x="298" y="486" on="0"/>
        <pt x="350" y="442" on="1"/>
        <pt x="400" y="486" on="0"/>
        <pt x="478" y="486" on="1"/>
        <pt x="539" y="486" on="0"/>
        <pt x="626" y="400" on="0"/>
        <pt x="641" y="328" on="1"/>
        <pt x="648" y="296" on="0"/>
        <pt x="648" y="228" on="1"/>
        <pt x="404" y="228" on="1"/>
        <pt x="404" y="196" on="0"/>
        <pt x="405" y="162" on="0"/>
        <pt x="410" y="118" on="0"/>
        <pt x="415" y="99" on="1"/>
        <pt x="424" y="62" on="0"/>
        <pt x="476" y="18" on="0"/>
        <pt x="509" y="18" on="1"/>
        <pt x="534" y="18" on="0"/>
        <pt x="577" y="44" on="0"/>
        <pt x="604" y="86" on="0"/>
        <pt x="622" y="136" on="0"/>
        <pt x="624" y="162" on="1"/>
        <pt x="650" y="162" on="1"/>
        <pt x="648" y="138" on="0"/>
        <pt x="636" y="92" on="0"/>
        <pt x="610" y="46" on="0"/>
        <pt x="576" y="10" on="0"/>
        <pt x="522" y="-12" on="0"/>
        <pt x="489" y="-12" on="1"/>
        <pt x="440" y="-12" on="0"/>
        <pt x="353" y="28" on="0"/>
        <pt x="328" y="66" on="1"/>
        <pt x="301" y="29" on="0"/>
        <pt x="228" y="-12" on="0"/>
        <pt x="174" y="-12" on="1"/>
        <pt x="156" y="-12" on="0"/>
        <pt x="121" y="-6" on="0"/>
        <pt x="87" y="12" on="0"/>
        <pt x="62" y="38" on="0"/>
        <pt x="46" y="80" on="0"/>
      </contour>
      <contour>
        <pt x="168" y="115" on="1"/>
        <pt x="168" y="89" on="0"/>
        <pt x="180" y="52" on="0"/>
        <pt x="199" y="35" on="0"/>
        <pt x="216" y="28" on="0"/>
        <pt x="224" y="28" on="1"/>
        <pt x="263" y="28" on="0"/>
        <pt x="288" y="66" on="1"/>
        <pt x="288" y="269" on="1"/>
        <pt x="232" y="250" on="1"/>
        <pt x="168" y="228" on="0"/>
      </contour>
      <contour>
        <pt x="404" y="256" on="1"/>
        <pt x="532" y="256" on="1"/>
        <pt x="532" y="362" on="0"/>
        <pt x="505" y="462" on="0"/>
        <pt x="431" y="462" on="0"/>
        <pt x="404" y="362" on="0"/>
      </contour>
    </TTGlyph>
    <TTGlyph name="agrave" xMin="46" yMin="-12" xMax="488" yMax="712">
      <component glyphName="a" x="0" y="0" flags="0x1004"/>
      <component glyphName="grave" x="12" y="0" flags="0x1004"/>
    </TTGlyph>
    <TTGlyph name="ampersand" xMin="44" yMin="-18" xMax="742" yMax="731">
      <contour>
        <pt x="44" y="141" on="1"/>
        <pt x="44" y="205" on="0"/>
        <pt x="138" y="318" on="0"/>
        <pt x="230" y="382" on="1"/>
        <pt x="253" y="398" on="1"/>
        <pt x="242" y="415" on="1"/>
        <pt x="215" y="456" on="0"/>
        <pt x="192" y="518" on="0"/>
        <pt x="192" y="566" on="1"/>
        <pt x="192" y="642" on="0"/>
        <pt x="291" y="731" on="0"/>
        <pt x="361" y="731" on="1"/>
        <pt x="392" y="731" on="0"/>
        <pt x="441" y="707" on="0"/>
        <pt x="468" y="668" on="0"/>
        <pt x="480" y="628" on="0"/>
        <pt x="480" y="607" on="1"/>
        <pt x="480" y="579" on="0"/>
        <pt x="463" y="530" on="0"/>
        <pt x="428" y="487" on="0"/>
        <pt x="391" y="454" on="0"/>
        <pt x="363" y="433" on="1"/>
        <pt x="539" y="169" on="1"/>
        <pt x="569" y="205" on="0"/>
        <pt x="607" y="290" on="0"/>
        <pt x="607" y="318" on="1"/>
        <pt x="607" y="336" on="0"/>
        <pt x="585" y="358" on="0"/>
        <pt x="569" y="358" on="1"/>
        <pt x="531" y="358" on="1"/>
        <pt x="531" y="390" on="1"/>
        <pt x="742" y="390" on="1"/>
        <pt x="742" y="358" on="1"/>
        <pt x="734" y="358" on="1"/>
        <pt x="680" y="358" on="0"/>
        <pt x="646" y="286" on="1"/>
        <pt x="601" y="192" on="0"/>
        <pt x="558" y="142" on="1"/>
        <pt x="588" y="92" on="0"/>
        <pt x="631" y="42" on="0"/>
        <pt x="655" y="42" on="1"/>
        <pt x="674" y="42" on="0"/>
        <pt x="706" y="76" on="0"/>
        <pt x="720" y="105" on="1"/>
        <pt x="740" y="95" on="1"/>
        <pt x="734" y="78" on="0"/>
        <pt x="712" y="42" on="0"/>
        <pt x="679" y="5" on="0"/>
        <pt x="630" y="-18" on="0"/>
        <pt x="603" y="-18" on="1"/>
        <pt x="570" y="-18" on="0"/>
        <pt x="502" y="26" on="0"/>
        <pt x="477" y="61" on="1"/>
        <pt x="440" y="31" on="0"/>
        <pt x="310" y="-18" on="0"/>
        <pt x="248" y="-18" on="1"/>
        <pt x="158" y="-18" on="0"/>
        <pt x="44" y="66" on="0"/>
      </contour>
      <contour>
        <pt x="184" y="193" on="1"/>
        <pt x="184" y="146" on="0"/>
        <pt x="234" y="76" on="0"/>
        <pt x="304" y="42" on="0"/>
        <pt x="340" y="42" on="1"/>
        <pt x="406" y="42" on="0"/>
        <pt x="459" y="88" on="1"/>
        <pt x="273" y="369" on="1"/>
        <pt x="248" y="346" on="0"/>
        <pt x="218" y="313" on="0"/>
        <pt x="194" y="272" on="0"/>
        <pt x="184" y="224" on="0"/>
      </contour>
      <contour>
        <pt x="284" y="622" on="1"/>
        <pt x="284" y="580" on="0"/>
        <pt x="306" y="524" on="0"/>
        <pt x="344" y="463" on="1"/>
        <pt x="366" y="479" on="0"/>
        <pt x="394" y="506" on="0"/>
        <pt x="422" y="542" on="0"/>
        <pt x="436" y="588" on="0"/>
        <pt x="436" y="615" on="1"/>
        <pt x="436" y="651" on="0"/>
        <pt x="395" y="699" on="0"/>
        <pt x="362" y="699" on="1"/>
        <pt x="331" y="699" on="0"/>
        <pt x="284" y="657" on="0"/>
      </contour>
    </TTGlyph>
    <TTGlyph name="aring" xMin="46" yMin="-12" xMax="488" yMax="730">
      <component glyphName="a" x="0" y="0" flags="0x1004"/>
      <component glyphName="ring" x="12" y="0" flags="0x1004"/>
    </TTGlyph>
    <TTGlyph name="asciicircum" xMin="54" yMin="372" xMax="526" yMax="730">
      <contour>
        <pt x="54" y="372" on="1"/>
        <pt x="280" y="730" on="1"/>
        <pt x="300" y="730" on="1"/>
        <pt x="526" y="372" on="1"/>
        <pt x="448" y="372" on="1"/>
        <pt x="290" y="622" on="1"/>
        <pt x="132" y="372" on="1"/>
      </contour>
    </TTGlyph>
    <TTGlyph name="asciitilde" xMin="48" yMin="159" xMax="614" yMax="367">
      <contour>
        <pt x="48" y="249" on="1"/>
        <pt x="48" y="294" on="0"/>
        <pt x="110" y="362" on="0"/>
        <pt x="164" y="362" on="1"/>
        <pt x="194" y="362" on="0"/>
        <pt x="270" y="341" on="0"/>
        <pt x="324" y="320" on="0"/>
        <pt x="370" y="299" on="1"/>
        <pt x="429" y="272" on="0"/>
        <pt x="509" y="244" on="0"/>
        <pt x="538" y="244" on="1"/>
        <pt x="554" y="244" on="0"/>
        <pt x="578" y="266" on="0"/>
        <pt x="578" y="286" on="1"/>
        <pt x="578" y="324" on="0"/>
        <pt x="536" y="346" on="1"/>
        <pt x="550" y="367" on="1"/>
        <pt x="581" y="353" on="0"/>
        <pt x="614" y="306" on="0"/>
        <pt x="614" y="277" on="1"/>
        <pt x="614" y="232" on="0"/>
        <pt x="552" y="164" on="0"/>
        <pt x="498" y="164" on="1"/>
        <pt x="468" y="164" on="0"/>
        <pt x="392" y="185" on="0"/>
        <pt x="338" y="206" on="0"/>
        <pt x="292" y="227" on="1"/>
        <pt x="233" y="254" on="0"/>
        <pt x="153" y="282" on="0"/>
        <pt x="124" y="282" on="1"/>
        <pt x="108" y="282" on="0"/>
        <pt x="84" y="260" on="0"/>
        <pt x="84" y="240" on="1"/>
        <pt x="84" y="202" on="0"/>
        <pt x="126" y="180" on="1"/>
        <pt x="112" y="159" on="1"/>
        <pt x="81" y="173" on="0"/>
        <pt x="48" y="220" on="0"/>
      </contour>
    </TTGlyph>
    <TTGlyph name="asterisk" xMin="70" yMin="290" xMax="440" yMax="700">
      <contour>
        <pt x="70" y="415" on="1"/>
        <pt x="70" y="438" on="0"/>
        <pt x="106" y="467" on="0"/>
        <pt x="139" y="467" on="1"/>
        <pt x="186" y="467" on="0"/>
        <pt x="213" y="484" on="1"/>
        <pt x="223" y="489" on="0"/>
        <pt x="223" y="495" on="1"/>
        <pt x="223" y="498" on="0"/>
        <pt x="218" y="503" on="0"/>
        <pt x="216" y="504" on="1"/>
        <pt x="213" y="506" on="1"/>
        <pt x="186" y="523" on="0"/>
        <pt x="139" y="523" on="1"/>
        <pt x="106" y="523" on="0"/>
        <pt x="70" y="552" on="0"/>
        <pt x="70" y="575" on="1"/>
        <pt x="70" y="594" on="0"/>
        <pt x="97" y="621" on="0"/>
        <pt x="116" y="621" on="1"/>
        <pt x="146" y="621" on="0"/>
        <pt x="174" y="580" on="1"/>
        <pt x="196" y="547" on="0"/>
        <pt x="221" y="528" on="1"/>
        <pt x="230" y="522" on="0"/>
        <pt x="240" y="522" on="0"/>
        <pt x="243" y="528" on="0"/>
        <pt x="243" y="537" on="1"/>
        <pt x="243" y="571" on="0"/>
        <pt x="224" y="606" on="1"/>
        <pt x="209" y="630" on="0"/>
        <pt x="209" y="655" on="1"/>
        <pt x="209" y="674" on="0"/>
        <pt x="236" y="700" on="0"/>
        <pt x="274" y="700" on="0"/>
        <pt x="301" y="674" on="0"/>
        <pt x="301" y="655" on="1"/>
        <pt x="301" y="630" on="0"/>
        <pt x="286" y="606" on="1"/>
        <pt x="267" y="571" on="0"/>
        <pt x="267" y="537" on="1"/>
        <pt x="267" y="528" on="0"/>
        <pt x="270" y="522" on="0"/>
        <pt x="280" y="522" on="0"/>
        <pt x="289" y="528" on="1"/>
        <pt x="314" y="547" on="0"/>
        <pt x="336" y="580" on="1"/>
        <pt x="364" y="621" on="0"/>
        <pt x="394" y="621" on="1"/>
        <pt x="413" y="621" on="0"/>
        <pt x="440" y="594" on="0"/>
        <pt x="440" y="575" on="1"/>
        <pt x="440" y="552" on="0"/>
        <pt x="404" y="523" on="0"/>
        <pt x="371" y="523" on="1"/>
        <pt x="324" y="523" on="0"/>
        <pt x="297" y="506" on="1"/>
        <pt x="287" y="501" on="0"/>
        <pt x="287" y="495" on="1"/>
        <pt x="287" y="492" on="0"/>
        <pt x="292" y="487" on="0"/>
        <pt x="294" y="486" on="1"/>
        <pt x="297" y="484" on="1"/>
        <pt x="324" y="467" on="0"/>
        <pt x="371" y="467" on="1"/>
        <pt x="404" y="467" on="0"/>
        <pt x="440" y="438" on="0"/>
        <pt x="440" y="415" on="1"/>
        <pt x="440" y="396" on="0"/>
        <pt x="413" y="369" on="0"/>
        <pt x="394" y="369" on="1"/>
        <pt x="364" y="369" on="0"/>
        <pt x="336" y="410" on="1"/>
        <pt x="314" y="443" on="0"/>
        <pt x="289" y="462" on="1"/>
        <pt x="280" y="468" on="0"/>
        <pt x="270" y="468" on="0"/>
        <pt x="267" y="462" on="0"/>
        <pt x="267" y="453" on="1"/>
        <pt x="267" y="419" on="0"/>
        <pt x="286" y="384" on="1"/>
        <pt x="301" y="360" on="0"/>
        <pt x="301" y="335" on="1"/>
        <pt x="301" y="316" on="0"/>
        <pt x="274" y="290" on="0"/>
        <pt x="236" y="290" on="0"/>
        <pt x="209" y="316" on="0"/>
        <pt x="209" y="335" on="1"/>
        <pt x="209" y="360" on="0"/>
        <pt x="224" y="384" on="1"/>
        <pt x="243" y="419" on="0"/>
        <pt x="243" y="453" on="1"/>
        <pt x="243" y="462" on="0"/>
        <pt x="240" y="468" on="0"/>
        <pt x="230" y="468" on="0"/>
        <pt x="221" y="462" on="1"/>
        <pt x="196" y="443" on="0"/>
        <pt x="174" y="410" on="1"/>
        <pt x="146" y="369" on="0"/>
        <pt x="116" y="369" on="1"/>
        <pt x="97" y="369" on="0"/>
        <pt x="70" y="396" on="0"/>
      </contour>
    </TTGlyph>
    <TTGlyph name="at" xMin="44" yMin="-18" xMax="776" yMax="730">
      <contour>
        <pt x="44" y="347" on="1"/>
        <pt x="44" y="451" on="0"/>
        <pt x="144" y="627" on="0"/>
        <pt x="318" y="730" on="0"/>
        <pt x="422" y="730" on="1"/>
        <pt x="502" y="730" on="0"/>
        <pt x="637" y="674" on="0"/>
        <pt x="726" y="580" on="0"/>
        <pt x="776" y="455" on="0"/>
        <pt x="776" y="386" on="1"/>
        <pt x="776" y="356" on="0"/>
        <pt x="758" y="288" on="0"/>
        <pt x="721" y="219" on="0"/>
        <pt x="669" y="164" on="0"/>
        <pt x="592" y="130" on="0"/>
        <pt x="548" y="130" on="1"/>
        <pt x="510" y="130" on="0"/>
        <pt x="460" y="170" on="0"/>
        <pt x="455" y="206" on="1"/>
        <pt x="451" y="207" on="1"/>
        <pt x="439" y="191" on="0"/>
        <pt x="409" y="161" on="0"/>
        <pt x="350" y="130" on="0"/>
        <pt x="321" y="130" on="1"/>
        <pt x="272" y="130" on="0"/>
        <pt x="200" y="194" on="0"/>
        <pt x="200" y="254" on="1"/>
        <pt x="200" y="318" on="0"/>
        <pt x="232" y="442" on="0"/>
        <pt x="263" y="481" on="1"/>
        <pt x="341" y="578" on="0"/>
        <pt x="432" y="578" on="1"/>
        <pt x="458" y="578" on="0"/>
        <pt x="493" y="546" on="0"/>
        <pt x="499" y="523" on="1"/>
        <pt x="503" y="523" on="1"/>
        <pt x="514" y="566" on="1"/>
        <pt x="621" y="566" on="1"/>
        <pt x="548" y="257" on="1"/>
        <pt x="543" y="230" on="0"/>
        <pt x="543" y="214" on="1"/>
        <pt x="543" y="188" on="0"/>
        <pt x="566" y="162" on="0"/>
        <pt x="579" y="162" on="1"/>
        <pt x="610" y="162" on="0"/>
        <pt x="660" y="208" on="0"/>
        <pt x="689" y="280" on="0"/>
        <pt x="704" y="360" on="0"/>
        <pt x="704" y="397" on="1"/>
        <pt x="704" y="536" on="0"/>
        <pt x="543" y="698" on="0"/>
        <pt x="412" y="698" on="1"/>
        <pt x="352" y="698" on="0"/>
        <pt x="242" y="646" on="0"/>
        <pt x="163" y="554" on="0"/>
        <pt x="116" y="420" on="0"/>
        <pt x="116" y="344" on="1"/>
        <pt x="116" y="193" on="0"/>
        <pt x="282" y="14" on="0"/>
        <pt x="426" y="14" on="1"/>
        <pt x="474" y="14" on="0"/>
        <pt x="562" y="48" on="0"/>
        <pt x="594" y="70" on="1"/>
        <pt x="609" y="43" on="1"/>
        <pt x="578" y="20" on="0"/>
        <pt x="473" y="-18" on="0"/>
        <pt x="404" y="-18" on="1"/>
        <pt x="330" y="-18" on="0"/>
        <pt x="198" y="34" on="0"/>
        <pt x="100" y="128" on="0"/>
        <pt x="44" y="266" on="0"/>
      </contour>
      <contour>
        <pt x="308" y="223" on="1"/>
        <pt x="308" y="192" on="0"/>
        <pt x="331" y="154" on="0"/>
        <pt x="345" y="154" on="1"/>
        <pt x="382" y="154" on="0"/>
        <pt x="444" y="262" on="0"/>
        <pt x="459" y="335" on="1"/>
        <pt x="483" y="436" on="0"/>
        <pt x="483" y="475" on="1"/>
        <pt x="483" y="511" on="0"/>
        <pt x="461" y="554" on="0"/>
        <pt x="442" y="554" on="1"/>
        <pt x="412" y="554" on="0"/>
        <pt x="364" y="500" on="0"/>
        <pt x="341" y="434" on="1"/>
        <pt x="327" y="396" on="0"/>
        <pt x="308" y="277" on="0"/>
      </contour>
    </TTGlyph>
    <TTGlyph name="atilde" xMin="46" yMin="-12" xMax="488" yMax="676">
      <component glyphName="a" x="0" y="0" flags="0x1004"/>
      <component glyphName="tilde" x="12" y="0" flags="0x1004"/>
    </TTGlyph>
    <TTGlyph name="b" xMin="12" yMin="-12" xMax="480" yMax="712">
      <contour>
        <pt x="12" y="688" on="1"/>
        <pt x="12" y="712" on="1"/>
        <pt x="200" y="712" on="1"/>
        <pt x="200" y="417" on="1"/>
        <pt x="206" y="415" on="1"/>
        <pt x="222" y="448" on="0"/>
        <pt x="272" y="486" on="0"/>
        <pt x="304" y="486" on="1"/>
        <pt x="356" y="486" on="0"/>
        <pt x="438" y="414" on="0"/>
        <pt x="480" y="300" on="0"/>
        <pt x="480" y="174" on="0"/>
        <pt x="436" y="60" on="0"/>
        <pt x="352" y="-12" on="0"/>
        <pt x="300" y="-12" on="1"/>
        <pt x="264" y="-12" on="0"/>
        <pt x="215" y="24" on="0"/>
        <pt x="196" y="53" on="1"/>
        <pt x="184" y="72" on="0"/>
        <pt x="168" y="86" on="0"/>
        <pt x="157" y="86" on="1"/>
        <pt x="140" y="86" on="0"/>
        <pt x="128" y="58" on="1"/>
        <pt x="100" y="0" on="1"/>
        <pt x="84" y="0" on="1"/>
        <pt x="84" y="672" on="1"/>
        <pt x="84" y="681" on="0"/>
        <pt x="77" y="688" on="0"/>
        <pt x="68" y="688" on="1"/>
      </contour>
      <contour>
        <pt x="200" y="234" on="1"/>
        <pt x="200" y="176" on="0"/>
        <pt x="224" y="76" on="0"/>
        <pt x="263" y="20" on="0"/>
        <pt x="286" y="20" on="1"/>
        <pt x="352" y="20" on="0"/>
        <pt x="352" y="454" on="0"/>
        <pt x="286" y="454" on="1"/>
        <pt x="273" y="454" on="0"/>
        <pt x="244" y="428" on="0"/>
        <pt x="218" y="378" on="0"/>
        <pt x="200" y="290" on="0"/>
      </contour>
    </TTGlyph>
    <TTGlyph name="backslash" xMin="50" yMin="-198" xMax="400" yMax="730">
      <contour>
        <pt x="50" y="730" on="1"/>
        <pt x="118" y="730" on="1"/>
        <pt x="400" y="-198" on="1"/>
        <pt x="332" y="-198" on="1"/>
      </contour>
    </TTGlyph>
    <TTGlyph name="bar" xMin="108" yMin="-198" xMax="176" yMax="730">
      <contour>
        <pt x="108" y="-198" on="1"/>
        <pt x="108" y="730" on="1"/>
        <pt x="176" y="730" on="1"/>
        <pt x="176" y="-198" on="1"/>
      </contour>
    </TTGlyph>
    <TTGlyph name="braceleft" xMin="42" yMin="-198" xMax="354" yMax="730">
      <contour>
        <pt x="42" y="253" on="1"/>
        <pt x="42" y="279" on="1"/>
        <pt x="66" y="279" on="0"/>
        <pt x="98" y="284" on="0"/>
        <pt x="126" y="300" on="0"/>
        <pt x="140" y="334" on="0"/>
        <pt x="140" y="360" on="1"/>
        <pt x="140" y="562" on="1"/>
        <pt x="140" y="600" on="0"/>
        <pt x="171" y="658" on="0"/>
        <pt x="230" y="697" on="0"/>
        <pt x="300" y="721" on="0"/>
        <pt x="346" y="730" on="1"/>
        <pt x="354" y="702" on="1"/>
        <pt x="298" y="690" on="0"/>
        <pt x="252" y="652" on="0"/>
        <pt x="252" y="604" on="1"/>
        <pt x="252" y="410" on="1"/>
        <pt x="252" y="345" on="0"/>
        <pt x="190" y="279" on="0"/>
        <pt x="137" y="267" on="1"/>
        <pt x="137" y="265" on="1"/>
        <pt x="190" y="253" on="0"/>
        <pt x="252" y="187" on="0"/>
        <pt x="252" y="122" on="1"/>
        <pt x="252" y="-72" on="1"/>
        <pt x="252" y="-120" on="0"/>
        <pt x="298" y="-158" on="0"/>
        <pt x="354" y="-170" on="1"/>
        <pt x="346" y="-198" on="1"/>
        <pt x="300" y="-189" on="0"/>
        <pt x="230" y="-165" on="0"/>
        <pt x="171" y="-126" on="0"/>
        <pt x="140" y="-68" on="0"/>
        <pt x="140" y="-30" on="1"/>
        <pt x="140" y="172" on="1"/>
        <pt x="140" y="198" on="0"/>
        <pt x="126" y="232" on="0"/>
        <pt x="98" y="248" on="0"/>
        <pt x="66" y="253" on="0"/>
      </contour>
    </TTGlyph>
    <TTGlyph name="braceright" xMin="66" yMin="-198" xMax="378" yMax="730">
      <contour>
        <pt x="66" y="-170" on="1"/>
        <pt x="122" y="-158" on="0"/>
        <pt x="168" y="-120" on="0"/>
        <pt x="168" y="-72" on="1"/>
        <pt x="168" y="122" on="1"/>
        <pt x="168" y="187" on="0"/>
        <pt x="230" y="253" on="0"/>
        <pt x="283" y="265" on="1"/>
        <pt x="283" y="267" on="1"/>
        <pt x="230" y="279" on="0"/>
        <pt x="168" y="345" on="0"/>
        <pt x="168" y="410" on="1"/>
        <pt x="168" y="604" on="1"/>
        <pt x="168" y="652" on="0"/>
        <pt x="122" y="690" on="0"/>
        <pt x="66" y="702" on="1"/>
        <pt x="74" y="730" on="1"/>
        <pt x="120" y="721" on="0"/>
        <pt x="190" y="697" on="0"/>
        <pt x="249" y="658" on="0"/>
        <pt x="280" y="600" on="0"/>
        <pt x="280" y="562" on="1"/>
        <pt x="280" y="360" on="1"/>
        <pt x="280" y="334" on="0"/>
        <pt x="294" y="300" on="0"/>
        <pt x="322" y="284" on="0"/>
        <pt x="354" y="279" on="0"/>
        <pt x="378" y="279" on="1"/>
        <pt x="378" y="253" on="1"/>
        <pt x="354" y="253" on="0"/>
        <pt x="322" y="248" on="0"/>
        <pt x="294" y="232" on="0"/>
        <pt x="280" y="198" on="0"/>
        <pt x="280" y="172" on="1"/>
        <pt x="280" y="-30" on="1"/>
        <pt x="280" y="-68" on="0"/>
        <pt x="249" y="-126" on="0"/>
        <pt x="190" y="-165" on="0"/>
        <pt x="120" y="-189" on="0"/>
        <pt x="74" y="-198" on="1"/>
      </contour>
    </TTGlyph>
    <TTGlyph name="bracketleft" xMin="80" yMin="-180" xMax="310" yMax="712">
      <contour>
        <pt x="80" y="-180" on="1"/>
        <pt x="80" y="712" on="1"/>
        <pt x="310" y="712" on="1"/>
        <pt x="310" y="684" on="1"/>
        <pt x="216" y="684" on="1"/>
        <pt x="192" y="684" on="0"/>
        <pt x="192" y="660" on="1"/>
        <pt x="192" y="-128" on="1"/>
        <pt x="192" y="-152" on="0"/>
        <pt x="216" y="-152" on="1"/>
        <pt x="310" y="-152" on="1"/>
        <pt x="310" y="-180" on="1"/>
      </contour>
    </TTGlyph>
    <TTGlyph name="bracketright" xMin="70" yMin="-180" xMax="300" yMax="712">
      <contour>
        <pt x="70" y="-152" on="1"/>
        <pt x="164" y="-152" on="1"/>
        <pt x="188" y="-152" on="0"/>
        <pt x="188" y="-128" on="1"/>
        <pt x="188" y="660" on="1"/>
        <pt x="188" y="684" on="0"/>
        <pt x="164" y="684" on="1"/>
        <pt x="70" y="684" on="1"/>
        <pt x="70" y="712" on="1"/>
        <pt x="300" y="712" on="1"/>
        <pt x="300" y="-180" on="1"/>
        <pt x="70" y="-180" on="1"/>
      </contour>
    </TTGlyph>
    <TTGlyph name="brokenbar" xMin="108" yMin="-168" xMax="176" yMax="730">
      <contour>
        <pt x="108" y="-168" on="1"/>
        <pt x="108" y="192" on="1"/>
        <pt x="176" y="192" on="1"/>
        <pt x="176" y="-168" on="1"/>
      </contour>
      <contour>
        <pt x="108" y="370" on="1"/>
        <pt x="108" y="730" on="1"/>
        <pt x="176" y="730" on="1"/>
        <pt x="176" y="370" on="1"/>
      </contour>
    </TTGlyph>
    <TTGlyph name="bullet" xMin="90" yMin="194" xMax="410" yMax="514">
      <contour>
        <pt x="90" y="286" on="0"/>
        <pt x="90" y="422" on="0"/>
        <pt x="182" y="514" on="0"/>
        <pt x="318" y="514" on="0"/>
        <pt x="410" y="422" on="0"/>
        <pt x="410" y="286" on="0"/>
        <pt x="318" y="194" on="0"/>
        <pt x="182" y="194" on="0"/>
      </contour>
    </TTGlyph>
    <TTGlyph name="c" xMin="48" yMin="-12" xMax="422" yMax="486">
      <contour>
        <pt x="48" y="237" on="1"/>
        <pt x="48" y="306" on="0"/>
        <pt x="100" y="418" on="0"/>
        <pt x="198" y="486" on="0"/>
        <pt x="259" y="486" on="1"/>
        <pt x="295" y="486" on="0"/>
        <pt x="353" y="462" on="0"/>
        <pt x="386" y="422" on="0"/>
        <pt x="404" y="375" on="0"/>
        <pt x="404" y="351" on="1"/>
        <pt x="404" y="315" on="0"/>
        <pt x="360" y="262" on="0"/>
        <pt x="329" y="262" on="1"/>
        <pt x="306" y="262" on="0"/>
        <pt x="276" y="289" on="0"/>
        <pt x="276" y="312" on="1"/>
        <pt x="276" y="340" on="0"/>
        <pt x="308" y="365" on="1"/>
        <pt x="332" y="385" on="0"/>
        <pt x="332" y="427" on="0"/>
        <pt x="302" y="462" on="0"/>
        <pt x="267" y="462" on="1"/>
        <pt x="176" y="462" on="0"/>
        <pt x="176" y="237" on="1"/>
        <pt x="176" y="201" on="0"/>
        <pt x="177" y="166" on="0"/>
        <pt x="182" y="118" on="0"/>
        <pt x="187" y="99" on="1"/>
        <pt x="196" y="62" on="0"/>
        <pt x="248" y="18" on="0"/>
        <pt x="281" y="18" on="1"/>
        <pt x="306" y="18" on="0"/>
        <pt x="349" y="44" on="0"/>
        <pt x="376" y="86" on="0"/>
        <pt x="394" y="136" on="0"/>
        <pt x="396" y="162" on="1"/>
        <pt x="422" y="162" on="1"/>
        <pt x="420" y="138" on="0"/>
        <pt x="408" y="92" on="0"/>
        <pt x="382" y="46" on="0"/>
        <pt x="348" y="10" on="0"/>
        <pt x="294" y="-12" on="0"/>
        <pt x="261" y="-12" on="1"/>
        <pt x="167" y="-12" on="0"/>
        <pt x="48" y="132" on="0"/>
      </contour>
    </TTGlyph>
    <TTGlyph name="ccedilla" xMin="48" yMin="-212" xMax="422" yMax="486">
      <contour>
        <pt x="48" y="237" on="1"/>
        <pt x="48" y="306" on="0"/>
        <pt x="100" y="418" on="0"/>
        <pt x="198" y="486" on="0"/>
        <pt x="259" y="486" on="1"/>
        <pt x="295" y="486" on="0"/>
        <pt x="353" y="462" on="0"/>
        <pt x="386" y="422" on="0"/>
        <pt x="404" y="375" on="0"/>
        <pt x="404" y="351" on="1"/>
        <pt x="404" y="315" on="0"/>
        <pt x="360" y="262" on="0"/>
        <pt x="329" y="262" on="1"/>
        <pt x="306" y="262" on="0"/>
        <pt x="276" y="289" on="0"/>
        <pt x="276" y="312" on="1"/>
        <pt x="276" y="340" on="0"/>
        <pt x="308" y="365" on="1"/>
        <pt x="332" y="385" on="0"/>
        <pt x="332" y="427" on="0"/>
        <pt x="302" y="462" on="0"/>
        <pt x="267" y="462" on="1"/>
        <pt x="176" y="462" on="0"/>
        <pt x="176" y="237" on="1"/>
        <pt x="176" y="201" on="0"/>
        <pt x="177" y="166" on="0"/>
        <pt x="182" y="118" on="0"/>
        <pt x="187" y="99" on="1"/>
        <pt x="196" y="62" on="0"/>
        <pt x="248" y="18" on="0"/>
        <pt x="281" y="18" on="1"/>
        <pt x="306" y="18" on="0"/>
        <pt x="349" y="44" on="0"/>
        <pt x="376" y="86" on="0"/>
        <pt x="394" y="136" on="0"/>
        <pt x="396" y="162" on="1"/>
        <pt x="422" y="162" on="1"/>
        <pt x="420" y="138" on="0"/>
        <pt x="408" y="92" on="0"/>
        <pt x="382" y="46" on="0"/>
        <pt x="348" y="10" on="0"/>
        <pt x="294" y="-12" on="0"/>
        <pt x="261" y="-12" on="1"/>
        <pt x="251" y="-12" on="1"/>
        <pt x="237" y="-52" on="1"/>
        <pt x="254" y="-56" on="0"/>
        <pt x="286" y="-67" on="0"/>
        <pt x="322" y="-87" on="0"/>
        <pt x="344" y="-120" on="0"/>
        <pt x="344" y="-139" on="1"/>
        <pt x="344" y="-172" on="0"/>
        <pt x="288" y="-212" on="0"/>
        <pt x="230" y="-212" on="1"/>
        <pt x="206" y="-212" on="0"/>
        <pt x="156" y="-192" on="0"/>
        <pt x="142" y="-178" on="1"/>
        <pt x="154" y="-158" on="1"/>
        <pt x="182" y="-180" on="0"/>
        <pt x="213" y="-180" on="1"/>
        <pt x="264" y="-180" on="0"/>
        <pt x="264" y="-130" on="1"/>
        <pt x="264" y="-100" on="0"/>
        <pt x="236" y="-74" on="0"/>
        <pt x="200" y="-67" on="1"/>
        <pt x="221" y="-8" on="1"/>
        <pt x="143" y="7" on="0"/>
        <pt x="48" y="144" on="0"/>
      </contour>
    </TTGlyph>
    <TTGlyph name="cedilla" xMin="114" yMin="-212" xMax="316" yMax="0">
      <contour>
        <pt x="114" y="-178" on="1"/>
        <pt x="126" y="-158" on="1"/>
        <pt x="154" y="-180" on="0"/>
        <pt x="185" y="-180" on="1"/>
        <pt x="236" y="-180" on="0"/>
        <pt x="236" y="-130" on="1"/>
        <pt x="236" y="-100" on="0"/>
        <pt x="208" y="-74" on="0"/>
        <pt x="172" y="-67" on="1"/>
        <pt x="196" y="0" on="1"/>
        <pt x="227" y="0" on="1"/>
        <pt x="209" y="-52" on="1"/>
        <pt x="226" y="-56" on="0"/>
        <pt x="258" y="-67" on="0"/>
        <pt x="294" y="-87" on="0"/>
        <pt x="316" y="-120" on="0"/>
        <pt x="316" y="-139" on="1"/>
        <pt x="316" y="-172" on="0"/>
        <pt x="260" y="-212" on="0"/>
        <pt x="202" y="-212" on="1"/>
        <pt x="178" y="-212" on="0"/>
        <pt x="128" y="-192" on="0"/>
      </contour>
    </TTGlyph>
    <TTGlyph name="cent" xMin="102" yMin="-120" xMax="476" yMax="594">
      <contour>
        <pt x="102" y="138" on="0"/>
        <pt x="102" y="336" on="0"/>
        <pt x="209" y="477" on="0"/>
        <pt x="294" y="485" on="1"/>
        <pt x="294" y="594" on="1"/>
        <pt x="334" y="594" on="1"/>
        <pt x="334" y="485" on="1"/>
        <pt x="394" y="478" on="0"/>
        <pt x="458" y="400" on="0"/>
        <pt x="458" y="351" on="1"/>
        <pt x="458" y="324" on="0"/>
        <pt x="426" y="280" on="0"/>
        <pt x="398" y="280" on="1"/>
        <pt x="376" y="280" on="0"/>
        <pt x="350" y="306" on="0"/>
        <pt x="350" y="329" on="1"/>
        <pt x="350" y="350" on="0"/>
        <pt x="373" y="375" on="1"/>
        <pt x="390" y="394" on="0"/>
        <pt x="390" y="406" on="1"/>
        <pt x="390" y="424" on="0"/>
        <pt x="362" y="458" on="0"/>
        <pt x="334" y="461" on="1"/>
        <pt x="334" y="18" on="1"/>
        <pt x="360" y="18" on="0"/>
        <pt x="403" y="44" on="0"/>
        <pt x="430" y="86" on="0"/>
        <pt x="448" y="136" on="0"/>
        <pt x="450" y="162" on="1"/>
        <pt x="476" y="162" on="1"/>
        <pt x="473" y="133" on="0"/>
        <pt x="456" y="80" on="0"/>
        <pt x="424" y="28" on="0"/>
        <pt x="370" y="-8" on="0"/>
        <pt x="334" y="-11" on="1"/>
        <pt x="334" y="-120" on="1"/>
        <pt x="294" y="-120" on="1"/>
        <pt x="294" y="-11" on="1"/>
        <pt x="208" y="-2" on="0"/>
      </contour>
      <contour>
        <pt x="230" y="237" on="1"/>
        <pt x="230" y="201" on="0"/>
        <pt x="231" y="166" on="0"/>
        <pt x="236" y="118" on="0"/>
        <pt x="241" y="99" on="1"/>
        <pt x="254" y="48" on="0"/>
        <pt x="294" y="28" on="1"/>
        <pt x="294" y="456" on="1"/>
        <pt x="230" y="424" on="0"/>
      </contour>
    </TTGlyph>
    <TTGlyph name="circumflex" xMin="70" yMin="524" xMax="370" yMax="708">
      <contour>
        <pt x="70" y="548" on="1"/>
        <pt x="96" y="566" on="0"/>
        <pt x="138" y="607" on="0"/>
        <pt x="164" y="654" on="0"/>
        <pt x="178" y="686" on="0"/>
        <pt x="186" y="708" on="1"/>
        <pt x="254" y="708" on="1"/>
        <pt x="262" y="686" on="0"/>
        <pt x="276" y="654" on="0"/>
        <pt x="302" y="607" on="0"/>
        <pt x="344" y="566" on="0"/>
        <pt x="370" y="548" on="1"/>
        <pt x="354" y="524" on="1"/>
        <pt x="320" y="540" on="0"/>
        <pt x="244" y="594" on="0"/>
        <pt x="220" y="620" on="1"/>
        <pt x="196" y="594" on="0"/>
        <pt x="120" y="540" on="0"/>
        <pt x="86" y="524" on="1"/>
      </contour>
    </TTGlyph>
    <TTGlyph name="colon" xMin="62" yMin="-12" xMax="218" yMax="486">
      <component glyphName="period" x="0" y="342" flags="0x1004"/>
      <component glyphName="period" x="0" y="0" flags="0x1004"/>
    </TTGlyph>
    <TTGlyph name="comma" xMin="46" yMin="-196" xMax="238" yMax="148">
      <contour>
        <pt x="46" y="63" on="1"/>
        <pt x="46" y="103" on="0"/>
        <pt x="98" y="148" on="0"/>
        <pt x="132" y="148" on="1"/>
        <pt x="180" y="148" on="0"/>
        <pt x="238" y="82" on="0"/>
        <pt x="238" y="32" on="1"/>
        <pt x="238" y="-50" on="0"/>
        <pt x="142" y="-168" on="0"/>
        <pt x="66" y="-196" on="1"/>
        <pt x="52" y="-168" on="1"/>
        <pt x="114" y="-144" on="0"/>
        <pt x="192" y="-58" on="0"/>
        <pt x="192" y="-10" on="1"/>
        <pt x="192" y="-3" on="0"/>
        <pt x="184" y="8" on="0"/>
        <pt x="175" y="8" on="1"/>
        <pt x="167" y="8" on="0"/>
        <pt x="151" y="0" on="1"/>
        <pt x="133" y="-9" on="0"/>
        <pt x="117" y="-9" on="1"/>
        <pt x="90" y="-9" on="0"/>
        <pt x="46" y="29" on="0"/>
      </contour>
    </TTGlyph>
    <TTGlyph name="copyright" xMin="48" yMin="-18" xMax="772" yMax="730">
      <contour>
        <pt x="88" y="447" on="0"/>
        <pt x="88" y="265" on="0"/>
        <pt x="172" y="110" on="0"/>
        <pt x="320" y="18" on="0"/>
        <pt x="500" y="18" on="0"/>
        <pt x="648" y="110" on="0"/>
        <pt x="732" y="265" on="0"/>
        <pt x="732" y="447" on="0"/>
        <pt x="648" y="602" on="0"/>
        <pt x="500" y="694" on="0"/>
        <pt x="320" y="694" on="0"/>
        <pt x="172" y="602" on="0"/>
      </contour>
      <contour>
        <pt x="48" y="280" on="0"/>
        <pt x="48" y="432" on="0"/>
        <pt x="104" y="570" on="0"/>
        <pt x="200" y="670" on="0"/>
        <pt x="334" y="730" on="0"/>
        <pt x="486" y="730" on="0"/>
        <pt x="620" y="670" on="0"/>
        <pt x="716" y="570" on="0"/>
        <pt x="772" y="432" on="0"/>
        <pt x="772" y="280" on="0"/>
        <pt x="716" y="142" on="0"/>
        <pt x="620" y="42" on="0"/>
        <pt x="486" y="-18" on="0"/>
        <pt x="334" y="-18" on="0"/>
        <pt x="200" y="42" on="0"/>
        <pt x="104" y="142" on="0"/>
      </contour>
      <contour>
        <pt x="220" y="351" on="1"/>
        <pt x="220" y="417" on="0"/>
        <pt x="262" y="526" on="0"/>
        <pt x="346" y="594" on="0"/>
        <pt x="401" y="594" on="1"/>
        <pt x="448" y="594" on="0"/>
        <pt x="489" y="564" on="1"/>
        <pt x="507" y="552" on="0"/>
        <pt x="513" y="552" on="1"/>
        <pt x="523" y="552" on="0"/>
        <pt x="528" y="565" on="1"/>
        <pt x="537" y="588" on="1"/>
        <pt x="562" y="588" on="1"/>
        <pt x="562" y="390" on="1"/>
        <pt x="538" y="390" on="1"/>
        <pt x="524" y="472" on="0"/>
        <pt x="459" y="566" on="0"/>
        <pt x="415" y="566" on="1"/>
        <pt x="386" y="566" on="0"/>
        <pt x="348" y="510" on="0"/>
        <pt x="348" y="447" on="1"/>
        <pt x="348" y="256" on="1"/>
        <pt x="348" y="194" on="0"/>
        <pt x="392" y="138" on="0"/>
        <pt x="422" y="138" on="1"/>
        <pt x="492" y="138" on="0"/>
        <pt x="526" y="205" on="1"/>
        <pt x="542" y="238" on="0"/>
        <pt x="550" y="300" on="1"/>
        <pt x="576" y="300" on="1"/>
        <pt x="572" y="238" on="0"/>
        <pt x="549" y="192" on="1"/>
        <pt x="529" y="154" on="0"/>
        <pt x="458" y="110" on="0"/>
        <pt x="364" y="110" on="0"/>
        <pt x="290" y="151" on="0"/>
        <pt x="244" y="220" on="0"/>
        <pt x="220" y="304" on="0"/>
      </contour>
    </TTGlyph>
    <TTGlyph name="currency" xMin="38" yMin="91" xMax="542" yMax="595">
      <contour>
        <pt x="122" y="417" on="0"/>
        <pt x="122" y="267" on="0"/>
        <pt x="215" y="174" on="0"/>
        <pt x="365" y="174" on="0"/>
        <pt x="458" y="267" on="0"/>
        <pt x="458" y="417" on="0"/>
        <pt x="365" y="512" on="0"/>
        <pt x="215" y="512" on="0"/>
      </contour>
      <contour>
        <pt x="38" y="133" on="1"/>
        <pt x="106" y="201" on="1"/>
        <pt x="58" y="264" on="0"/>
        <pt x="58" y="342" on="1"/>
        <pt x="58" y="421" on="0"/>
        <pt x="106" y="485" on="1"/>
        <pt x="38" y="553" on="1"/>
        <pt x="80" y="595" on="1"/>
        <pt x="148" y="527" on="1"/>
        <pt x="210" y="576" on="0"/>
        <pt x="370" y="576" on="0"/>
        <pt x="432" y="527" on="1"/>
        <pt x="500" y="595" on="1"/>
        <pt x="542" y="553" on="1"/>
        <pt x="474" y="485" on="1"/>
        <pt x="522" y="421" on="0"/>
        <pt x="522" y="342" on="1"/>
        <pt x="522" y="264" on="0"/>
        <pt x="474" y="201" on="1"/>
        <pt x="542" y="133" on="1"/>
        <pt x="500" y="91" on="1"/>
        <pt x="432" y="159" on="1"/>
        <pt x="370" y="110" on="0"/>
        <pt x="210" y="110" on="0"/>
        <pt x="148" y="159" on="1"/>
        <pt x="80" y="91" on="1"/>
      </contour>
    </TTGlyph>
    <TTGlyph name="d" xMin="48" yMin="-12" xMax="516" yMax="712">
      <contour>
        <pt x="176" y="454" on="0"/>
        <pt x="176" y="20" on="0"/>
        <pt x="242" y="20" on="1"/>
        <pt x="265" y="20" on="0"/>
        <pt x="304" y="76" on="0"/>
        <pt x="328" y="176" on="0"/>
        <pt x="328" y="234" on="1"/>
        <pt x="328" y="290" on="0"/>
        <pt x="310" y="378" on="0"/>
        <pt x="284" y="428" on="0"/>
        <pt x="255" y="454" on="0"/>
        <pt x="242" y="454" on="1"/>
      </contour>
      <contour>
        <pt x="48" y="174" on="0"/>
        <pt x="48" y="300" on="0"/>
        <pt x="90" y="414" on="0"/>
        <pt x="172" y="486" on="0"/>
        <pt x="224" y="486" on="1"/>
        <pt x="256" y="486" on="0"/>
        <pt x="306" y="448" on="0"/>
        <pt x="322" y="415" on="1"/>
        <pt x="328" y="417" on="1"/>
        <pt x="328" y="672" on="1"/>
        <pt x="328" y="681" on="0"/>
        <pt x="321" y="688" on="0"/>
        <pt x="312" y="688" on="1"/>
        <pt x="256" y="688" on="1"/>
        <pt x="256" y="712" on="1"/>
        <pt x="444" y="712" on="1"/>
        <pt x="444" y="40" on="1"/>
        <pt x="444" y="31" on="0"/>
        <pt x="451" y="24" on="0"/>
        <pt x="460" y="24" on="1"/>
        <pt x="516" y="24" on="1"/>
        <pt x="516" y="0" on="1"/>
        <pt x="328" y="0" on="1"/>
        <pt x="328" y="58" on="1"/>
        <pt x="322" y="58" on="1"/>
        <pt x="308" y="30" on="0"/>
        <pt x="260" y="-12" on="0"/>
        <pt x="228" y="-12" on="1"/>
        <pt x="176" y="-12" on="0"/>
        <pt x="92" y="60" on="0"/>
      </contour>
    </TTGlyph>
    <TTGlyph name="degree" xMin="130" yMin="408" xMax="450" yMax="728">
      <contour>
        <pt x="130" y="502" on="0"/>
        <pt x="130" y="634" on="0"/>
        <pt x="224" y="728" on="0"/>
        <pt x="356" y="728" on="0"/>
        <pt x="450" y="634" on="0"/>
        <pt x="450" y="502" on="0"/>
        <pt x="356" y="408" on="0"/>
        <pt x="224" y="408" on="0"/>
      </contour>
      <contour>
        <pt x="186" y="613" on="0"/>
        <pt x="186" y="523" on="0"/>
        <pt x="245" y="464" on="0"/>
        <pt x="335" y="464" on="0"/>
        <pt x="394" y="523" on="0"/>
        <pt x="394" y="613" on="0"/>
        <pt x="335" y="672" on="0"/>
        <pt x="245" y="672" on="0"/>
      </contour>
    </TTGlyph>
    <TTGlyph name="dieresis" xMin="62" yMin="554" xMax="378" yMax="682">
      <contour>
        <pt x="250" y="591" on="0"/>
        <pt x="250" y="645" on="0"/>
        <pt x="287" y="682" on="0"/>
        <pt x="341" y="682" on="0"/>
        <pt x="378" y="645" on="0"/>
        <pt x="378" y="591" on="0"/>
        <pt x="341" y="554" on="0"/>
        <pt x="287" y="554" on="0"/>
      </contour>
      <contour>
        <pt x="62" y="591" on="0"/>
        <pt x="62" y="645" on="0"/>
        <pt x="99" y="682" on="0"/>
        <pt x="153" y="682" on="0"/>
        <pt x="190" y="645" on="0"/>
        <pt x="190" y="591" on="0"/>
        <pt x="153" y="554" on="0"/>
        <pt x="99" y="554" on="0"/>
      </contour>
    </TTGlyph>
    <TTGlyph name="divide" xMin="42" yMin="-66" xMax="898" yMax="606">
      <contour>
        <pt x="392" y="494" on="0"/>
        <pt x="392" y="562" on="0"/>
        <pt x="436" y="606" on="0"/>
        <pt x="504" y="606" on="0"/>
        <pt x="548" y="562" on="0"/>
        <pt x="548" y="494" on="0"/>
        <pt x="504" y="450" on="0"/>
        <pt x="436" y="450" on="0"/>
      </contour>
      <contour>
        <pt x="392" y="-22" on="0"/>
        <pt x="392" y="46" on="0"/>
        <pt x="436" y="90" on="0"/>
        <pt x="504" y="90" on="0"/>
        <pt x="548" y="46" on="0"/>
        <pt x="548" y="-22" on="0"/>
        <pt x="504" y="-66" on="0"/>
        <pt x="436" y="-66" on="0"/>
      </contour>
      <contour>
        <pt x="42" y="240" on="1"/>
        <pt x="42" y="304" on="1"/>
        <pt x="898" y="304" on="1"/>
        <pt x="898" y="240" on="1"/>
      </contour>
    </TTGlyph>
    <TTGlyph name="dollar" xMin="52" yMin="-84" xMax="528" yMax="796">
      <contour>
        <pt x="52" y="166" on="1"/>
        <pt x="52" y="208" on="0"/>
        <pt x="98" y="260" on="0"/>
        <pt x="131" y="260" on="1"/>
        <pt x="153" y="260" on="0"/>
        <pt x="184" y="230" on="0"/>
        <pt x="184" y="210" on="1"/>
        <pt x="184" y="192" on="0"/>
        <pt x="172" y="167" on="0"/>
        <pt x="157" y="155" on="0"/>
        <pt x="141" y="145" on="1"/>
        <pt x="124" y="135" on="0"/>
        <pt x="114" y="121" on="0"/>
        <pt x="114" y="108" on="1"/>
        <pt x="114" y="80" on="0"/>
        <pt x="176" y="34" on="0"/>
        <pt x="226" y="24" on="1"/>
        <pt x="226" y="320" on="1"/>
        <pt x="173" y="353" on="1"/>
        <pt x="76" y="414" on="0"/>
        <pt x="76" y="527" on="1"/>
        <pt x="76" y="607" on="0"/>
        <pt x="160" y="701" on="0"/>
        <pt x="226" y="718" on="1"/>
        <pt x="226" y="796" on="1"/>
        <pt x="258" y="796" on="1"/>
        <pt x="258" y="725" on="1"/>
        <pt x="282" y="728" on="0"/>
        <pt x="304" y="728" on="1"/>
        <pt x="318" y="728" on="0"/>
        <pt x="342" y="726" on="1"/>
        <pt x="342" y="796" on="1"/>
        <pt x="374" y="796" on="1"/>
        <pt x="374" y="721" on="1"/>
        <pt x="442" y="708" on="0"/>
        <pt x="528" y="628" on="0"/>
        <pt x="528" y="566" on="1"/>
        <pt x="528" y="524" on="0"/>
        <pt x="488" y="458" on="0"/>
        <pt x="456" y="458" on="1"/>
        <pt x="430" y="458" on="0"/>
        <pt x="399" y="486" on="0"/>
        <pt x="399" y="508" on="1"/>
        <pt x="399" y="526" on="0"/>
        <pt x="422" y="556" on="0"/>
        <pt x="438" y="563" on="1"/>
        <pt x="452" y="570" on="0"/>
        <pt x="466" y="578" on="0"/>
        <pt x="476" y="593" on="0"/>
        <pt x="476" y="603" on="1"/>
        <pt x="476" y="629" on="0"/>
        <pt x="421" y="676" on="0"/>
        <pt x="374" y="688" on="1"/>
        <pt x="374" y="399" on="1"/>
        <pt x="413" y="375" on="1"/>
        <pt x="526" y="305" on="0"/>
        <pt x="526" y="189" on="1"/>
        <pt x="526" y="109" on="0"/>
        <pt x="442" y="11" on="0"/>
        <pt x="374" y="-7" on="1"/>
        <pt x="374" y="-84" on="1"/>
        <pt x="342" y="-84" on="1"/>
        <pt x="342" y="-13" on="1"/>
        <pt x="321" y="-16" on="0"/>
        <pt x="301" y="-16" on="1"/>
        <pt x="273" y="-16" on="0"/>
        <pt x="258" y="-14" on="1"/>
        <pt x="258" y="-84" on="1"/>
        <pt x="226" y="-84" on="1"/>
        <pt x="226" y="-9" on="1"/>
        <pt x="190" y="-2" on="0"/>
        <pt x="131" y="23" on="0"/>
        <pt x="80" y="64" on="0"/>
        <pt x="52" y="126" on="0"/>
      </contour>
      <contour>
        <pt x="258" y="471" on="1"/>
        <pt x="342" y="419" on="1"/>
        <pt x="342" y="693" on="1"/>
        <pt x="322" y="696" on="0"/>
        <pt x="300" y="696" on="1"/>
        <pt x="276" y="696" on="0"/>
        <pt x="258" y="692" on="1"/>
      </contour>
      <contour>
        <pt x="258" y="18" on="1"/>
        <pt x="286" y="16" on="0"/>
        <pt x="301" y="16" on="1"/>
        <pt x="324" y="16" on="0"/>
        <pt x="342" y="19" on="1"/>
        <pt x="342" y="248" on="1"/>
        <pt x="258" y="300" on="1"/>
      </contour>
      <contour>
        <pt x="152" y="589" on="1"/>
        <pt x="152" y="534" on="0"/>
        <pt x="226" y="491" on="1"/>
        <pt x="226" y="682" on="1"/>
        <pt x="192" y="669" on="0"/>
        <pt x="152" y="620" on="0"/>
      </contour>
      <contour>
        <pt x="374" y="27" on="1"/>
        <pt x="400" y="36" on="0"/>
        <pt x="434" y="70" on="0"/>
        <pt x="446" y="104" on="0"/>
        <pt x="446" y="121" on="1"/>
        <pt x="446" y="143" on="0"/>
        <pt x="432" y="180" on="0"/>
        <pt x="406" y="206" on="0"/>
        <pt x="387" y="220" on="0"/>
        <pt x="374" y="228" on="1"/>
      </contour>
    </TTGlyph>
    <TTGlyph name="dotaccent" xMin="146" yMin="544" xMax="294" yMax="692">
      <contour>
        <pt x="146" y="586" on="0"/>
        <pt x="146" y="650" on="0"/>
        <pt x="188" y="692" on="0"/>
        <pt x="252" y="692" on="0"/>
        <pt x="294" y="650" on="0"/>
        <pt x="294" y="586" on="0"/>
        <pt x="252" y="544" on="0"/>
        <pt x="188" y="544" on="0"/>
      </contour>
    </TTGlyph>
    <TTGlyph name="dotlessi" xMin="40" yMin="0" xMax="264" yMax="474">
      <contour>
        <pt x="40" y="0" on="1"/>
        <pt x="40" y="24" on="1"/>
        <pt x="78" y="24" on="1"/>
        <pt x="87" y="24" on="0"/>
        <pt x="94" y="31" on="0"/>
        <pt x="94" y="40" on="1"/>
        <pt x="94" y="434" on="1"/>
        <pt x="94" y="443" on="0"/>
        <pt x="87" y="450" on="0"/>
        <pt x="78" y="450" on="1"/>
        <pt x="40" y="450" on="1"/>
        <pt x="40" y="474" on="1"/>
        <pt x="210" y="474" on="1"/>
        <pt x="210" y="40" on="1"/>
        <pt x="210" y="31" on="0"/>
        <pt x="217" y="24" on="0"/>
        <pt x="226" y="24" on="1"/>
        <pt x="264" y="24" on="1"/>
        <pt x="264" y="0" on="1"/>
      </contour>
    </TTGlyph>
    <TTGlyph name="e" xMin="48" yMin="-12" xMax="422" yMax="486">
      <contour>
        <pt x="48" y="237" on="1"/>
        <pt x="48" y="344" on="0"/>
        <pt x="166" y="486" on="0"/>
        <pt x="250" y="486" on="1"/>
        <pt x="311" y="486" on="0"/>
        <pt x="398" y="400" on="0"/>
        <pt x="413" y="328" on="1"/>
        <pt x="420" y="296" on="0"/>
        <pt x="420" y="228" on="1"/>
        <pt x="176" y="228" on="1"/>
        <pt x="176" y="196" on="0"/>
        <pt x="177" y="162" on="0"/>
        <pt x="182" y="118" on="0"/>
        <pt x="187" y="99" on="1"/>
        <pt x="196" y="62" on="0"/>
        <pt x="248" y="18" on="0"/>
        <pt x="281" y="18" on="1"/>
        <pt x="306" y="18" on="0"/>
        <pt x="349" y="44" on="0"/>
        <pt x="376" y="86" on="0"/>
        <pt x="394" y="136" on="0"/>
        <pt x="396" y="162" on="1"/>
        <pt x="422" y="162" on="1"/>
        <pt x="420" y="138" on="0"/>
        <pt x="408" y="92" on="0"/>
        <pt x="382" y="46" on="0"/>
        <pt x="348" y="10" on="0"/>
        <pt x="294" y="-12" on="0"/>
        <pt x="261" y="-12" on="1"/>
        <pt x="167" y="-12" on="0"/>
        <pt x="48" y="132" on="0"/>
      </contour>
      <contour>
        <pt x="176" y="256" on="1"/>
        <pt x="304" y="256" on="1"/>
        <pt x="304" y="362" on="0"/>
        <pt x="277" y="462" on="0"/>
        <pt x="203" y="462" on="0"/>
        <pt x="176" y="362" on="0"/>
      </contour>
    </TTGlyph>
    <TTGlyph name="eacute" xMin="48" yMin="-12" xMax="422" yMax="712">
      <component glyphName="e" x="0" y="0" flags="0x1004"/>
      <component glyphName="acute" x="20" y="0" flags="0x1004"/>
    </TTGlyph>
    <TTGlyph name="ecircumflex" xMin="48" yMin="-12" xMax="422" yMax="708">
      <component glyphName="e" x="0" y="0" flags="0x1004"/>
      <component glyphName="circumflex" x="20" y="0" flags="0x1004"/>
    </TTGlyph>
    <TTGlyph name="edieresis" xMin="48" yMin="-12" xMax="422" yMax="682">
      <component glyphName="e" x="0" y="0" flags="0x1004"/>
      <component glyphName="dieresis" x="20" y="0" flags="0x1004"/>
    </TTGlyph>
    <TTGlyph name="egrave" xMin="48" yMin="-12" xMax="422" yMax="712">
      <component glyphName="e" x="0" y="0" flags="0x1004"/>
      <component glyphName="grave" x="20" y="0" flags="0x1004"/>
    </TTGlyph>
    <TTGlyph name="eight" xMin="56" yMin="-16" xMax="538" yMax="728">
      <contour>
        <pt x="162" y="588" on="1"/>
        <pt x="162" y="548" on="0"/>
        <pt x="198" y="506" on="0"/>
        <pt x="233" y="489" on="1"/>
        <pt x="364" y="426" on="1"/>
        <pt x="404" y="442" on="0"/>
        <pt x="450" y="519" on="0"/>
        <pt x="450" y="564" on="1"/>
        <pt x="450" y="625" on="0"/>
        <pt x="364" y="696" on="0"/>
        <pt x="309" y="696" on="1"/>
        <pt x="291" y="696" on="0"/>
        <pt x="254" y="690" on="0"/>
        <pt x="213" y="674" on="0"/>
        <pt x="182" y="650" on="0"/>
        <pt x="162" y="612" on="0"/>
      </contour>
      <contour>
        <pt x="56" y="167" on="1"/>
        <pt x="56" y="200" on="0"/>
        <pt x="79" y="259" on="0"/>
        <pt x="116" y="300" on="0"/>
        <pt x="156" y="329" on="0"/>
        <pt x="177" y="338" on="1"/>
        <pt x="177" y="340" on="1"/>
        <pt x="70" y="403" on="0"/>
        <pt x="70" y="521" on="1"/>
        <pt x="70" y="571" on="0"/>
        <pt x="112" y="652" on="0"/>
        <pt x="180" y="702" on="0"/>
        <pt x="261" y="728" on="0"/>
        <pt x="343" y="728" on="0"/>
        <pt x="410" y="707" on="0"/>
        <pt x="454" y="674" on="0"/>
        <pt x="485" y="631" on="0"/>
        <pt x="498" y="589" on="0"/>
        <pt x="498" y="569" on="1"/>
        <pt x="498" y="518" on="0"/>
        <pt x="435" y="438" on="0"/>
        <pt x="392" y="415" on="1"/>
        <pt x="392" y="411" on="1"/>
        <pt x="411" y="401" on="1"/>
        <pt x="470" y="372" on="0"/>
        <pt x="538" y="272" on="0"/>
        <pt x="538" y="221" on="1"/>
        <pt x="538" y="173" on="0"/>
        <pt x="505" y="88" on="0"/>
        <pt x="444" y="22" on="0"/>
        <pt x="346" y="-16" on="0"/>
        <pt x="286" y="-16" on="1"/>
        <pt x="244" y="-16" on="0"/>
        <pt x="164" y="9" on="0"/>
        <pt x="97" y="54" on="0"/>
        <pt x="56" y="125" on="0"/>
      </contour>
      <contour>
        <pt x="124" y="183" on="1"/>
        <pt x="124" y="143" on="0"/>
        <pt x="153" y="81" on="0"/>
        <pt x="195" y="46" on="0"/>
        <pt x="250" y="24" on="0"/>
        <pt x="293" y="16" on="0"/>
        <pt x="313" y="16" on="1"/>
        <pt x="379" y="16" on="0"/>
        <pt x="462" y="86" on="0"/>
        <pt x="462" y="134" on="1"/>
        <pt x="462" y="156" on="0"/>
        <pt x="446" y="192" on="0"/>
        <pt x="418" y="218" on="0"/>
        <pt x="390" y="236" on="0"/>
        <pt x="372" y="246" on="1"/>
        <pt x="206" y="328" on="1"/>
        <pt x="186" y="318" on="0"/>
        <pt x="162" y="298" on="0"/>
        <pt x="136" y="265" on="0"/>
        <pt x="124" y="216" on="0"/>
      </contour>
    </TTGlyph>
    <TTGlyph name="emdash" xMin="60" yMin="240" xMax="940" yMax="296">
      <contour>
        <pt x="60" y="240" on="1"/>
        <pt x="60" y="296" on="1"/>
        <pt x="940" y="296" on="1"/>
        <pt x="940" y="240" on="1"/>
      </contour>
    </TTGlyph>
    <TTGlyph name="endash" xMin="60" yMin="240" xMax="560" yMax="296">
      <contour>
        <pt x="60" y="240" on="1"/>
        <pt x="60" y="296" on="1"/>
        <pt x="560" y="296" on="1"/>
        <pt x="560" y="240" on="1"/>
      </contour>
    </TTGlyph>
    <TTGlyph name="equal" xMin="48" yMin="136" xMax="892" yMax="408">
      <contour>
        <pt x="48" y="344" on="1"/>
        <pt x="48" y="408" on="1"/>
        <pt x="892" y="408" on="1"/>
        <pt x="892" y="344" on="1"/>
      </contour>
      <contour>
        <pt x="48" y="136" on="1"/>
        <pt x="48" y="200" on="1"/>
        <pt x="892" y="200" on="1"/>
        <pt x="892" y="136" on="1"/>
      </contour>
    </TTGlyph>
    <TTGlyph name="eth" xMin="48" yMin="-12" xMax="462" yMax="716">
      <contour>
        <pt x="48" y="237" on="1"/>
        <pt x="48" y="341" on="0"/>
        <pt x="162" y="486" on="0"/>
        <pt x="242" y="486" on="1"/>
        <pt x="264" y="486" on="0"/>
        <pt x="282" y="481" on="1"/>
        <pt x="287" y="486" on="1"/>
        <pt x="260" y="534" on="0"/>
        <pt x="222" y="585" on="1"/>
        <pt x="128" y="530" on="1"/>
        <pt x="114" y="554" on="1"/>
        <pt x="205" y="608" on="1"/>
        <pt x="162" y="661" on="0"/>
        <pt x="127" y="695" on="1"/>
        <pt x="127" y="712" on="1"/>
        <pt x="247" y="712" on="1"/>
        <pt x="294" y="660" on="1"/>
        <pt x="390" y="716" on="1"/>
        <pt x="404" y="692" on="1"/>
        <pt x="312" y="638" on="1"/>
        <pt x="342" y="598" on="0"/>
        <pt x="388" y="526" on="1"/>
        <pt x="462" y="408" on="0"/>
        <pt x="462" y="243" on="1"/>
        <pt x="462" y="182" on="0"/>
        <pt x="429" y="83" on="0"/>
        <pt x="372" y="21" on="0"/>
        <pt x="298" y="-12" on="0"/>
        <pt x="255" y="-12" on="1"/>
        <pt x="168" y="-12" on="0"/>
        <pt x="48" y="132" on="0"/>
      </contour>
      <contour>
        <pt x="176" y="318" on="0"/>
        <pt x="176" y="156" on="0"/>
        <pt x="195" y="54" on="0"/>
        <pt x="229" y="12" on="0"/>
        <pt x="281" y="12" on="0"/>
        <pt x="315" y="54" on="0"/>
        <pt x="334" y="156" on="0"/>
        <pt x="334" y="318" on="0"/>
        <pt x="315" y="420" on="0"/>
        <pt x="281" y="462" on="0"/>
        <pt x="229" y="462" on="0"/>
        <pt x="195" y="420" on="0"/>
      </contour>
    </TTGlyph>
    <TTGlyph name="exclam" xMin="58" yMin="-12" xMax="222" yMax="730">
      <contour>
        <pt x="58" y="632" on="1"/>
        <pt x="58" y="678" on="0"/>
        <pt x="104" y="730" on="0"/>
        <pt x="176" y="730" on="0"/>
        <pt x="222" y="678" on="0"/>
        <pt x="222" y="632" on="1"/>
        <pt x="222" y="579" on="0"/>
        <pt x="195" y="477" on="1"/>
        <pt x="173" y="392" on="0"/>
        <pt x="168" y="350" on="1"/>
        <pt x="152" y="205" on="1"/>
        <pt x="128" y="205" on="1"/>
        <pt x="112" y="350" on="1"/>
        <pt x="109" y="384" on="0"/>
        <pt x="85" y="477" on="1"/>
        <pt x="58" y="579" on="0"/>
      </contour>
      <contour>
        <pt x="62" y="32" on="0"/>
        <pt x="62" y="100" on="0"/>
        <pt x="106" y="144" on="0"/>
        <pt x="174" y="144" on="0"/>
        <pt x="218" y="100" on="0"/>
        <pt x="218" y="32" on="0"/>
        <pt x="174" y="-12" on="0"/>
        <pt x="106" y="-12" on="0"/>
      </contour>
    </TTGlyph>
    <TTGlyph name="exclamdown" xMin="58" yMin="-238" xMax="222" yMax="504">
      <contour>
        <pt x="222" y="-140" on="1"/>
        <pt x="222" y="-186" on="0"/>
        <pt x="176" y="-238" on="0"/>
        <pt x="104" y="-238" on="0"/>
        <pt x="58" y="-186" on="0"/>
        <pt x="58" y="-140" on="1"/>
        <pt x="58" y="-87" on="0"/>
        <pt x="85" y="15" on="1"/>
        <pt x="107" y="100" on="0"/>
        <pt x="112" y="142" on="1"/>
        <pt x="128" y="287" on="1"/>
        <pt x="152" y="287" on="1"/>
        <pt x="168" y="142" on="1"/>
        <pt x="171" y="108" on="0"/>
        <pt x="195" y="15" on="1"/>
        <pt x="222" y="-87" on="0"/>
      </contour>
      <contour>
        <pt x="218" y="460" on="0"/>
        <pt x="218" y="392" on="0"/>
        <pt x="174" y="348" on="0"/>
        <pt x="106" y="348" on="0"/>
        <pt x="62" y="392" on="0"/>
        <pt x="62" y="460" on="0"/>
        <pt x="106" y="504" on="0"/>
        <pt x="174" y="504" on="0"/>
      </contour>
    </TTGlyph>
    <TTGlyph name="f" xMin="30" yMin="0" xMax="406" yMax="720">
      <contour>
        <pt x="30" y="0" on="1"/>
        <pt x="30" y="24" on="1"/>
        <pt x="86" y="24" on="1"/>
        <pt x="95" y="24" on="0"/>
        <pt x="102" y="31" on="0"/>
        <pt x="102" y="40" on="1"/>
        <pt x="102" y="446" on="1"/>
        <pt x="30" y="446" on="1"/>
        <pt x="30" y="474" on="1"/>
        <pt x="102" y="474" on="1"/>
        <pt x="102" y="522" on="1"/>
        <pt x="102" y="570" on="0"/>
        <pt x="136" y="648" on="0"/>
        <pt x="190" y="695" on="0"/>
        <pt x="254" y="720" on="0"/>
        <pt x="285" y="720" on="1"/>
        <pt x="340" y="720" on="0"/>
        <pt x="406" y="654" on="0"/>
        <pt x="406" y="603" on="1"/>
        <pt x="406" y="572" on="0"/>
        <pt x="363" y="529" on="0"/>
        <pt x="332" y="529" on="1"/>
        <pt x="309" y="529" on="0"/>
        <pt x="273" y="558" on="0"/>
        <pt x="273" y="584" on="1"/>
        <pt x="273" y="613" on="0"/>
        <pt x="301" y="638" on="1"/>
        <pt x="318" y="654" on="0"/>
        <pt x="318" y="670" on="1"/>
        <pt x="318" y="684" on="0"/>
        <pt x="296" y="696" on="0"/>
        <pt x="281" y="696" on="1"/>
        <pt x="256" y="696" on="0"/>
        <pt x="218" y="636" on="0"/>
        <pt x="218" y="564" on="1"/>
        <pt x="218" y="474" on="1"/>
        <pt x="290" y="474" on="1"/>
        <pt x="290" y="446" on="1"/>
        <pt x="218" y="446" on="1"/>
        <pt x="218" y="40" on="1"/>
        <pt x="218" y="31" on="0"/>
        <pt x="225" y="24" on="0"/>
        <pt x="234" y="24" on="1"/>
        <pt x="290" y="24" on="1"/>
        <pt x="290" y="0" on="1"/>
      </contour>
    </TTGlyph>
    <TTGlyph name="five" xMin="76" yMin="-16" xMax="516" yMax="728">
      <contour>
        <pt x="76" y="138" on="1"/>
        <pt x="76" y="184" on="0"/>
        <pt x="136" y="245" on="0"/>
        <pt x="173" y="245" on="1"/>
        <pt x="205" y="245" on="0"/>
        <pt x="239" y="206" on="0"/>
        <pt x="239" y="180" on="1"/>
        <pt x="239" y="140" on="0"/>
        <pt x="196" y="118" on="1"/>
        <pt x="166" y="107" on="0"/>
        <pt x="166" y="76" on="1"/>
        <pt x="166" y="52" on="0"/>
        <pt x="217" y="16" on="0"/>
        <pt x="264" y="16" on="1"/>
        <pt x="284" y="16" on="0"/>
        <pt x="316" y="32" on="0"/>
        <pt x="336" y="64" on="0"/>
        <pt x="348" y="99" on="0"/>
        <pt x="354" y="150" on="0"/>
        <pt x="356" y="192" on="0"/>
        <pt x="356" y="221" on="1"/>
        <pt x="356" y="329" on="0"/>
        <pt x="316" y="420" on="0"/>
        <pt x="259" y="420" on="1"/>
        <pt x="228" y="420" on="0"/>
        <pt x="148" y="360" on="0"/>
        <pt x="138" y="318" on="1"/>
        <pt x="112" y="318" on="1"/>
        <pt x="112" y="703" on="1"/>
        <pt x="132" y="716" on="1"/>
        <pt x="194" y="678" on="0"/>
        <pt x="270" y="678" on="1"/>
        <pt x="309" y="678" on="0"/>
        <pt x="404" y="705" on="0"/>
        <pt x="440" y="728" on="1"/>
        <pt x="458" y="710" on="1"/>
        <pt x="406" y="630" on="0"/>
        <pt x="244" y="556" on="0"/>
        <pt x="152" y="556" on="1"/>
        <pt x="152" y="400" on="1"/>
        <pt x="158" y="398" on="1"/>
        <pt x="210" y="452" on="0"/>
        <pt x="286" y="452" on="1"/>
        <pt x="391" y="452" on="0"/>
        <pt x="516" y="328" on="0"/>
        <pt x="516" y="224" on="1"/>
        <pt x="516" y="152" on="0"/>
        <pt x="446" y="40" on="0"/>
        <pt x="334" y="-16" on="0"/>
        <pt x="267" y="-16" on="1"/>
        <pt x="182" y="-16" on="0"/>
        <pt x="76" y="74" on="0"/>
      </contour>
    </TTGlyph>
    <TTGlyph name="four" xMin="50" yMin="0" xMax="526" yMax="713">
      <contour>
        <pt x="100" y="240" on="1"/>
        <pt x="270" y="240" on="1"/>
        <pt x="270" y="544" on="1"/>
      </contour>
      <contour>
        <pt x="50" y="204" on="1"/>
        <pt x="50" y="241" on="1"/>
        <pt x="313" y="713" on="1"/>
        <pt x="418" y="713" on="1"/>
        <pt x="418" y="240" on="1"/>
        <pt x="526" y="240" on="1"/>
        <pt x="526" y="204" on="1"/>
        <pt x="418" y="204" on="1"/>
        <pt x="418" y="56" on="1"/>
        <pt x="418" y="42" on="0"/>
        <pt x="428" y="32" on="0"/>
        <pt x="442" y="32" on="1"/>
        <pt x="514" y="32" on="1"/>
        <pt x="514" y="0" on="1"/>
        <pt x="150" y="0" on="1"/>
        <pt x="150" y="32" on="1"/>
        <pt x="246" y="32" on="1"/>
        <pt x="260" y="32" on="0"/>
        <pt x="270" y="42" on="0"/>
        <pt x="270" y="56" on="1"/>
        <pt x="270" y="204" on="1"/>
      </contour>
    </TTGlyph>
    <TTGlyph name="foursuperior" xMin="60" yMin="286" xMax="386" yMax="712">
      <contour>
        <pt x="60" y="404" on="1"/>
        <pt x="60" y="433" on="1"/>
        <pt x="242" y="712" on="1"/>
        <pt x="316" y="712" on="1"/>
        <pt x="316" y="432" on="1"/>
        <pt x="386" y="432" on="1"/>
        <pt x="386" y="404" on="1"/>
        <pt x="316" y="404" on="1"/>
        <pt x="316" y="326" on="1"/>
        <pt x="316" y="317" on="0"/>
        <pt x="323" y="310" on="0"/>
        <pt x="332" y="310" on="1"/>
        <pt x="376" y="310" on="1"/>
        <pt x="376" y="286" on="1"/>
        <pt x="128" y="286" on="1"/>
        <pt x="128" y="310" on="1"/>
        <pt x="192" y="310" on="1"/>
        <pt x="201" y="310" on="0"/>
        <pt x="208" y="317" on="0"/>
        <pt x="208" y="326" on="1"/>
        <pt x="208" y="404" on="1"/>
      </contour>
      <contour>
        <pt x="98" y="432" on="1"/>
        <pt x="208" y="432" on="1"/>
        <pt x="208" y="600" on="1"/>
      </contour>
    </TTGlyph>
    <TTGlyph name="g" xMin="42" yMin="-238" xMax="542" yMax="486">
      <contour>
        <pt x="42" y="-114" on="1"/>
        <pt x="42" y="-80" on="0"/>
        <pt x="92" y="-26" on="0"/>
        <pt x="136" y="-16" on="1"/>
        <pt x="136" y="-13" on="1"/>
        <pt x="106" y="-10" on="0"/>
        <pt x="58" y="34" on="0"/>
        <pt x="58" y="69" on="1"/>
        <pt x="58" y="164" on="0"/>
        <pt x="170" y="186" on="1"/>
        <pt x="170" y="190" on="1"/>
        <pt x="152" y="198" on="0"/>
        <pt x="121" y="220" on="0"/>
        <pt x="90" y="254" on="0"/>
        <pt x="72" y="302" on="0"/>
        <pt x="72" y="330" on="1"/>
        <pt x="72" y="376" on="0"/>
        <pt x="124" y="448" on="0"/>
        <pt x="206" y="486" on="0"/>
        <pt x="254" y="486" on="1"/>
        <pt x="336" y="486" on="0"/>
        <pt x="393" y="434" on="1"/>
        <pt x="396" y="434" on="1"/>
        <pt x="427" y="486" on="0"/>
        <pt x="470" y="486" on="1"/>
        <pt x="502" y="486" on="0"/>
        <pt x="542" y="447" on="0"/>
        <pt x="542" y="420" on="1"/>
        <pt x="542" y="390" on="0"/>
        <pt x="509" y="346" on="0"/>
        <pt x="486" y="346" on="1"/>
        <pt x="470" y="346" on="0"/>
        <pt x="446" y="365" on="0"/>
        <pt x="446" y="397" on="0"/>
        <pt x="462" y="417" on="1"/>
        <pt x="478" y="433" on="0"/>
        <pt x="478" y="445" on="1"/>
        <pt x="478" y="461" on="0"/>
        <pt x="457" y="461" on="1"/>
        <pt x="430" y="461" on="0"/>
        <pt x="406" y="419" on="1"/>
        <pt x="438" y="384" on="0"/>
        <pt x="438" y="322" on="1"/>
        <pt x="438" y="266" on="0"/>
        <pt x="334" y="173" on="0"/>
        <pt x="252" y="173" on="1"/>
        <pt x="224" y="173" on="0"/>
        <pt x="183" y="170" on="0"/>
        <pt x="140" y="160" on="0"/>
        <pt x="117" y="137" on="0"/>
        <pt x="117" y="120" on="1"/>
        <pt x="117" y="85" on="0"/>
        <pt x="166" y="85" on="1"/>
        <pt x="324" y="85" on="1"/>
        <pt x="358" y="85" on="0"/>
        <pt x="416" y="69" on="0"/>
        <pt x="462" y="38" on="0"/>
        <pt x="489" y="-16" on="0"/>
        <pt x="489" y="-51" on="1"/>
        <pt x="489" y="-128" on="0"/>
        <pt x="366" y="-238" on="0"/>
        <pt x="264" y="-238" on="1"/>
        <pt x="204" y="-238" on="0"/>
        <pt x="105" y="-210" on="0"/>
        <pt x="42" y="-152" on="0"/>
      </contour>
      <contour>
        <pt x="194" y="399" on="0"/>
        <pt x="194" y="261" on="0"/>
        <pt x="222" y="198" on="0"/>
        <pt x="256" y="198" on="1"/>
        <pt x="288" y="198" on="0"/>
        <pt x="316" y="260" on="0"/>
        <pt x="316" y="400" on="0"/>
        <pt x="288" y="462" on="0"/>
        <pt x="256" y="462" on="1"/>
        <pt x="222" y="462" on="0"/>
      </contour>
      <contour>
        <pt x="78" y="-115" on="1"/>
        <pt x="78" y="-145" on="0"/>
        <pt x="131" y="-188" on="0"/>
        <pt x="206" y="-206" on="0"/>
        <pt x="292" y="-206" on="0"/>
        <pt x="368" y="-184" on="0"/>
        <pt x="422" y="-134" on="0"/>
        <pt x="422" y="-98" on="1"/>
        <pt x="422" y="-78" on="0"/>
        <pt x="398" y="-50" on="0"/>
        <pt x="354" y="-34" on="0"/>
        <pt x="304" y="-27" on="0"/>
        <pt x="273" y="-27" on="1"/>
        <pt x="240" y="-27" on="0"/>
        <pt x="181" y="-34" on="0"/>
        <pt x="116" y="-50" on="0"/>
        <pt x="78" y="-88" on="0"/>
      </contour>
    </TTGlyph>
    <TTGlyph name="germandbls" xMin="22" yMin="-12" xMax="508" yMax="718">
      <contour>
        <pt x="22" y="0" on="1"/>
        <pt x="22" y="24" on="1"/>
        <pt x="78" y="24" on="1"/>
        <pt x="87" y="24" on="0"/>
        <pt x="94" y="31" on="0"/>
        <pt x="94" y="40" on="1"/>
        <pt x="94" y="456" on="1"/>
        <pt x="94" y="512" on="0"/>
        <pt x="116" y="602" on="0"/>
        <pt x="154" y="660" on="0"/>
        <pt x="206" y="700" on="0"/>
        <pt x="261" y="718" on="0"/>
        <pt x="291" y="718" on="1"/>
        <pt x="368" y="718" on="0"/>
        <pt x="452" y="636" on="0"/>
        <pt x="452" y="576" on="1"/>
        <pt x="452" y="514" on="0"/>
        <pt x="382" y="444" on="0"/>
        <pt x="327" y="433" on="1"/>
        <pt x="327" y="428" on="1"/>
        <pt x="363" y="418" on="0"/>
        <pt x="424" y="386" on="0"/>
        <pt x="478" y="334" on="0"/>
        <pt x="508" y="252" on="0"/>
        <pt x="508" y="200" on="1"/>
        <pt x="508" y="140" on="0"/>
        <pt x="470" y="46" on="0"/>
        <pt x="392" y="-12" on="0"/>
        <pt x="338" y="-12" on="1"/>
        <pt x="288" y="-12" on="0"/>
        <pt x="222" y="42" on="0"/>
        <pt x="222" y="84" on="1"/>
        <pt x="222" y="112" on="0"/>
        <pt x="258" y="148" on="0"/>
        <pt x="282" y="148" on="1"/>
        <pt x="304" y="148" on="0"/>
        <pt x="328" y="120" on="0"/>
        <pt x="328" y="84" on="0"/>
        <pt x="311" y="67" on="1"/>
        <pt x="298" y="54" on="0"/>
        <pt x="298" y="40" on="1"/>
        <pt x="298" y="12" on="0"/>
        <pt x="335" y="12" on="1"/>
        <pt x="359" y="12" on="0"/>
        <pt x="380" y="104" on="0"/>
        <pt x="380" y="206" on="1"/>
        <pt x="380" y="259" on="0"/>
        <pt x="372" y="332" on="0"/>
        <pt x="352" y="388" on="0"/>
        <pt x="314" y="415" on="0"/>
        <pt x="286" y="415" on="1"/>
        <pt x="251" y="415" on="1"/>
        <pt x="251" y="444" on="1"/>
        <pt x="286" y="444" on="1"/>
        <pt x="302" y="444" on="0"/>
        <pt x="323" y="460" on="0"/>
        <pt x="334" y="482" on="0"/>
        <pt x="340" y="522" on="0"/>
        <pt x="342" y="554" on="0"/>
        <pt x="342" y="580" on="1"/>
        <pt x="342" y="634" on="0"/>
        <pt x="316" y="694" on="0"/>
        <pt x="282" y="694" on="1"/>
        <pt x="210" y="694" on="0"/>
        <pt x="210" y="513" on="1"/>
        <pt x="210" y="0" on="1"/>
      </contour>
    </TTGlyph>
    <TTGlyph name="grave" xMin="84" yMin="524" xMax="264" yMax="712">
      <contour>
        <pt x="84" y="672" on="1"/>
        <pt x="84" y="690" on="0"/>
        <pt x="108" y="712" on="0"/>
        <pt x="126" y="712" on="1"/>
        <pt x="154" y="712" on="0"/>
        <pt x="175" y="680" on="1"/>
        <pt x="264" y="542" on="1"/>
        <pt x="244" y="524" on="1"/>
        <pt x="112" y="624" on="1"/>
        <pt x="84" y="646" on="0"/>
      </contour>
    </TTGlyph>
    <TTGlyph name="greater" xMin="86" yMin="-156" xMax="856" yMax="700">
      <contour>
        <pt x="86" y="-100" on="1"/>
        <pt x="760" y="272" on="1"/>
        <pt x="86" y="644" on="1"/>
        <pt x="118" y="700" on="1"/>
        <pt x="856" y="292" on="1"/>
        <pt x="856" y="252" on="1"/>
        <pt x="118" y="-156" on="1"/>
      </contour>
    </TTGlyph>
    <TTGlyph name="guillemotleft" xMin="108" yMin="28" xMax="376" yMax="446">
      <contour>
        <pt x="265" y="237" on="1"/>
        <pt x="265" y="298" on="0"/>
        <pt x="315" y="386" on="0"/>
        <pt x="360" y="428" on="1"/>
        <pt x="376" y="412" on="1"/>
        <pt x="358" y="388" on="0"/>
        <pt x="340" y="325" on="0"/>
        <pt x="337" y="278" on="0"/>
        <pt x="337" y="196" on="0"/>
        <pt x="340" y="149" on="0"/>
        <pt x="358" y="86" on="0"/>
        <pt x="376" y="62" on="1"/>
        <pt x="360" y="46" on="1"/>
        <pt x="346" y="57" on="0"/>
        <pt x="318" y="91" on="0"/>
        <pt x="286" y="140" on="0"/>
        <pt x="265" y="204" on="0"/>
      </contour>
      <contour>
        <pt x="108" y="103" on="0"/>
        <pt x="108" y="371" on="0"/>
        <pt x="232" y="446" on="1"/>
        <pt x="248" y="430" on="1"/>
        <pt x="216" y="394" on="0"/>
        <pt x="196" y="322" on="0"/>
        <pt x="196" y="152" on="0"/>
        <pt x="216" y="80" on="0"/>
        <pt x="248" y="44" on="1"/>
        <pt x="232" y="28" on="1"/>
      </contour>
    </TTGlyph>
    <TTGlyph name="guillemotright" xMin="104" yMin="28" xMax="372" yMax="446">
      <contour>
        <pt x="104" y="62" on="1"/>
        <pt x="122" y="86" on="0"/>
        <pt x="140" y="149" on="0"/>
        <pt x="143" y="196" on="0"/>
        <pt x="143" y="278" on="0"/>
        <pt x="140" y="325" on="0"/>
        <pt x="122" y="388" on="0"/>
        <pt x="104" y="412" on="1"/>
        <pt x="120" y="428" on="1"/>
        <pt x="165" y="386" on="0"/>
        <pt x="215" y="298" on="0"/>
        <pt x="215" y="237" on="1"/>
        <pt x="215" y="204" on="0"/>
        <pt x="194" y="140" on="0"/>
        <pt x="162" y="91" on="0"/>
        <pt x="134" y="57" on="0"/>
        <pt x="120" y="46" on="1"/>
      </contour>
      <contour>
        <pt x="232" y="44" on="1"/>
        <pt x="264" y="80" on="0"/>
        <pt x="284" y="152" on="0"/>
        <pt x="284" y="322" on="0"/>
        <pt x="264" y="394" on="0"/>
        <pt x="232" y="430" on="1"/>
        <pt x="248" y="446" on="1"/>
        <pt x="372" y="371" on="0"/>
        <pt x="372" y="103" on="0"/>
        <pt x="248" y="28" on="1"/>
      </contour>
    </TTGlyph>
    <TTGlyph name="guilsinglleft" xMin="108" yMin="28" xMax="248" yMax="446">
      <contour>
        <pt x="108" y="103" on="0"/>
        <pt x="108" y="371" on="0"/>
        <pt x="232" y="446" on="1"/>
        <pt x="248" y="430" on="1"/>
        <pt x="216" y="394" on="0"/>
        <pt x="196" y="322" on="0"/>
        <pt x="196" y="152" on="0"/>
        <pt x="216" y="80" on="0"/>
        <pt x="248" y="44" on="1"/>
        <pt x="232" y="28" on="1"/>
      </contour>
    </TTGlyph>
    <TTGlyph name="guilsinglright" xMin="82" yMin="28" xMax="222" yMax="446">
      <contour>
        <pt x="82" y="44" on="1"/>
        <pt x="114" y="80" on="0"/>
        <pt x="134" y="152" on="0"/>
        <pt x="134" y="322" on="0"/>
        <pt x="114" y="394" on="0"/>
        <pt x="82" y="430" on="1"/>
        <pt x="98" y="446" on="1"/>
        <pt x="222" y="371" on="0"/>
        <pt x="222" y="103" on="0"/>
        <pt x="98" y="28" on="1"/>
      </contour>
    </TTGlyph>
    <TTGlyph name="h" xMin="26" yMin="0" xMax="528" yMax="712">
      <contour>
        <pt x="26" y="0" on="1"/>
        <pt x="26" y="24" on="1"/>
        <pt x="82" y="24" on="1"/>
        <pt x="91" y="24" on="0"/>
        <pt x="98" y="31" on="0"/>
        <pt x="98" y="40" on="1"/>
        <pt x="98" y="672" on="1"/>
        <pt x="98" y="681" on="0"/>
        <pt x="91" y="688" on="0"/>
        <pt x="82" y="688" on="1"/>
        <pt x="26" y="688" on="1"/>
        <pt x="26" y="712" on="1"/>
        <pt x="214" y="712" on="1"/>
        <pt x="214" y="385" on="1"/>
        <pt x="219" y="384" on="1"/>
        <pt x="239" y="430" on="0"/>
        <pt x="302" y="486" on="0"/>
        <pt x="343" y="486" on="1"/>
        <pt x="389" y="486" on="0"/>
        <pt x="420" y="464" on="1"/>
        <pt x="445" y="446" on="0"/>
        <pt x="474" y="382" on="0"/>
        <pt x="474" y="348" on="1"/>
        <pt x="474" y="40" on="1"/>
        <pt x="474" y="31" on="0"/>
        <pt x="481" y="24" on="0"/>
        <pt x="490" y="24" on="1"/>
        <pt x="528" y="24" on="1"/>
        <pt x="528" y="0" on="1"/>
        <pt x="310" y="0" on="1"/>
        <pt x="310" y="24" on="1"/>
        <pt x="342" y="24" on="1"/>
        <pt x="351" y="24" on="0"/>
        <pt x="358" y="31" on="0"/>
        <pt x="358" y="40" on="1"/>
        <pt x="358" y="377" on="1"/>
        <pt x="358" y="454" on="0"/>
        <pt x="312" y="454" on="1"/>
        <pt x="292" y="454" on="0"/>
        <pt x="246" y="401" on="0"/>
        <pt x="214" y="306" on="0"/>
        <pt x="214" y="254" on="1"/>
        <pt x="214" y="40" on="1"/>
        <pt x="214" y="31" on="0"/>
        <pt x="221" y="24" on="0"/>
        <pt x="230" y="24" on="1"/>
        <pt x="262" y="24" on="1"/>
        <pt x="262" y="0" on="1"/>
      </contour>
    </TTGlyph>
    <TTGlyph name="hyphen" xMin="56" yMin="208" xMax="314" yMax="310">
      <contour>
        <pt x="56" y="208" on="1"/>
        <pt x="56" y="310" on="1"/>
        <pt x="314" y="310" on="1"/>
        <pt x="314" y="208" on="1"/>
      </contour>
    </TTGlyph>
    <TTGlyph name="i" xMin="40" yMin="0" xMax="264" yMax="724">
      <component glyphName="dotlessi" x="0" y="0" flags="0x1004"/>
      <component glyphName="dotaccent" x="-68" y="32" flags="0x1004"/>
    </TTGlyph>
    <TTGlyph name="iacute" xMin="40" yMin="0" xMax="288" yMax="712">
      <component glyphName="dotlessi" x="0" y="0" flags="0x1004"/>
      <component glyphName="acute" x="-68" y="0" flags="0x1004"/>
    </TTGlyph>
    <TTGlyph name="icircumflex" xMin="2" yMin="0" xMax="302" yMax="708">
      <component glyphName="dotlessi" x="6" y="0" flags="0x1004"/>
      <component glyphName="circumflex" x="-68" y="0" flags="0x1004"/>
    </TTGlyph>
    <TTGlyph name="idieresis" xMin="8" yMin="0" xMax="296" yMax="682">
      <contour>
        <pt x="46" y="0" on="1"/>
        <pt x="46" y="24" on="1"/>
        <pt x="84" y="24" on="1"/>
        <pt x="93" y="24" on="0"/>
        <pt x="100" y="31" on="0"/>
        <pt x="100" y="40" on="1"/>
        <pt x="100" y="434" on="1"/>
        <pt x="100" y="443" on="0"/>
        <pt x="93" y="450" on="0"/>
        <pt x="84" y="450" on="1"/>
        <pt x="46" y="450" on="1"/>
        <pt x="46" y="474" on="1"/>
        <pt x="216" y="474" on="1"/>
        <pt x="216" y="40" on="1"/>
        <pt x="216" y="31" on="0"/>
        <pt x="223" y="24" on="0"/>
        <pt x="232" y="24" on="1"/>
        <pt x="270" y="24" on="1"/>
        <pt x="270" y="0" on="1"/>
      </contour>
      <contour>
        <pt x="168" y="591" on="0"/>
        <pt x="168" y="645" on="0"/>
        <pt x="205" y="682" on="0"/>
        <pt x="259" y="682" on="0"/>
        <pt x="296" y="645" on="0"/>
        <pt x="296" y="591" on="0"/>
        <pt x="259" y="554" on="0"/>
        <pt x="205" y="554" on="0"/>
      </contour>
      <contour>
        <pt x="8" y="591" on="0"/>
        <pt x="8" y="645" on="0"/>
        <pt x="45" y="682" on="0"/>
        <pt x="99" y="682" on="0"/>
        <pt x="136" y="645" on="0"/>
        <pt x="136" y="591" on="0"/>
        <pt x="99" y="554" on="0"/>
        <pt x="45" y="554" on="0"/>
      </contour>
    </TTGlyph>
    <TTGlyph name="igrave" xMin="16" yMin="0" xMax="264" yMax="712">
      <component glyphName="dotlessi" x="0" y="0" flags="0x1004"/>
      <component glyphName="grave" x="-68" y="0" flags="0x1004"/>
    </TTGlyph>
    <TTGlyph name="j" xMin="-52" yMin="-238" xMax="252" yMax="724">
      <contour>
        <pt x="-52" y="-126" on="1"/>
        <pt x="-52" y="-92" on="0"/>
        <pt x="-8" y="-47" on="0"/>
        <pt x="22" y="-47" on="1"/>
        <pt x="46" y="-47" on="0"/>
        <pt x="81" y="-75" on="0"/>
        <pt x="81" y="-100" on="1"/>
        <pt x="81" y="-131" on="0"/>
        <pt x="53" y="-156" on="1"/>
        <pt x="36" y="-172" on="0"/>
        <pt x="36" y="-188" on="1"/>
        <pt x="36" y="-202" on="0"/>
        <pt x="58" y="-214" on="0"/>
        <pt x="88" y="-214" on="0"/>
        <pt x="107" y="-194" on="0"/>
        <pt x="120" y="-134" on="0"/>
        <pt x="120" y="-82" on="1"/>
        <pt x="120" y="434" on="1"/>
        <pt x="120" y="443" on="0"/>
        <pt x="113" y="450" on="0"/>
        <pt x="104" y="450" on="1"/>
        <pt x="48" y="450" on="1"/>
        <pt x="48" y="474" on="1"/>
        <pt x="236" y="474" on="1"/>
        <pt x="236" y="-40" on="1"/>
        <pt x="236" y="-134" on="0"/>
        <pt x="143" y="-238" on="0"/>
        <pt x="77" y="-238" on="1"/>
        <pt x="20" y="-238" on="0"/>
        <pt x="-52" y="-176" on="0"/>
      </contour>
      <contour>
        <pt x="104" y="618" on="0"/>
        <pt x="104" y="682" on="0"/>
        <pt x="146" y="724" on="0"/>
        <pt x="210" y="724" on="0"/>
        <pt x="252" y="682" on="0"/>
        <pt x="252" y="618" on="0"/>
        <pt x="210" y="576" on="0"/>
        <pt x="146" y="576" on="0"/>
      </contour>
    </TTGlyph>
    <TTGlyph name="k" xMin="26" yMin="0" xMax="540" yMax="712">
      <contour>
        <pt x="26" y="0" on="1"/>
        <pt x="26" y="24" on="1"/>
        <pt x="82" y="24" on="1"/>
        <pt x="91" y="24" on="0"/>
        <pt x="98" y="31" on="0"/>
        <pt x="98" y="40" on="1"/>
        <pt x="98" y="672" on="1"/>
        <pt x="98" y="682" on="0"/>
        <pt x="92" y="688" on="0"/>
        <pt x="82" y="688" on="1"/>
        <pt x="26" y="688" on="1"/>
        <pt x="26" y="712" on="1"/>
        <pt x="214" y="712" on="1"/>
        <pt x="214" y="213" on="1"/>
        <pt x="344" y="376" on="1"/>
        <pt x="364" y="400" on="0"/>
        <pt x="364" y="421" on="1"/>
        <pt x="364" y="434" on="0"/>
        <pt x="348" y="449" on="0"/>
        <pt x="336" y="449" on="1"/>
        <pt x="306" y="449" on="1"/>
        <pt x="306" y="474" on="1"/>
        <pt x="497" y="474" on="1"/>
        <pt x="497" y="449" on="1"/>
        <pt x="474" y="449" on="1"/>
        <pt x="450" y="449" on="0"/>
        <pt x="412" y="418" on="0"/>
        <pt x="385" y="384" on="1"/>
        <pt x="326" y="310" on="1"/>
        <pt x="482" y="57" on="1"/>
        <pt x="492" y="40" on="0"/>
        <pt x="508" y="24" on="0"/>
        <pt x="519" y="24" on="1"/>
        <pt x="540" y="24" on="1"/>
        <pt x="540" y="0" on="1"/>
        <pt x="309" y="0" on="1"/>
        <pt x="309" y="24" on="1"/>
        <pt x="327" y="24" on="1"/>
        <pt x="336" y="24" on="0"/>
        <pt x="352" y="34" on="0"/>
        <pt x="352" y="46" on="1"/>
        <pt x="352" y="70" on="0"/>
        <pt x="338" y="92" on="1"/>
        <pt x="257" y="224" on="1"/>
        <pt x="214" y="171" on="1"/>
        <pt x="214" y="40" on="1"/>
        <pt x="214" y="31" on="0"/>
        <pt x="222" y="24" on="0"/>
        <pt x="232" y="24" on="1"/>
        <pt x="268" y="24" on="1"/>
        <pt x="268" y="0" on="1"/>
      </contour>
    </TTGlyph>
    <TTGlyph name="l" xMin="26" yMin="0" xMax="286" yMax="712">
      <contour>
        <pt x="26" y="0" on="1"/>
        <pt x="26" y="24" on="1"/>
        <pt x="82" y="24" on="1"/>
        <pt x="91" y="24" on="0"/>
        <pt x="98" y="31" on="0"/>
        <pt x="98" y="40" on="1"/>
        <pt x="98" y="672" on="1"/>
        <pt x="98" y="681" on="0"/>
        <pt x="91" y="688" on="0"/>
        <pt x="82" y="688" on="1"/>
        <pt x="26" y="688" on="1"/>
        <pt x="26" y="712" on="1"/>
        <pt x="214" y="712" on="1"/>
        <pt x="214" y="40" on="1"/>
        <pt x="214" y="31" on="0"/>
        <pt x="221" y="24" on="0"/>
        <pt x="230" y="24" on="1"/>
        <pt x="286" y="24" on="1"/>
        <pt x="286" y="0" on="1"/>
      </contour>
    </TTGlyph>
    <TTGlyph name="less" xMin="84" yMin="-156" xMax="854" yMax="700">
      <contour>
        <pt x="84" y="252" on="1"/>
        <pt x="84" y="292" on="1"/>
        <pt x="822" y="700" on="1"/>
        <pt x="854" y="644" on="1"/>
        <pt x="180" y="272" on="1"/>
        <pt x="854" y="-100" on="1"/>
        <pt x="822" y="-156" on="1"/>
      </contour>
    </TTGlyph>
    <TTGlyph name="logicalnot" xMin="40" yMin="137" xMax="540" yMax="409">
      <contour>
        <pt x="40" y="345" on="1"/>
        <pt x="40" y="409" on="1"/>
        <pt x="540" y="409" on="1"/>
        <pt x="540" y="137" on="1"/>
        <pt x="472" y="137" on="1"/>
        <pt x="472" y="345" on="1"/>
      </contour>
    </TTGlyph>
    <TTGlyph name="m" xMin="40" yMin="0" xMax="768" yMax="486">
      <contour>
        <pt x="40" y="0" on="1"/>
        <pt x="40" y="24" on="1"/>
        <pt x="78" y="24" on="1"/>
        <pt x="87" y="24" on="0"/>
        <pt x="94" y="31" on="0"/>
        <pt x="94" y="40" on="1"/>
        <pt x="94" y="434" on="1"/>
        <pt x="94" y="443" on="0"/>
        <pt x="87" y="450" on="0"/>
        <pt x="78" y="450" on="1"/>
        <pt x="40" y="450" on="1"/>
        <pt x="40" y="474" on="1"/>
        <pt x="210" y="474" on="1"/>
        <pt x="210" y="375" on="1"/>
        <pt x="215" y="374" on="1"/>
        <pt x="260" y="486" on="0"/>
        <pt x="340" y="486" on="1"/>
        <pt x="366" y="486" on="0"/>
        <pt x="408" y="471" on="0"/>
        <pt x="432" y="450" on="0"/>
        <pt x="450" y="418" on="0"/>
        <pt x="456" y="393" on="0"/>
        <pt x="460" y="376" on="1"/>
        <pt x="465" y="376" on="1"/>
        <pt x="484" y="426" on="0"/>
        <pt x="546" y="486" on="0"/>
        <pt x="583" y="486" on="1"/>
        <pt x="629" y="486" on="0"/>
        <pt x="660" y="464" on="1"/>
        <pt x="685" y="446" on="0"/>
        <pt x="714" y="382" on="0"/>
        <pt x="714" y="348" on="1"/>
        <pt x="714" y="40" on="1"/>
        <pt x="714" y="31" on="0"/>
        <pt x="721" y="24" on="0"/>
        <pt x="730" y="24" on="1"/>
        <pt x="768" y="24" on="1"/>
        <pt x="768" y="0" on="1"/>
        <pt x="550" y="0" on="1"/>
        <pt x="550" y="24" on="1"/>
        <pt x="582" y="24" on="1"/>
        <pt x="591" y="24" on="0"/>
        <pt x="598" y="31" on="0"/>
        <pt x="598" y="40" on="1"/>
        <pt x="598" y="377" on="1"/>
        <pt x="598" y="454" on="0"/>
        <pt x="552" y="454" on="1"/>
        <pt x="520" y="454" on="0"/>
        <pt x="462" y="333" on="0"/>
        <pt x="462" y="254" on="1"/>
        <pt x="462" y="40" on="1"/>
        <pt x="462" y="31" on="0"/>
        <pt x="469" y="24" on="0"/>
        <pt x="478" y="24" on="1"/>
        <pt x="510" y="24" on="1"/>
        <pt x="510" y="0" on="1"/>
        <pt x="298" y="0" on="1"/>
        <pt x="298" y="24" on="1"/>
        <pt x="330" y="24" on="1"/>
        <pt x="339" y="24" on="0"/>
        <pt x="346" y="31" on="0"/>
        <pt x="346" y="40" on="1"/>
        <pt x="346" y="395" on="1"/>
        <pt x="346" y="410" on="0"/>
        <pt x="344" y="427" on="0"/>
        <pt x="337" y="446" on="0"/>
        <pt x="321" y="454" on="0"/>
        <pt x="308" y="454" on="1"/>
        <pt x="287" y="454" on="0"/>
        <pt x="242" y="400" on="0"/>
        <pt x="210" y="306" on="0"/>
        <pt x="210" y="254" on="1"/>
        <pt x="210" y="40" on="1"/>
        <pt x="210" y="31" on="0"/>
        <pt x="217" y="24" on="0"/>
        <pt x="226" y="24" on="1"/>
        <pt x="258" y="24" on="1"/>
        <pt x="258" y="0" on="1"/>
      </contour>
    </TTGlyph>
    <TTGlyph name="mu1" xMin="60" yMin="-282" xMax="572" yMax="484">
      <component glyphName="mugreek" x="0" y="0" flags="0x1004"/>
    </TTGlyph>
    <TTGlyph name="mugreek" xMin="60" yMin="-282" xMax="572" yMax="484">
      <contour>
        <pt x="60" y="354" on="1"/>
        <pt x="60" y="404" on="0"/>
        <pt x="102" y="484" on="0"/>
        <pt x="135" y="484" on="1"/>
        <pt x="156" y="484" on="0"/>
        <pt x="185" y="452" on="0"/>
        <pt x="196" y="410" on="0"/>
        <pt x="196" y="389" on="1"/>
        <pt x="196" y="333" on="0"/>
        <pt x="174" y="259" on="1"/>
        <pt x="150" y="179" on="0"/>
        <pt x="138" y="107" on="1"/>
        <pt x="158" y="49" on="0"/>
        <pt x="239" y="49" on="1"/>
        <pt x="264" y="49" on="0"/>
        <pt x="312" y="76" on="0"/>
        <pt x="340" y="112" on="0"/>
        <pt x="358" y="148" on="0"/>
        <pt x="358" y="158" on="1"/>
        <pt x="326" y="251" on="0"/>
        <pt x="326" y="362" on="1"/>
        <pt x="326" y="389" on="0"/>
        <pt x="337" y="442" on="0"/>
        <pt x="368" y="484" on="0"/>
        <pt x="390" y="484" on="1"/>
        <pt x="422" y="484" on="0"/>
        <pt x="462" y="409" on="0"/>
        <pt x="462" y="355" on="1"/>
        <pt x="462" y="302" on="0"/>
        <pt x="434" y="166" on="0"/>
        <pt x="410" y="115" on="1"/>
        <pt x="434" y="91" on="0"/>
        <pt x="460" y="91" on="1"/>
        <pt x="496" y="91" on="0"/>
        <pt x="540" y="141" on="0"/>
        <pt x="554" y="192" on="1"/>
        <pt x="572" y="188" on="1"/>
        <pt x="572" y="152" on="0"/>
        <pt x="565" y="89" on="0"/>
        <pt x="548" y="24" on="0"/>
        <pt x="511" y="-15" on="0"/>
        <pt x="485" y="-15" on="1"/>
        <pt x="470" y="-15" on="0"/>
        <pt x="444" y="-4" on="0"/>
        <pt x="426" y="11" on="0"/>
        <pt x="408" y="37" on="0"/>
        <pt x="399" y="56" on="0"/>
        <pt x="392" y="72" on="1"/>
        <pt x="387" y="71" on="1"/>
        <pt x="370" y="40" on="0"/>
        <pt x="304" y="-10" on="0"/>
        <pt x="265" y="-10" on="1"/>
        <pt x="192" y="-10" on="0"/>
        <pt x="134" y="53" on="1"/>
        <pt x="131" y="52" on="1"/>
        <pt x="128" y="31" on="0"/>
        <pt x="128" y="16" on="1"/>
        <pt x="128" y="-4" on="0"/>
        <pt x="140" y="-48" on="0"/>
        <pt x="154" y="-76" on="0"/>
        <pt x="166" y="-100" on="1"/>
        <pt x="180" y="-126" on="0"/>
        <pt x="194" y="-156" on="0"/>
        <pt x="207" y="-196" on="0"/>
        <pt x="207" y="-211" on="1"/>
        <pt x="207" y="-239" on="0"/>
        <pt x="176" y="-282" on="0"/>
        <pt x="146" y="-282" on="1"/>
        <pt x="110" y="-282" on="0"/>
        <pt x="74" y="-224" on="0"/>
        <pt x="74" y="-185" on="1"/>
        <pt x="74" y="-108" on="0"/>
        <pt x="94" y="-21" on="1"/>
        <pt x="105" y="33" on="0"/>
        <pt x="109" y="92" on="1"/>
        <pt x="60" y="234" on="0"/>
      </contour>
    </TTGlyph>
    <TTGlyph name="multiply" xMin="144" yMin="-60" xMax="796" yMax="590">
      <contour>
        <pt x="144" y="-15" on="1"/>
        <pt x="424" y="265" on="1"/>
        <pt x="144" y="545" on="1"/>
        <pt x="190" y="590" on="1"/>
        <pt x="470" y="310" on="1"/>
        <pt x="750" y="590" on="1"/>
        <pt x="796" y="545" on="1"/>
        <pt x="516" y="265" on="1"/>
        <pt x="796" y="-15" on="1"/>
        <pt x="750" y="-60" on="1"/>
        <pt x="470" y="220" on="1"/>
        <pt x="190" y="-60" on="1"/>
      </contour>
    </TTGlyph>
    <TTGlyph name="n" xMin="40" yMin="0" xMax="524" yMax="486">
      <contour>
        <pt x="40" y="0" on="1"/>
        <pt x="40" y="24" on="1"/>
        <pt x="78" y="24" on="1"/>
        <pt x="87" y="24" on="0"/>
        <pt x="94" y="31" on="0"/>
        <pt x="94" y="40" on="1"/>
        <pt x="94" y="434" on="1"/>
        <pt x="94" y="443" on="0"/>
        <pt x="87" y="450" on="0"/>
        <pt x="78" y="450" on="1"/>
        <pt x="40" y="450" on="1"/>
        <pt x="40" y="474" on="1"/>
        <pt x="210" y="474" on="1"/>
        <pt x="210" y="385" on="1"/>
        <pt x="215" y="384" on="1"/>
        <pt x="235" y="430" on="0"/>
        <pt x="298" y="486" on="0"/>
        <pt x="339" y="486" on="1"/>
        <pt x="385" y="486" on="0"/>
        <pt x="416" y="464" on="1"/>
        <pt x="441" y="446" on="0"/>
        <pt x="470" y="382" on="0"/>
        <pt x="470" y="348" on="1"/>
        <pt x="470" y="40" on="1"/>
        <pt x="470" y="31" on="0"/>
        <pt x="477" y="24" on="0"/>
        <pt x="486" y="24" on="1"/>
        <pt x="524" y="24" on="1"/>
        <pt x="524" y="0" on="1"/>
        <pt x="306" y="0" on="1"/>
        <pt x="306" y="24" on="1"/>
        <pt x="338" y="24" on="1"/>
        <pt x="347" y="24" on="0"/>
        <pt x="354" y="31" on="0"/>
        <pt x="354" y="40" on="1"/>
        <pt x="354" y="377" on="1"/>
        <pt x="354" y="454" on="0"/>
        <pt x="308" y="454" on="1"/>
        <pt x="288" y="454" on="0"/>
        <pt x="242" y="401" on="0"/>
        <pt x="210" y="306" on="0"/>
        <pt x="210" y="254" on="1"/>
        <pt x="210" y="40" on="1"/>
        <pt x="210" y="31" on="0"/>
        <pt x="217" y="24" on="0"/>
        <pt x="226" y="24" on="1"/>
        <pt x="258" y="24" on="1"/>
        <pt x="258" y="0" on="1"/>
      </contour>
    </TTGlyph>
    <TTGlyph name="nine" xMin="66" yMin="-16" xMax="528" yMax="728">
      <contour>
        <pt x="214" y="512" on="1"/>
        <pt x="214" y="474" on="0"/>
        <pt x="219" y="417" on="0"/>
        <pt x="232" y="360" on="0"/>
        <pt x="258" y="330" on="0"/>
        <pt x="278" y="330" on="1"/>
        <pt x="332" y="330" on="0"/>
        <pt x="352" y="372" on="1"/>
        <pt x="368" y="404" on="0"/>
        <pt x="368" y="517" on="1"/>
        <pt x="368" y="608" on="0"/>
        <pt x="330" y="696" on="0"/>
        <pt x="287" y="696" on="1"/>
        <pt x="272" y="696" on="0"/>
        <pt x="248" y="685" on="0"/>
        <pt x="234" y="670" on="0"/>
        <pt x="223" y="640" on="0"/>
        <pt x="218" y="614" on="0"/>
        <pt x="214" y="569" on="0"/>
        <pt x="214" y="539" on="0"/>
      </contour>
      <contour>
        <pt x="66" y="502" on="1"/>
        <pt x="66" y="544" on="0"/>
        <pt x="92" y="622" on="0"/>
        <pt x="142" y="688" on="0"/>
        <pt x="230" y="728" on="0"/>
        <pt x="286" y="728" on="1"/>
        <pt x="360" y="728" on="0"/>
        <pt x="472" y="630" on="0"/>
        <pt x="528" y="470" on="0"/>
        <pt x="528" y="373" on="1"/>
        <pt x="528" y="258" on="0"/>
        <pt x="464" y="82" on="0"/>
        <pt x="341" y="-16" on="0"/>
        <pt x="258" y="-16" on="1"/>
        <pt x="188" y="-16" on="0"/>
        <pt x="108" y="65" on="0"/>
        <pt x="108" y="120" on="1"/>
        <pt x="108" y="163" on="0"/>
        <pt x="158" y="223" on="0"/>
        <pt x="198" y="223" on="1"/>
        <pt x="228" y="223" on="0"/>
        <pt x="265" y="186" on="0"/>
        <pt x="265" y="156" on="1"/>
        <pt x="265" y="110" on="0"/>
        <pt x="220" y="94" on="1"/>
        <pt x="200" y="87" on="0"/>
        <pt x="180" y="73" on="0"/>
        <pt x="180" y="62" on="1"/>
        <pt x="180" y="42" on="0"/>
        <pt x="222" y="16" on="0"/>
        <pt x="259" y="16" on="1"/>
        <pt x="297" y="16" on="0"/>
        <pt x="348" y="66" on="0"/>
        <pt x="368" y="136" on="0"/>
        <pt x="368" y="179" on="1"/>
        <pt x="368" y="322" on="1"/>
        <pt x="362" y="325" on="1"/>
        <pt x="329" y="292" on="0"/>
        <pt x="265" y="292" on="1"/>
        <pt x="214" y="292" on="0"/>
        <pt x="136" y="325" on="0"/>
        <pt x="90" y="384" on="0"/>
        <pt x="66" y="458" on="0"/>
      </contour>
    </TTGlyph>
    <TTGlyph name="ntilde" xMin="40" yMin="0" xMax="524" yMax="676">
      <component glyphName="n" x="0" y="0" flags="0x1004"/>
      <component glyphName="tilde" x="58" y="0" flags="0x1004"/>
    </TTGlyph>
    <TTGlyph name="numbersign" xMin="66" yMin="0" xMax="646" yMax="712">
      <contour>
        <pt x="66" y="182" on="1"/>
        <pt x="66" y="246" on="1"/>
        <pt x="189" y="246" on="1"/>
        <pt x="223" y="464" on="1"/>
        <pt x="72" y="464" on="1"/>
        <pt x="72" y="528" on="1"/>
        <pt x="233" y="528" on="1"/>
        <pt x="262" y="712" on="1"/>
        <pt x="328" y="712" on="1"/>
        <pt x="299" y="528" on="1"/>
        <pt x="465" y="528" on="1"/>
        <pt x="494" y="712" on="1"/>
        <pt x="560" y="712" on="1"/>
        <pt x="531" y="528" on="1"/>
        <pt x="646" y="528" on="1"/>
        <pt x="646" y="464" on="1"/>
        <pt x="521" y="464" on="1"/>
        <pt x="487" y="246" on="1"/>
        <pt x="637" y="246" on="1"/>
        <pt x="637" y="182" on="1"/>
        <pt x="477" y="182" on="1"/>
        <pt x="448" y="0" on="1"/>
        <pt x="382" y="0" on="1"/>
        <pt x="410" y="182" on="1"/>
        <pt x="245" y="182" on="1"/>
        <pt x="216" y="0" on="1"/>
        <pt x="150" y="0" on="1"/>
        <pt x="179" y="182" on="1"/>
      </contour>
      <contour>
        <pt x="255" y="246" on="1"/>
        <pt x="421" y="246" on="1"/>
        <pt x="455" y="464" on="1"/>
        <pt x="289" y="464" on="1"/>
      </contour>
    </TTGlyph>
    <TTGlyph name="o" xMin="48" yMin="-12" xMax="456" yMax="486">
      <contour>
        <pt x="176" y="356" on="0"/>
        <pt x="176" y="118" on="0"/>
        <pt x="208" y="12" on="0"/>
        <pt x="296" y="12" on="0"/>
        <pt x="328" y="118" on="0"/>
        <pt x="328" y="356" on="0"/>
        <pt x="296" y="462" on="0"/>
        <pt x="208" y="462" on="0"/>
      </contour>
      <contour>
        <pt x="48" y="184" on="0"/>
        <pt x="48" y="290" on="0"/>
        <pt x="82" y="383" on="0"/>
        <pt x="138" y="448" on="0"/>
        <pt x="212" y="486" on="0"/>
        <pt x="292" y="486" on="0"/>
        <pt x="366" y="448" on="0"/>
        <pt x="422" y="383" on="0"/>
        <pt x="456" y="290" on="0"/>
        <pt x="456" y="184" on="0"/>
        <pt x="422" y="91" on="0"/>
        <pt x="366" y="26" on="0"/>
        <pt x="292" y="-12" on="0"/>
        <pt x="212" y="-12" on="0"/>
        <pt x="138" y="26" on="0"/>
        <pt x="82" y="91" on="0"/>
      </contour>
    </TTGlyph>
    <TTGlyph name="oacute" xMin="48" yMin="-12" xMax="456" yMax="712">
      <component glyphName="o" x="0" y="0" flags="0x1004"/>
      <component glyphName="acute" x="32" y="0" flags="0x1004"/>
    </TTGlyph>
    <TTGlyph name="ocircumflex" xMin="48" yMin="-12" xMax="456" yMax="708">
      <component glyphName="o" x="0" y="0" flags="0x1004"/>
      <component glyphName="circumflex" x="32" y="0" flags="0x1004"/>
    </TTGlyph>
    <TTGlyph name="odieresis" xMin="48" yMin="-12" xMax="456" yMax="682">
      <component glyphName="o" x="0" y="0" flags="0x1004"/>
      <component glyphName="dieresis" x="32" y="0" flags="0x1004"/>
    </TTGlyph>
    <TTGlyph name="ograve" xMin="48" yMin="-12" xMax="456" yMax="712">
      <component glyphName="o" x="0" y="0" flags="0x1004"/>
      <component glyphName="grave" x="32" y="0" flags="0x1004"/>
    </TTGlyph>
    <TTGlyph name="one" xMin="120" yMin="0" xMax="460" yMax="712">
      <contour>
        <pt x="120" y="0" on="1"/>
        <pt x="120" y="32" on="1"/>
        <pt x="192" y="32" on="1"/>
        <pt x="206" y="32" on="0"/>
        <pt x="216" y="42" on="0"/>
        <pt x="216" y="56" on="1"/>
        <pt x="216" y="603" on="1"/>
        <pt x="120" y="603" on="1"/>
        <pt x="120" y="639" on="1"/>
        <pt x="157" y="639" on="1"/>
        <pt x="200" y="639" on="0"/>
        <pt x="276" y="677" on="0"/>
        <pt x="289" y="712" on="1"/>
        <pt x="364" y="712" on="1"/>
        <pt x="364" y="56" on="1"/>
        <pt x="364" y="42" on="0"/>
        <pt x="374" y="32" on="0"/>
        <pt x="388" y="32" on="1"/>
        <pt x="460" y="32" on="1"/>
        <pt x="460" y="0" on="1"/>
      </contour>
    </TTGlyph>
    <TTGlyph name="onehalf" xMin="106" yMin="-18" xMax="830" yMax="730">
      <component glyphName="uni2215" x="180" y="0" flags="0x1004"/>
      <component glyphName="onesuperior" x="0" y="0" flags="0x1004"/>
      <component glyphName="twosuperior" x="460" y="-286" flags="0x1004"/>
    </TTGlyph>
    <TTGlyph name="onequarter" xMin="106" yMin="-18" xMax="846" yMax="730">
      <component glyphName="uni2215" x="180" y="0" flags="0x1004"/>
      <component glyphName="onesuperior" x="0" y="0" flags="0x1004"/>
      <component glyphName="foursuperior" x="460" y="-286" flags="0x1004"/>
    </TTGlyph>
    <TTGlyph name="onesuperior" xMin="106" yMin="286" xMax="334" yMax="712">
      <contour>
        <pt x="106" y="286" on="1"/>
        <pt x="106" y="310" on="1"/>
        <pt x="150" y="310" on="1"/>
        <pt x="159" y="310" on="0"/>
        <pt x="166" y="317" on="0"/>
        <pt x="166" y="326" on="1"/>
        <pt x="166" y="636" on="1"/>
        <pt x="106" y="636" on="1"/>
        <pt x="106" y="664" on="1"/>
        <pt x="133" y="664" on="1"/>
        <pt x="161" y="664" on="0"/>
        <pt x="210" y="689" on="0"/>
        <pt x="219" y="712" on="1"/>
        <pt x="274" y="712" on="1"/>
        <pt x="274" y="326" on="1"/>
        <pt x="274" y="317" on="0"/>
        <pt x="281" y="310" on="0"/>
        <pt x="290" y="310" on="1"/>
        <pt x="334" y="310" on="1"/>
        <pt x="334" y="286" on="1"/>
      </contour>
    </TTGlyph>
    <TTGlyph name="ordfeminine" xMin="44" yMin="354" xMax="336" yMax="712">
      <contour>
        <pt x="52" y="354" on="1"/>
        <pt x="52" y="386" on="1"/>
        <pt x="328" y="386" on="1"/>
        <pt x="328" y="354" on="1"/>
      </contour>
      <contour>
        <pt x="132" y="490" on="1"/>
        <pt x="132" y="462" on="0"/>
        <pt x="150" y="440" on="0"/>
        <pt x="162" y="440" on="1"/>
        <pt x="184" y="440" on="0"/>
        <pt x="198" y="463" on="1"/>
        <pt x="198" y="581" on="1"/>
        <pt x="170" y="571" on="1"/>
        <pt x="132" y="557" on="0"/>
      </contour>
      <contour>
        <pt x="44" y="483" on="1"/>
        <pt x="44" y="501" on="0"/>
        <pt x="60" y="531" on="0"/>
        <pt x="80" y="550" on="0"/>
        <pt x="116" y="569" on="0"/>
        <pt x="139" y="578" on="0"/>
        <pt x="159" y="585" on="1"/>
        <pt x="198" y="599" on="1"/>
        <pt x="198" y="639" on="1"/>
        <pt x="198" y="694" on="0"/>
        <pt x="156" y="694" on="1"/>
        <pt x="139" y="694" on="0"/>
        <pt x="114" y="680" on="0"/>
        <pt x="114" y="667" on="1"/>
        <pt x="114" y="656" on="0"/>
        <pt x="125" y="650" on="1"/>
        <pt x="143" y="640" on="0"/>
        <pt x="143" y="624" on="1"/>
        <pt x="143" y="610" on="0"/>
        <pt x="120" y="594" on="0"/>
        <pt x="104" y="594" on="1"/>
        <pt x="86" y="594" on="0"/>
        <pt x="60" y="616" on="0"/>
        <pt x="60" y="635" on="1"/>
        <pt x="60" y="670" on="0"/>
        <pt x="124" y="712" on="0"/>
        <pt x="163" y="712" on="1"/>
        <pt x="186" y="712" on="0"/>
        <pt x="226" y="702" on="0"/>
        <pt x="261" y="684" on="0"/>
        <pt x="282" y="648" on="0"/>
        <pt x="282" y="625" on="1"/>
        <pt x="282" y="467" on="1"/>
        <pt x="282" y="446" on="0"/>
        <pt x="295" y="446" on="1"/>
        <pt x="306" y="446" on="0"/>
        <pt x="316" y="481" on="0"/>
        <pt x="316" y="504" on="1"/>
        <pt x="336" y="504" on="1"/>
        <pt x="336" y="457" on="0"/>
        <pt x="321" y="435" on="1"/>
        <pt x="305" y="410" on="0"/>
        <pt x="268" y="410" on="1"/>
        <pt x="242" y="410" on="0"/>
        <pt x="212" y="428" on="0"/>
        <pt x="201" y="447" on="1"/>
        <pt x="200" y="447" on="1"/>
        <pt x="190" y="431" on="0"/>
        <pt x="153" y="410" on="0"/>
        <pt x="130" y="410" on="1"/>
        <pt x="114" y="410" on="0"/>
        <pt x="86" y="417" on="0"/>
        <pt x="60" y="432" on="0"/>
        <pt x="44" y="462" on="0"/>
      </contour>
    </TTGlyph>
    <TTGlyph name="ordmasculine" xMin="56" yMin="354" xMax="324" yMax="712">
      <contour>
        <pt x="56" y="354" on="1"/>
        <pt x="56" y="386" on="1"/>
        <pt x="324" y="386" on="1"/>
        <pt x="324" y="354" on="1"/>
      </contour>
      <contour>
        <pt x="148" y="629" on="0"/>
        <pt x="148" y="493" on="0"/>
        <pt x="164" y="428" on="0"/>
        <pt x="190" y="428" on="1"/>
        <pt x="215" y="428" on="0"/>
        <pt x="232" y="494" on="0"/>
        <pt x="232" y="628" on="0"/>
        <pt x="215" y="694" on="0"/>
        <pt x="190" y="694" on="1"/>
        <pt x="164" y="694" on="0"/>
      </contour>
      <contour>
        <pt x="56" y="498" on="0"/>
        <pt x="56" y="624" on="0"/>
        <pt x="134" y="712" on="0"/>
        <pt x="246" y="712" on="0"/>
        <pt x="324" y="624" on="0"/>
        <pt x="324" y="498" on="0"/>
        <pt x="246" y="410" on="0"/>
        <pt x="134" y="410" on="0"/>
      </contour>
    </TTGlyph>
    <TTGlyph name="oslash" xMin="48" yMin="-12" xMax="456" yMax="486">
      <contour>
        <pt x="48" y="6" on="1"/>
        <pt x="100" y="71" on="1"/>
        <pt x="48" y="141" on="0"/>
        <pt x="48" y="237" on="1"/>
        <pt x="48" y="290" on="0"/>
        <pt x="82" y="383" on="0"/>
        <pt x="138" y="448" on="0"/>
        <pt x="212" y="486" on="0"/>
        <pt x="252" y="486" on="1"/>
        <pt x="328" y="486" on="0"/>
        <pt x="385" y="426" on="1"/>
        <pt x="434" y="486" on="1"/>
        <pt x="456" y="468" on="1"/>
        <pt x="404" y="403" on="1"/>
        <pt x="456" y="333" on="0"/>
        <pt x="456" y="237" on="1"/>
        <pt x="456" y="184" on="0"/>
        <pt x="422" y="91" on="0"/>
        <pt x="366" y="26" on="0"/>
        <pt x="292" y="-12" on="0"/>
        <pt x="252" y="-12" on="1"/>
        <pt x="176" y="-12" on="0"/>
        <pt x="119" y="48" on="1"/>
        <pt x="70" y="-12" on="1"/>
      </contour>
      <contour>
        <pt x="180" y="125" on="1"/>
        <pt x="186" y="67" on="0"/>
        <pt x="220" y="12" on="0"/>
        <pt x="252" y="12" on="1"/>
        <pt x="296" y="12" on="0"/>
        <pt x="328" y="118" on="0"/>
        <pt x="328" y="237" on="1"/>
        <pt x="328" y="286" on="0"/>
        <pt x="327" y="307" on="1"/>
      </contour>
      <contour>
        <pt x="176" y="237" on="1"/>
        <pt x="176" y="188" on="0"/>
        <pt x="177" y="167" on="1"/>
        <pt x="323" y="348" on="1"/>
        <pt x="317" y="407" on="0"/>
        <pt x="284" y="462" on="0"/>
        <pt x="252" y="462" on="1"/>
        <pt x="208" y="462" on="0"/>
        <pt x="176" y="357" on="0"/>
      </contour>
    </TTGlyph>
    <TTGlyph name="otilde" xMin="48" yMin="-12" xMax="456" yMax="676">
      <component glyphName="o" x="0" y="0" flags="0x1004"/>
      <component glyphName="tilde" x="32" y="0" flags="0x1004"/>
    </TTGlyph>
    <TTGlyph name="p" xMin="28" yMin="-228" xMax="496" yMax="486">
      <contour>
        <pt x="216" y="240" on="1"/>
        <pt x="216" y="184" on="0"/>
        <pt x="234" y="96" on="0"/>
        <pt x="260" y="46" on="0"/>
        <pt x="289" y="20" on="0"/>
        <pt x="302" y="20" on="1"/>
        <pt x="368" y="20" on="0"/>
        <pt x="368" y="454" on="0"/>
        <pt x="302" y="454" on="1"/>
        <pt x="279" y="454" on="0"/>
        <pt x="240" y="398" on="0"/>
        <pt x="216" y="298" on="0"/>
      </contour>
      <contour>
        <pt x="28" y="-204" on="1"/>
        <pt x="84" y="-204" on="1"/>
        <pt x="93" y="-204" on="0"/>
        <pt x="100" y="-197" on="0"/>
        <pt x="100" y="-188" on="1"/>
        <pt x="100" y="434" on="1"/>
        <pt x="100" y="443" on="0"/>
        <pt x="93" y="450" on="0"/>
        <pt x="84" y="450" on="1"/>
        <pt x="28" y="450" on="1"/>
        <pt x="28" y="474" on="1"/>
        <pt x="216" y="474" on="1"/>
        <pt x="216" y="416" on="1"/>
        <pt x="222" y="416" on="1"/>
        <pt x="236" y="444" on="0"/>
        <pt x="284" y="486" on="0"/>
        <pt x="316" y="486" on="1"/>
        <pt x="368" y="486" on="0"/>
        <pt x="452" y="414" on="0"/>
        <pt x="496" y="300" on="0"/>
        <pt x="496" y="174" on="0"/>
        <pt x="454" y="60" on="0"/>
        <pt x="372" y="-12" on="0"/>
        <pt x="320" y="-12" on="1"/>
        <pt x="288" y="-12" on="0"/>
        <pt x="238" y="26" on="0"/>
        <pt x="222" y="59" on="1"/>
        <pt x="216" y="57" on="1"/>
        <pt x="216" y="-188" on="1"/>
        <pt x="216" y="-197" on="0"/>
        <pt x="223" y="-204" on="0"/>
        <pt x="232" y="-204" on="1"/>
        <pt x="288" y="-204" on="1"/>
        <pt x="288" y="-228" on="1"/>
        <pt x="28" y="-228" on="1"/>
      </contour>
    </TTGlyph>
    <TTGlyph name="paragraph" xMin="56" yMin="-156" xMax="544" yMax="712">
      <contour>
        <pt x="56" y="510" on="1"/>
        <pt x="56" y="597" on="0"/>
        <pt x="172" y="712" on="0"/>
        <pt x="258" y="712" on="1"/>
        <pt x="544" y="712" on="1"/>
        <pt x="544" y="678" on="1"/>
        <pt x="474" y="678" on="1"/>
        <pt x="474" y="-156" on="1"/>
        <pt x="406" y="-156" on="1"/>
        <pt x="406" y="678" on="1"/>
        <pt x="326" y="678" on="1"/>
        <pt x="326" y="-156" on="1"/>
        <pt x="258" y="-156" on="1"/>
        <pt x="258" y="321" on="1"/>
        <pt x="170" y="321" on="0"/>
        <pt x="56" y="425" on="0"/>
      </contour>
    </TTGlyph>
    <TTGlyph name="parenleft" xMin="60" yMin="-198" xMax="354" yMax="730">
      <contour>
        <pt x="60" y="122" on="0"/>
        <pt x="60" y="410" on="0"/>
        <pt x="204" y="644" on="0"/>
        <pt x="338" y="730" on="1"/>
        <pt x="354" y="704" on="1"/>
        <pt x="265" y="633" on="0"/>
        <pt x="196" y="501" on="0"/>
        <pt x="196" y="408" on="1"/>
        <pt x="196" y="124" on="1"/>
        <pt x="196" y="31" on="0"/>
        <pt x="265" y="-101" on="0"/>
        <pt x="354" y="-172" on="1"/>
        <pt x="338" y="-198" on="1"/>
        <pt x="204" y="-112" on="0"/>
      </contour>
    </TTGlyph>
    <TTGlyph name="parenright" xMin="16" yMin="-198" xMax="310" yMax="730">
      <contour>
        <pt x="16" y="-172" on="1"/>
        <pt x="105" y="-101" on="0"/>
        <pt x="174" y="31" on="0"/>
        <pt x="174" y="124" on="1"/>
        <pt x="174" y="408" on="1"/>
        <pt x="174" y="501" on="0"/>
        <pt x="105" y="633" on="0"/>
        <pt x="16" y="704" on="1"/>
        <pt x="32" y="730" on="1"/>
        <pt x="166" y="644" on="0"/>
        <pt x="310" y="410" on="0"/>
        <pt x="310" y="122" on="0"/>
        <pt x="166" y="-112" on="0"/>
        <pt x="32" y="-198" on="1"/>
      </contour>
    </TTGlyph>
    <TTGlyph name="percent" xMin="90" yMin="-18" xMax="770" yMax="730">
      <contour>
        <pt x="188" y="-18" on="1"/>
        <pt x="620" y="730" on="1"/>
        <pt x="670" y="730" on="1"/>
        <pt x="238" y="-18" on="1"/>
      </contour>
      <contour>
        <pt x="584" y="166" on="1"/>
        <pt x="584" y="76" on="0"/>
        <pt x="604" y="4" on="0"/>
        <pt x="652" y="4" on="0"/>
        <pt x="674" y="76" on="0"/>
        <pt x="674" y="256" on="0"/>
        <pt x="652" y="330" on="0"/>
        <pt x="604" y="330" on="0"/>
        <pt x="584" y="257" on="0"/>
      </contour>
      <contour>
        <pt x="488" y="85" on="0"/>
        <pt x="488" y="247" on="0"/>
        <pt x="572" y="350" on="0"/>
        <pt x="684" y="350" on="0"/>
        <pt x="770" y="247" on="0"/>
        <pt x="770" y="166" on="1"/>
        <pt x="770" y="86" on="0"/>
        <pt x="685" y="-16" on="0"/>
        <pt x="628" y="-16" on="1"/>
        <pt x="572" y="-16" on="0"/>
      </contour>
      <contour>
        <pt x="186" y="546" on="1"/>
        <pt x="186" y="456" on="0"/>
        <pt x="206" y="384" on="0"/>
        <pt x="254" y="384" on="0"/>
        <pt x="276" y="456" on="0"/>
        <pt x="276" y="636" on="0"/>
        <pt x="254" y="710" on="0"/>
        <pt x="206" y="710" on="0"/>
        <pt x="186" y="637" on="0"/>
      </contour>
      <contour>
        <pt x="90" y="465" on="0"/>
        <pt x="90" y="627" on="0"/>
        <pt x="174" y="730" on="0"/>
        <pt x="286" y="730" on="0"/>
        <pt x="372" y="627" on="0"/>
        <pt x="372" y="546" on="1"/>
        <pt x="372" y="466" on="0"/>
        <pt x="287" y="364" on="0"/>
        <pt x="230" y="364" on="1"/>
        <pt x="174" y="364" on="0"/>
      </contour>
    </TTGlyph>
    <TTGlyph name="period" xMin="62" yMin="-12" xMax="218" yMax="144">
      <contour>
        <pt x="62" y="32" on="0"/>
        <pt x="62" y="100" on="0"/>
        <pt x="106" y="144" on="0"/>
        <pt x="174" y="144" on="0"/>
        <pt x="218" y="100" on="0"/>
        <pt x="218" y="32" on="0"/>
        <pt x="174" y="-12" on="0"/>
        <pt x="106" y="-12" on="0"/>
      </contour>
    </TTGlyph>
    <TTGlyph name="periodcentered" xMin="62" yMin="252" xMax="218" yMax="408">
      <component glyphName="period" x="0" y="264" flags="0x1004"/>
    </TTGlyph>
    <TTGlyph name="plus" xMin="42" yMin="-156" xMax="898" yMax="700">
      <contour>
        <pt x="42" y="240" on="1"/>
        <pt x="42" y="304" on="1"/>
        <pt x="436" y="304" on="1"/>
        <pt x="436" y="700" on="1"/>
        <pt x="504" y="700" on="1"/>
        <pt x="504" y="304" on="1"/>
        <pt x="898" y="304" on="1"/>
        <pt x="898" y="240" on="1"/>
        <pt x="504" y="240" on="1"/>
        <pt x="504" y="-156" on="1"/>
        <pt x="436" y="-156" on="1"/>
        <pt x="436" y="240" on="1"/>
      </contour>
    </TTGlyph>
    <TTGlyph name="plusminus" xMin="48" yMin="-64" xMax="892" yMax="688">
      <contour>
        <pt x="48" y="344" on="1"/>
        <pt x="48" y="408" on="1"/>
        <pt x="436" y="408" on="1"/>
        <pt x="436" y="688" on="1"/>
        <pt x="504" y="688" on="1"/>
        <pt x="504" y="408" on="1"/>
        <pt x="892" y="408" on="1"/>
        <pt x="892" y="344" on="1"/>
        <pt x="504" y="344" on="1"/>
        <pt x="504" y="64" on="1"/>
        <pt x="436" y="64" on="1"/>
        <pt x="436" y="344" on="1"/>
      </contour>
      <contour>
        <pt x="48" y="0" on="1"/>
        <pt x="884" y="0" on="1"/>
        <pt x="884" y="-64" on="1"/>
        <pt x="48" y="-64" on="1"/>
      </contour>
    </TTGlyph>
    <TTGlyph name="q" xMin="48" yMin="-228" xMax="498" yMax="486">
      <contour>
        <pt x="48" y="174" on="0"/>
        <pt x="48" y="300" on="0"/>
        <pt x="92" y="414" on="0"/>
        <pt x="176" y="486" on="0"/>
        <pt x="228" y="486" on="1"/>
        <pt x="264" y="486" on="0"/>
        <pt x="313" y="450" on="0"/>
        <pt x="332" y="421" on="1"/>
        <pt x="344" y="402" on="0"/>
        <pt x="360" y="388" on="0"/>
        <pt x="371" y="388" on="1"/>
        <pt x="388" y="388" on="0"/>
        <pt x="400" y="416" on="1"/>
        <pt x="428" y="474" on="1"/>
        <pt x="444" y="474" on="1"/>
        <pt x="444" y="-188" on="1"/>
        <pt x="444" y="-197" on="0"/>
        <pt x="451" y="-204" on="0"/>
        <pt x="460" y="-204" on="1"/>
        <pt x="498" y="-204" on="1"/>
        <pt x="498" y="-228" on="1"/>
        <pt x="256" y="-228" on="1"/>
        <pt x="256" y="-204" on="1"/>
        <pt x="312" y="-204" on="1"/>
        <pt x="321" y="-204" on="0"/>
        <pt x="328" y="-197" on="0"/>
        <pt x="328" y="-188" on="1"/>
        <pt x="328" y="57" on="1"/>
        <pt x="322" y="59" on="1"/>
        <pt x="306" y="26" on="0"/>
        <pt x="256" y="-12" on="0"/>
        <pt x="224" y="-12" on="1"/>
        <pt x="172" y="-12" on="0"/>
        <pt x="90" y="60" on="0"/>
      </contour>
      <contour>
        <pt x="176" y="454" on="0"/>
        <pt x="176" y="20" on="0"/>
        <pt x="242" y="20" on="1"/>
        <pt x="255" y="20" on="0"/>
        <pt x="284" y="46" on="0"/>
        <pt x="310" y="96" on="0"/>
        <pt x="328" y="184" on="0"/>
        <pt x="328" y="240" on="1"/>
        <pt x="328" y="298" on="0"/>
        <pt x="304" y="398" on="0"/>
        <pt x="265" y="454" on="0"/>
        <pt x="242" y="454" on="1"/>
      </contour>
    </TTGlyph>
    <TTGlyph name="question" xMin="72" yMin="-12" xMax="392" yMax="732">
      <contour>
        <pt x="170" y="32" on="0"/>
        <pt x="170" y="100" on="0"/>
        <pt x="214" y="144" on="0"/>
        <pt x="282" y="144" on="0"/>
        <pt x="326" y="100" on="0"/>
        <pt x="326" y="32" on="0"/>
        <pt x="282" y="-12" on="0"/>
        <pt x="214" y="-12" on="0"/>
      </contour>
      <contour>
        <pt x="72" y="586" on="1"/>
        <pt x="72" y="645" on="0"/>
        <pt x="156" y="732" on="0"/>
        <pt x="229" y="732" on="1"/>
        <pt x="300" y="732" on="0"/>
        <pt x="392" y="650" on="0"/>
        <pt x="392" y="588" on="1"/>
        <pt x="392" y="507" on="0"/>
        <pt x="269" y="394" on="1"/>
        <pt x="248" y="374" on="0"/>
        <pt x="224" y="350" on="0"/>
        <pt x="197" y="314" on="0"/>
        <pt x="184" y="276" on="0"/>
        <pt x="184" y="256" on="1"/>
        <pt x="184" y="231" on="0"/>
        <pt x="220" y="206" on="0"/>
        <pt x="270" y="206" on="0"/>
        <pt x="301" y="244" on="0"/>
        <pt x="301" y="272" on="1"/>
        <pt x="301" y="284" on="0"/>
        <pt x="296" y="298" on="1"/>
        <pt x="320" y="308" on="1"/>
        <pt x="329" y="288" on="0"/>
        <pt x="329" y="271" on="1"/>
        <pt x="329" y="230" on="0"/>
        <pt x="280" y="176" on="0"/>
        <pt x="245" y="176" on="1"/>
        <pt x="206" y="176" on="0"/>
        <pt x="150" y="218" on="0"/>
        <pt x="150" y="257" on="1"/>
        <pt x="150" y="316" on="0"/>
        <pt x="202" y="397" on="1"/>
        <pt x="219" y="424" on="0"/>
        <pt x="238" y="458" on="0"/>
        <pt x="260" y="510" on="0"/>
        <pt x="270" y="567" on="0"/>
        <pt x="270" y="601" on="1"/>
        <pt x="270" y="640" on="0"/>
        <pt x="232" y="692" on="0"/>
        <pt x="198" y="692" on="1"/>
        <pt x="158" y="692" on="0"/>
        <pt x="106" y="627" on="0"/>
        <pt x="106" y="584" on="1"/>
        <pt x="106" y="548" on="0"/>
        <pt x="122" y="503" on="0"/>
        <pt x="144" y="476" on="1"/>
        <pt x="121" y="459" on="1"/>
        <pt x="96" y="490" on="0"/>
        <pt x="72" y="546" on="0"/>
      </contour>
    </TTGlyph>
    <TTGlyph name="questiondown" xMin="72" yMin="-238" xMax="392" yMax="506">
      <contour>
        <pt x="138" y="394" on="0"/>
        <pt x="138" y="462" on="0"/>
        <pt x="182" y="506" on="0"/>
        <pt x="250" y="506" on="0"/>
        <pt x="294" y="462" on="0"/>
        <pt x="294" y="394" on="0"/>
        <pt x="250" y="350" on="0"/>
        <pt x="182" y="350" on="0"/>
      </contour>
      <contour>
        <pt x="72" y="-94" on="1"/>
        <pt x="72" y="-13" on="0"/>
        <pt x="195" y="100" on="1"/>
        <pt x="216" y="120" on="0"/>
        <pt x="240" y="144" on="0"/>
        <pt x="267" y="180" on="0"/>
        <pt x="280" y="218" on="0"/>
        <pt x="280" y="238" on="1"/>
        <pt x="280" y="263" on="0"/>
        <pt x="244" y="288" on="0"/>
        <pt x="194" y="288" on="0"/>
        <pt x="163" y="250" on="0"/>
        <pt x="163" y="222" on="1"/>
        <pt x="163" y="210" on="0"/>
        <pt x="168" y="196" on="1"/>
        <pt x="144" y="186" on="1"/>
        <pt x="135" y="206" on="0"/>
        <pt x="135" y="223" on="1"/>
        <pt x="135" y="264" on="0"/>
        <pt x="184" y="318" on="0"/>
        <pt x="219" y="318" on="1"/>
        <pt x="258" y="318" on="0"/>
        <pt x="314" y="276" on="0"/>
        <pt x="314" y="237" on="1"/>
        <pt x="314" y="178" on="0"/>
        <pt x="262" y="97" on="1"/>
        <pt x="245" y="70" on="0"/>
        <pt x="226" y="36" on="0"/>
        <pt x="204" y="-16" on="0"/>
        <pt x="194" y="-73" on="0"/>
        <pt x="194" y="-107" on="1"/>
        <pt x="194" y="-146" on="0"/>
        <pt x="232" y="-198" on="0"/>
        <pt x="266" y="-198" on="1"/>
        <pt x="306" y="-198" on="0"/>
        <pt x="358" y="-133" on="0"/>
        <pt x="358" y="-90" on="1"/>
        <pt x="358" y="-54" on="0"/>
        <pt x="342" y="-9" on="0"/>
        <pt x="320" y="18" on="1"/>
        <pt x="343" y="35" on="1"/>
        <pt x="368" y="4" on="0"/>
        <pt x="392" y="-52" on="0"/>
        <pt x="392" y="-92" on="1"/>
        <pt x="392" y="-151" on="0"/>
        <pt x="308" y="-238" on="0"/>
        <pt x="235" y="-238" on="1"/>
        <pt x="164" y="-238" on="0"/>
        <pt x="72" y="-156" on="0"/>
      </contour>
    </TTGlyph>
    <TTGlyph name="quotedbl" xMin="72" yMin="482" xMax="322" yMax="730">
      <component glyphName="quotesingle" x="0" y="0" flags="0x1004"/>
      <component glyphName="quotesingle" x="154" y="0" flags="0x1004"/>
    </TTGlyph>
    <TTGlyph name="quotedblbase" xMin="46" yMin="-196" xMax="458" yMax="148">
      <component glyphName="comma" x="0" y="0" flags="0x1004"/>
      <component glyphName="comma" x="220" y="0" flags="0x1004"/>
    </TTGlyph>
    <TTGlyph name="quotedblleft" xMin="42" yMin="386" xMax="454" yMax="730">
      <component glyphName="quoteleft" x="0" y="0" flags="0x1004"/>
      <component glyphName="quoteleft" x="220" y="0" flags="0x1004"/>
    </TTGlyph>
    <TTGlyph name="quotedblright" xMin="46" yMin="386" xMax="458" yMax="730">
      <component glyphName="comma" x="0" y="582" flags="0x1004"/>
      <component glyphName="comma" x="220" y="582" flags="0x1004"/>
    </TTGlyph>
    <TTGlyph name="quoteleft" xMin="42" yMin="386" xMax="234" yMax="730">
      <contour>
        <pt x="42" y="502" on="1"/>
        <pt x="42" y="584" on="0"/>
        <pt x="138" y="702" on="0"/>
        <pt x="214" y="730" on="1"/>
        <pt x="228" y="702" on="1"/>
        <pt x="166" y="678" on="0"/>
        <pt x="88" y="592" on="0"/>
        <pt x="88" y="544" on="1"/>
        <pt x="88" y="537" on="0"/>
        <pt x="96" y="526" on="0"/>
        <pt x="105" y="526" on="1"/>
        <pt x="113" y="526" on="0"/>
        <pt x="129" y="534" on="1"/>
        <pt x="147" y="543" on="0"/>
        <pt x="163" y="543" on="1"/>
        <pt x="190" y="543" on="0"/>
        <pt x="234" y="505" on="0"/>
        <pt x="234" y="471" on="1"/>
        <pt x="234" y="431" on="0"/>
        <pt x="182" y="386" on="0"/>
        <pt x="148" y="386" on="1"/>
        <pt x="100" y="386" on="0"/>
        <pt x="42" y="452" on="0"/>
      </contour>
    </TTGlyph>
    <TTGlyph name="quoteright" xMin="46" yMin="386" xMax="238" yMax="730">
      <component glyphName="comma" x="0" y="582" flags="0x1004"/>
    </TTGlyph>
    <TTGlyph name="quotesinglbase" xMin="46" yMin="-196" xMax="238" yMax="148">
      <component glyphName="comma" x="0" y="0" flags="0x1004"/>
    </TTGlyph>
    <TTGlyph name="quotesingle" xMin="72" yMin="482" xMax="168" yMax="730">
      <contour>
        <pt x="72" y="672" on="1"/>
        <pt x="72" y="699" on="0"/>
        <pt x="98" y="730" on="0"/>
        <pt x="142" y="730" on="0"/>
        <pt x="168" y="699" on="0"/>
        <pt x="168" y="672" on="1"/>
        <pt x="168" y="656" on="0"/>
        <pt x="163" y="621" on="1"/>
        <pt x="142" y="482" on="1"/>
        <pt x="98" y="482" on="1"/>
        <pt x="77" y="621" on="1"/>
        <pt x="72" y="656" on="0"/>
      </contour>
    </TTGlyph>
    <TTGlyph name="r" xMin="40" yMin="0" xMax="408" yMax="486">
      <contour>
        <pt x="40" y="0" on="1"/>
        <pt x="40" y="24" on="1"/>
        <pt x="78" y="24" on="1"/>
        <pt x="87" y="24" on="0"/>
        <pt x="94" y="31" on="0"/>
        <pt x="94" y="40" on="1"/>
        <pt x="94" y="434" on="1"/>
        <pt x="94" y="443" on="0"/>
        <pt x="87" y="450" on="0"/>
        <pt x="78" y="450" on="1"/>
        <pt x="40" y="450" on="1"/>
        <pt x="40" y="474" on="1"/>
        <pt x="210" y="474" on="1"/>
        <pt x="210" y="375" on="1"/>
        <pt x="215" y="374" on="1"/>
        <pt x="230" y="420" on="0"/>
        <pt x="290" y="486" on="0"/>
        <pt x="362" y="486" on="0"/>
        <pt x="408" y="434" on="0"/>
        <pt x="408" y="394" on="1"/>
        <pt x="408" y="358" on="0"/>
        <pt x="366" y="304" on="0"/>
        <pt x="335" y="304" on="1"/>
        <pt x="308" y="304" on="0"/>
        <pt x="270" y="337" on="0"/>
        <pt x="270" y="385" on="0"/>
        <pt x="294" y="413" on="1"/>
        <pt x="308" y="429" on="0"/>
        <pt x="308" y="436" on="1"/>
        <pt x="308" y="446" on="0"/>
        <pt x="297" y="446" on="1"/>
        <pt x="276" y="446" on="0"/>
        <pt x="236" y="390" on="0"/>
        <pt x="210" y="294" on="0"/>
        <pt x="210" y="241" on="1"/>
        <pt x="210" y="40" on="1"/>
        <pt x="210" y="31" on="0"/>
        <pt x="217" y="24" on="0"/>
        <pt x="226" y="24" on="1"/>
        <pt x="258" y="24" on="1"/>
        <pt x="258" y="0" on="1"/>
      </contour>
    </TTGlyph>
    <TTGlyph name="registered" xMin="48" yMin="-18" xMax="772" yMax="730">
      <contour>
        <pt x="88" y="447" on="0"/>
        <pt x="88" y="265" on="0"/>
        <pt x="172" y="110" on="0"/>
        <pt x="320" y="18" on="0"/>
        <pt x="500" y="18" on="0"/>
        <pt x="648" y="110" on="0"/>
        <pt x="732" y="265" on="0"/>
        <pt x="732" y="447" on="0"/>
        <pt x="648" y="602" on="0"/>
        <pt x="500" y="694" on="0"/>
        <pt x="320" y="694" on="0"/>
        <pt x="172" y="602" on="0"/>
      </contour>
      <contour>
        <pt x="48" y="280" on="0"/>
        <pt x="48" y="432" on="0"/>
        <pt x="104" y="570" on="0"/>
        <pt x="200" y="670" on="0"/>
        <pt x="334" y="730" on="0"/>
        <pt x="486" y="730" on="0"/>
        <pt x="620" y="670" on="0"/>
        <pt x="716" y="570" on="0"/>
        <pt x="772" y="432" on="0"/>
        <pt x="772" y="280" on="0"/>
        <pt x="716" y="142" on="0"/>
        <pt x="620" y="42" on="0"/>
        <pt x="486" y="-18" on="0"/>
        <pt x="334" y="-18" on="0"/>
        <pt x="200" y="42" on="0"/>
        <pt x="104" y="142" on="0"/>
      </contour>
      <contour>
        <pt x="374" y="385" on="1"/>
        <pt x="414" y="385" on="1"/>
        <pt x="446" y="385" on="0"/>
        <pt x="472" y="434" on="0"/>
        <pt x="472" y="520" on="0"/>
        <pt x="446" y="562" on="0"/>
        <pt x="414" y="562" on="1"/>
        <pt x="392" y="562" on="1"/>
        <pt x="374" y="562" on="0"/>
        <pt x="374" y="544" on="1"/>
      </contour>
      <contour>
        <pt x="204" y="130" on="1"/>
        <pt x="204" y="154" on="1"/>
        <pt x="244" y="154" on="1"/>
        <pt x="262" y="154" on="0"/>
        <pt x="262" y="172" on="1"/>
        <pt x="262" y="544" on="1"/>
        <pt x="262" y="562" on="0"/>
        <pt x="244" y="562" on="1"/>
        <pt x="204" y="562" on="1"/>
        <pt x="204" y="586" on="1"/>
        <pt x="428" y="586" on="1"/>
        <pt x="502" y="586" on="0"/>
        <pt x="592" y="525" on="0"/>
        <pt x="592" y="473" on="1"/>
        <pt x="592" y="428" on="0"/>
        <pt x="517" y="376" on="0"/>
        <pt x="456" y="370" on="1"/>
        <pt x="456" y="365" on="1"/>
        <pt x="514" y="356" on="0"/>
        <pt x="576" y="304" on="0"/>
        <pt x="576" y="249" on="1"/>
        <pt x="576" y="180" on="1"/>
        <pt x="576" y="154" on="0"/>
        <pt x="608" y="154" on="0"/>
        <pt x="622" y="208" on="0"/>
        <pt x="622" y="246" on="1"/>
        <pt x="646" y="246" on="1"/>
        <pt x="646" y="216" on="0"/>
        <pt x="638" y="170" on="0"/>
        <pt x="620" y="132" on="0"/>
        <pt x="586" y="112" on="0"/>
        <pt x="562" y="112" on="1"/>
        <pt x="518" y="112" on="0"/>
        <pt x="464" y="161" on="0"/>
        <pt x="464" y="208" on="1"/>
        <pt x="464" y="287" on="1"/>
        <pt x="464" y="318" on="0"/>
        <pt x="436" y="360" on="0"/>
        <pt x="407" y="360" on="1"/>
        <pt x="374" y="360" on="1"/>
        <pt x="374" y="172" on="1"/>
        <pt x="374" y="154" on="0"/>
        <pt x="392" y="154" on="1"/>
        <pt x="440" y="154" on="1"/>
        <pt x="440" y="130" on="1"/>
      </contour>
    </TTGlyph>
    <TTGlyph name="ring" xMin="113" yMin="516" xMax="327" yMax="730">
      <contour>
        <pt x="113" y="578" on="0"/>
        <pt x="113" y="668" on="0"/>
        <pt x="175" y="730" on="0"/>
        <pt x="265" y="730" on="0"/>
        <pt x="327" y="668" on="0"/>
        <pt x="327" y="578" on="0"/>
        <pt x="265" y="516" on="0"/>
        <pt x="175" y="516" on="0"/>
      </contour>
      <contour>
        <pt x="157" y="652" on="0"/>
        <pt x="157" y="594" on="0"/>
        <pt x="192" y="560" on="0"/>
        <pt x="248" y="560" on="0"/>
        <pt x="283" y="594" on="0"/>
        <pt x="283" y="652" on="0"/>
        <pt x="248" y="686" on="0"/>
        <pt x="192" y="686" on="0"/>
      </contour>
    </TTGlyph>
    <TTGlyph name="s" xMin="58" yMin="-12" xMax="398" yMax="486">
      <contour>
        <pt x="58" y="-12" on="1"/>
        <pt x="58" y="186" on="1"/>
        <pt x="80" y="186" on="1"/>
        <pt x="125" y="107" on="1"/>
        <pt x="179" y="12" on="0"/>
        <pt x="261" y="12" on="1"/>
        <pt x="298" y="12" on="0"/>
        <pt x="334" y="49" on="0"/>
        <pt x="334" y="72" on="1"/>
        <pt x="334" y="101" on="0"/>
        <pt x="286" y="141" on="0"/>
        <pt x="209" y="178" on="1"/>
        <pt x="186" y="189" on="0"/>
        <pt x="156" y="206" on="0"/>
        <pt x="109" y="240" on="0"/>
        <pt x="80" y="272" on="0"/>
        <pt x="58" y="322" on="0"/>
        <pt x="58" y="350" on="1"/>
        <pt x="58" y="412" on="0"/>
        <pt x="136" y="486" on="0"/>
        <pt x="192" y="486" on="1"/>
        <pt x="238" y="486" on="0"/>
        <pt x="292" y="452" on="1"/>
        <pt x="310" y="440" on="0"/>
        <pt x="334" y="440" on="0"/>
        <pt x="338" y="456" on="1"/>
        <pt x="344" y="476" on="1"/>
        <pt x="362" y="476" on="1"/>
        <pt x="362" y="316" on="1"/>
        <pt x="340" y="316" on="1"/>
        <pt x="321" y="354" on="1"/>
        <pt x="294" y="408" on="0"/>
        <pt x="224" y="462" on="0"/>
        <pt x="188" y="462" on="1"/>
        <pt x="161" y="462" on="0"/>
        <pt x="126" y="436" on="0"/>
        <pt x="126" y="407" on="1"/>
        <pt x="126" y="348" on="0"/>
        <pt x="232" y="298" on="1"/>
        <pt x="328" y="252" on="0"/>
        <pt x="398" y="182" on="0"/>
        <pt x="398" y="122" on="1"/>
        <pt x="398" y="60" on="0"/>
        <pt x="320" y="-12" on="0"/>
        <pt x="260" y="-12" on="1"/>
        <pt x="210" y="-12" on="0"/>
        <pt x="156" y="20" on="1"/>
        <pt x="132" y="36" on="0"/>
        <pt x="120" y="36" on="1"/>
        <pt x="107" y="36" on="0"/>
        <pt x="87" y="20" on="0"/>
        <pt x="83" y="9" on="1"/>
        <pt x="76" y="-12" on="1"/>
      </contour>
    </TTGlyph>
</ttFont>
